<?xml version="1.0" encoding="UTF-8" standalone="no"?>
<!-- Created with Inkscape (http://www.inkscape.org/) -->

<svg
   xmlns:dc="http://purl.org/dc/elements/1.1/"
   xmlns:cc="http://creativecommons.org/ns#"
   xmlns:rdf="http://www.w3.org/1999/02/22-rdf-syntax-ns#"
   xmlns:svg="http://www.w3.org/2000/svg"
   xmlns="http://www.w3.org/2000/svg"
   xmlns:sodipodi="http://sodipodi.sourceforge.net/DTD/sodipodi-0.dtd"
   xmlns:inkscape="http://www.inkscape.org/namespaces/inkscape"
   id="svg2"
   version="1.1"
   inkscape:version="0.91 r13725"
   width="3000"
   height="3000"
   viewBox="0 0 3000 3000"
   sodipodi:docname="CUSTOM FASTEST OPTION.RO.v4.svg"
   inkscape:export-filename="D:\ASUS WEBSTORAGE\R+D\CABS\DEV TEAM\WIREFRAME + PROTOTYPE\CUSTOM ICONS\CUSTOM SORT LIST FORMAT.PRICE.v8.png"
   inkscape:export-xdpi="1.5"
   inkscape:export-ydpi="1.5">
  <metadata
     id="metadata8">
    <rdf:RDF>
      <cc:Work
         rdf:about="">
        <dc:format>image/svg+xml</dc:format>
        <dc:type
           rdf:resource="http://purl.org/dc/dcmitype/StillImage" />
        <dc:title></dc:title>
      </cc:Work>
    </rdf:RDF>
  </metadata>
  <defs
     id="defs6" />
  <sodipodi:namedview
     pagecolor="#ffffff"
     bordercolor="#666666"
     borderopacity="1"
     objecttolerance="10"
     gridtolerance="10"
     guidetolerance="10"
     inkscape:pageopacity="0"
     inkscape:pageshadow="2"
     inkscape:window-width="1920"
     inkscape:window-height="1017"
     id="namedview4"
     showgrid="true"
     fit-margin-top="0"
     fit-margin-left="0"
     fit-margin-right="0"
     fit-margin-bottom="0"
     inkscape:zoom="0.098890195"
     inkscape:cx="-622.47966"
     inkscape:cy="1508.8124"
     inkscape:window-x="-8"
     inkscape:window-y="-8"
     inkscape:window-maximized="1"
     inkscape:current-layer="svg2">
    <inkscape:grid
       type="xygrid"
       id="grid4139" />
  </sodipodi:namedview>
  <g
     id="g4227">
    <circle
       style="fill:#ffffff;fill-opacity:1;stroke:#e8390e;stroke-width:128.3081665;stroke-linecap:round;stroke-linejoin:round;stroke-miterlimit:4;stroke-dasharray:none;stroke-opacity:1"
       id="path4163"
       cx="1500"
       cy="1500"
       r="1435.8459" />
    <path
       style="fill:#e8390e;fill-opacity:1;stroke:#e8390e;stroke-opacity:1;stroke-linejoin:round;stroke-width:150;stroke-miterlimit:4;stroke-dasharray:none"
       id="path8119"
       d="m 837.13159,1270.6145 -269.13086,0 c -5.20934,0 -9.71451,5.0445 -13.51921,15.1236 -3.8047,10.0889 -5.70705,22.0353 -5.70705,35.8391 0,13.8037 1.90235,25.7599 5.70705,35.839 l 134.56543,356.8262 c 3.80838,10.0889 8.31356,15.1431 13.51921,15.1431 5.20566,0 9.71452,-5.0542 13.51553,-15.1431 l 134.56543,-356.8262 c 3.80102,-10.0791 5.71074,-22.0353 5.71074,-35.839 0,-13.8038 -1.90972,-25.7502 -5.71074,-35.8391 -3.80101,-10.0889 -8.30987,-15.1236 -13.51553,-15.1236 z"
       inkscape:connector-curvature="0" />
    <g
       style="fill:#e8390e;fill-opacity:1"
       transform="translate(0,189.86186)"
       id="g4209">
      <g
         id="g4178"
         transform="matrix(0.70710678,-0.70710678,0.70710678,0.70710678,-743.03025,1420.3314)"
         style="fill:#e8390e;fill-opacity:1">
        <path
           sodipodi:nodetypes="sssssss"
           id="path4206-2"
           d="m 1559.5439,2592.4878 c 97.3287,0 176.4,-79.0713 176.4,-176.4 l 0,-882 c 10e-5,-97.3287 -79.0712,-176.4 -176.3999,-176.4 -97.3287,0 -176.4,79.0713 -176.4,176.4 l -10e-5,882 c 10e-5,97.3287 79.0714,176.4 176.4,176.4 z"
           inkscape:connector-curvature="0"
           style="fill:#e8390e;fill-opacity:1;stroke:none;stroke-opacity:1" />
        <path
           sodipodi:nodetypes="sssssss"
           id="path4206-2-0"
           d="m 1559.544,2329.8878 c 97.3287,0 176.4,-79.0713 176.3999,-176.3999 l 0,-882.0001 c 0,-97.3287 -79.0712,-176.4 -176.4,-176.4 -97.3287,0 -176.4,79.0713 -176.3999,176.4 l 0,882 c 0,97.3287 79.0713,176.4 176.4,176.4 z"
           inkscape:connector-curvature="0"
           style="fill:#e8390e;fill-opacity:1;stroke:none;stroke-opacity:1" />
      </g>
      <path
         style="fill:#e8390e;fill-opacity:1;stroke:none;stroke-opacity:1"
         inkscape:connector-curvature="0"
         d="m 2007.2133,469.54323 c -68.8217,-68.8217 -180.6455,-68.8217 -249.4672,0 l -623.6682,623.66817 c -68.8219,68.8217 -68.8219,180.6454 -10e-5,249.4672 68.8218,68.8218 180.6455,68.8218 249.4673,0 l 623.6682,-623.66807 c 68.8217,-68.8218 68.8217,-180.6456 0,-249.4673 z"
         id="path4206-2-2"
         sodipodi:nodetypes="sssssss" />
    </g>
  </g>
</svg>
