<?xml version="1.0" encoding="UTF-8" standalone="no"?>
<!-- Created with Inkscape (http://www.inkscape.org/) -->

<svg
   xmlns:dc="http://purl.org/dc/elements/1.1/"
   xmlns:cc="http://creativecommons.org/ns#"
   xmlns:rdf="http://www.w3.org/1999/02/22-rdf-syntax-ns#"
   xmlns:svg="http://www.w3.org/2000/svg"
   xmlns="http://www.w3.org/2000/svg"
   xmlns:sodipodi="http://sodipodi.sourceforge.net/DTD/sodipodi-0.dtd"
   xmlns:inkscape="http://www.inkscape.org/namespaces/inkscape"
   id="svg2"
   version="1.1"
   inkscape:version="0.91 r13725"
   width="3000"
   height="3000"
   viewBox="0 0 3000 3000"
   sodipodi:docname="CUSTOM CHANGE PASSWORD ICON.W+RO.v5.svg"
   inkscape:export-filename="D:\ASUS WEBSTORAGE\R+D\CABS\DEV TEAM\WIREFRAME + PROTOTYPE\CUSTOM ICONS\FINAL CUSTOM LOGOS.v5\FINAL CUSTOM LOGOS.v5.PNG\CUSTOM TOGGLE RIGHT ICON.W+RO.v4.png"
   inkscape:export-xdpi="1.5"
   inkscape:export-ydpi="1.5">
  <metadata
     id="metadata8">
    <rdf:RDF>
      <cc:Work
         rdf:about="">
        <dc:format>image/svg+xml</dc:format>
        <dc:type
           rdf:resource="http://purl.org/dc/dcmitype/StillImage" />
        <dc:title></dc:title>
      </cc:Work>
    </rdf:RDF>
  </metadata>
  <defs
     id="defs6">
    <pattern
       y="0"
       x="0"
       height="6"
       width="6"
       patternUnits="userSpaceOnUse"
       id="EMFhbasepattern" />
  </defs>
  <sodipodi:namedview
     pagecolor="#ffffff"
     bordercolor="#666666"
     borderopacity="1"
     objecttolerance="10"
     gridtolerance="10"
     guidetolerance="10"
     inkscape:pageopacity="0"
     inkscape:pageshadow="2"
     inkscape:window-width="1920"
     inkscape:window-height="1017"
     id="namedview4"
     showgrid="true"
     fit-margin-top="0"
     fit-margin-left="0"
     fit-margin-right="0"
     fit-margin-bottom="0"
     inkscape:zoom="0.19778038"
     inkscape:cx="397.6738"
     inkscape:cy="1575.4523"
     inkscape:window-x="-8"
     inkscape:window-y="-8"
     inkscape:window-maximized="1"
     inkscape:current-layer="svg2"
     showguides="true"
     inkscape:guide-bbox="true"
     inkscape:object-nodes="true">
    <inkscape:grid
       type="xygrid"
       id="grid4160"
       originx="140.73122"
       originy="-100.99352" />
    <sodipodi:guide
       position="1500.7313,1499.0064"
       orientation="1,0"
       id="guide4170" />
  </sodipodi:namedview>
  <g
     id="g4155">
    <circle
       transform="scale(-1,-1)"
       style="fill:#ffffff;fill-opacity:1;stroke:#e8390e;stroke-width:128.30799866;stroke-linecap:round;stroke-linejoin:round;stroke-miterlimit:4;stroke-dasharray:none;stroke-opacity:1"
       id="path4163"
       cx="-1500"
       cy="-1500"
       r="1435.8459" />
    <rect
       y="740.99353"
       x="1163.0676"
       height="1296.0353"
       width="681.96661"
       id="rect4164-0"
       style="fill:none;fill-opacity:1;stroke:#e8390e;stroke-width:247.50457764;stroke-linejoin:round;stroke-miterlimit:4;stroke-dasharray:none;stroke-opacity:1" />
    <rect
       y="1363.334"
       x="1043.4434"
       height="768.77411"
       width="921.21515"
       id="rect4183-9"
       style="fill:none;fill-opacity:1;stroke:#e8390e;stroke-width:495.00915527;stroke-linejoin:round;stroke-miterlimit:4;stroke-dasharray:none;stroke-opacity:1" />
    <rect
       y="1603.2256"
       x="1348.7798"
       height="310.54233"
       width="310.54233"
       id="rect4196"
       style="fill:none;fill-opacity:1;stroke:#e8390e;stroke-width:118.80220032;stroke-linecap:butt;stroke-linejoin:round;stroke-miterlimit:4;stroke-dasharray:none;stroke-opacity:1" />
    <path
       style="fill:#ffffff;fill-opacity:1"
       id="path3"
       d="m 1078.8009,1747.721 c 43.1984,0 63.6812,30.4408 70.875,62.5826 25.9048,115.668 135.832,291.7924 354.375,291.7924 195.7214,0 354.375,-158.6891 354.375,-354.375 0,-195.6859 -158.6536,-354.375 -354.375,-354.375 -79.38,0 -152.204,26.6844 -211.2075,70.875 l 69.4575,0 c 39.123,0 70.875,31.752 70.875,70.875 0,39.123 -31.752,70.875 -70.875,70.875 l -212.625,0 c -39.123,0 -70.875,-31.752 -70.875,-70.875 l 0,-212.625 c 0,-39.123 31.752,-70.875 70.875,-70.875 39.123,0 70.875,31.752 70.875,70.875 l 0,18.3566 c 80.3369,-56.2038 178.0026,-89.2316 283.5,-89.2316 274.0028,0 496.125,222.1222 496.125,496.125 0,274.0028 -222.1222,496.125 -496.125,496.125 -353.6308,0 -496.125,-336.6562 -496.125,-420.8203 0,-51.4907 37.6346,-75.3047 70.875,-75.3047 z"
       inkscape:connector-curvature="0" />
  </g>
</svg>
