<?xml version="1.0" encoding="UTF-8" standalone="no"?>
<!-- Created with Inkscape (http://www.inkscape.org/) -->

<svg
   xmlns:dc="http://purl.org/dc/elements/1.1/"
   xmlns:cc="http://creativecommons.org/ns#"
   xmlns:rdf="http://www.w3.org/1999/02/22-rdf-syntax-ns#"
   xmlns:svg="http://www.w3.org/2000/svg"
   xmlns="http://www.w3.org/2000/svg"
   xmlns:sodipodi="http://sodipodi.sourceforge.net/DTD/sodipodi-0.dtd"
   xmlns:inkscape="http://www.inkscape.org/namespaces/inkscape"
   id="svg2"
   version="1.1"
   inkscape:version="0.91 r13725"
   width="3000"
   height="3000"
   viewBox="0 0 3000 3000"
   sodipodi:docname="CUSTOM_CURRENT_LOCATION.W+RO.v1.svg"
   inkscape:export-filename="D:\ASUS WEBSTORAGE\R+D\CABS\DEV TEAM\WIREFRAME + PROTOTYPE\CUSTOM ICONS\FINAL CUSTOM LOGOS.v5\FINAL CUSTOM LOGOS.v5.PNG\CUSTOM_RECENT_LOCATION.W+RO.v1.png"
   inkscape:export-xdpi="1.5"
   inkscape:export-ydpi="1.5">
  <metadata
     id="metadata8">
    <rdf:RDF>
      <cc:Work
         rdf:about="">
        <dc:format>image/svg+xml</dc:format>
        <dc:type
           rdf:resource="http://purl.org/dc/dcmitype/StillImage" />
        <dc:title></dc:title>
      </cc:Work>
    </rdf:RDF>
  </metadata>
  <defs
     id="defs6">
    <pattern
       y="0"
       x="0"
       height="6"
       width="6"
       patternUnits="userSpaceOnUse"
       id="EMFhbasepattern" />
  </defs>
  <sodipodi:namedview
     pagecolor="#ffffff"
     bordercolor="#666666"
     borderopacity="1"
     objecttolerance="10"
     gridtolerance="10"
     guidetolerance="10"
     inkscape:pageopacity="0"
     inkscape:pageshadow="2"
     inkscape:window-width="1920"
     inkscape:window-height="1017"
     id="namedview4"
     showgrid="true"
     fit-margin-top="0"
     fit-margin-left="0"
     fit-margin-right="0"
     fit-margin-bottom="0"
     inkscape:zoom="0.098890192"
     inkscape:cx="1006.5474"
     inkscape:cy="1558.1025"
     inkscape:window-x="-8"
     inkscape:window-y="-8"
     inkscape:window-maximized="1"
     inkscape:current-layer="svg2"
     showguides="true"
     inkscape:guide-bbox="true"
     inkscape:object-nodes="true">
    <inkscape:grid
       type="xygrid"
       id="grid4160"
       originx="140.73122"
       originy="-100.99352" />
    <sodipodi:guide
       position="1500.7313,1499.0064"
       orientation="1,0"
       id="guide4170" />
  </sodipodi:namedview>
  <g
     id="info"
     transform="matrix(73.499988,0,0,73.499988,-2248.2686,-1374.5063)" />
  <circle
     r="1435.8459"
     cy="-1500"
     cx="-1500"
     id="path4163"
     style="fill:#ffffff;fill-opacity:1;stroke:#e8390e;stroke-width:128.30799866;stroke-linecap:round;stroke-linejoin:round;stroke-miterlimit:4;stroke-dasharray:none;stroke-opacity:1"
     transform="scale(-1,-1)"
     inkscape:export-filename="D:\ASUS WEBSTORAGE\R+D\CABS\DEV TEAM\WIREFRAME + PROTOTYPE\CUSTOM ICONS\FINAL CUSTOM LOGOS.v5\FINAL CUSTOM LOGOS.v5.PNG\CUSTOM TERMS ICON.W+RO.v1.png"
     inkscape:export-xdpi="1.5"
     inkscape:export-ydpi="1.5" />
  <g
     id="g4136"
     transform="matrix(1.0657194,0,0,1.0657194,-1.0878597e-4,-2.2140302e-6)">
    <path
       inkscape:connector-curvature="0"
       id="path4138"
       d="m 1279.9999,2683.519 0,-131.481 -2.25,-0.4979 c -1.2375,-0.2738 -9.675,-1.4135 -18.75,-2.5325 -69.5841,-8.5802 -147.3097,-26.3055 -215.4999,-49.1445 -124.92663,-41.8418 -239.54793,-103.2625 -343.00003,-183.7992 -98.9348,-77.0201 -186.4511,-171.7618 -254.9004,-275.9453 -84.95566,-129.307 -142.10606,-271.5196 -170.10716,-423.293 -3.2861,-17.8118 -9.2905,-57.6851 -11.1924,-74.3257 l -0.8,-7 -131.75,-0.2537 L 0,1534.9925 l 0,-127.4927 0,-127.4925 131.75001,-0.2537 131.75,-0.2537 0.7931,-6.5 c 6.6398,-54.4118 14.6831,-98.1306 27.3207,-148.5 45.878,-182.85549 138.78756,-354.85945 267.37896,-494.99988 13.2178,-14.40495 48.2133,-49.55341 64.5072,-64.78906 111.3285,-104.09859 246.5528,-186.96473 390.14683,-239.08415 82.9077,-30.09241 173.6318,-51.58653 258.8531,-61.32675 l 7,-0.80005 0.2537,-131.74999 L 1280.0073,0 1407.5,0 l 127.4926,0 0.2537,131.7132 0.2537,131.71317 21.0001,2.68484 c 95.962,12.26871 188.9142,36.46317 279.9925,72.87903 194.1512,77.62756 365.9875,209.64975 492.6574,378.50978 118.0611,157.38363 194.7366,345.28658 219.3319,537.49988 1.4428,11.275 2.8331,21.5125 3.0897,22.75 l 0.4666,2.25 131.481,0 131.4809,0 0,127.4999 0,127.5001 -131.4809,0 -131.481,0 -0.4917,2.25 c -0.2705,1.2375 -0.9819,6.75 -1.5811,12.25 -2.6508,24.3338 -9.7761,66.9202 -16.564,99 -53.7167,253.8662 -195.1927,485.5512 -397.1218,650.3379 -150.3802,122.7197 -327.1656,204.978 -516.1552,240.1674 -21.3323,3.972 -53.8986,8.9987 -71.1243,10.9783 -5.225,0.6004 -10.5125,1.3083 -11.75,1.5731 l -2.2501,0.4814 0,131.481 0,131.4809 -127.5,0 -127.5001,0 0,-131.4809 z M 1445.5,2302.967 c 152.1675,-7.0535 293.007,-49.1622 421.7378,-126.0926 90.1117,-53.8513 173.075,-126.1057 238.6839,-207.8745 68.9159,-85.8903 120.2913,-180.6772 154.0502,-284.2202 47.0468,-144.2991 56.4131,-300.9951 26.9448,-450.7798 C 2237.628,983.47061 2082.4184,764.95645 1861.1672,634.60212 1756.987,573.22238 1640.2271,533.39559 1521,518.57109 c -82.6477,-10.27628 -168.6222,-9.23124 -249.0001,3.02665 -209.6701,31.97539 -401.03333,137.54695 -540.89583,298.40221 -73.1466,84.1256 -129.3224,179.95926 -167.5015,285.75055 -59.2094,164.0643 -68.246,348.6972 -25.4356,519.6903 50.5235,201.8011 169.9068,379.4605 338.833,504.2321 93.51376,69.0709 201.02793,119.5719 314.49993,147.7254 82.556,20.483 171.2038,29.4066 254.0001,25.5687 z m -81.5899,-385.5153 c -104.7001,-8.7894 -202.1035,-49.0073 -285.4101,-117.846 -15.1818,-12.5451 -50.2184,-47.542 -62.6771,-62.6058 -78.80453,-95.2838 -119.81483,-208.0653 -119.81483,-329.5001 0,-162.427 75.85206,-313.3954 206.37253,-410.74309 73.4161,-54.757 159.1041,-88.09736 252.6193,-98.29186 20.2706,-2.2097 64.5554,-3.0103 85.5001,-1.5456 69.8272,4.883 132.0908,21.51726 193.0001,51.56156 53.6031,26.4406 97.4585,58.22579 139.5514,101.14339 85.7441,87.4239 136.0034,199.0967 145.0138,322.2106 1.5224,20.8008 0.6855,70.4154 -1.5189,90.0534 -9.4071,83.8013 -37.5591,161.2403 -83.8216,230.572 -48.6031,72.8394 -116.9826,133.1107 -195.7863,172.5705 -58.9479,29.5174 -120.9141,46.9159 -186.7488,52.4344 -22.0939,1.852 -64.1371,1.8454 -86.2796,-0.013 z"
       style="fill:#e8390e;fill-opacity:1" />
    <path
       inkscape:connector-curvature="0"
       id="path4139"
       d="M 1307.7765,2295.8578 C 1048.5098,2266.5152 809.63823,2120.2897 664.50405,1902.0778 370.45155,1459.9644 523.4255,863.96627 994.59962,616.00034 1134.0667,542.60271 1274.6729,510.88152 1436.8602,516.22507 c 240.4423,7.92181 448.144,100.98582 616.2368,276.11457 118.8085,123.78156 194.447,268.77436 231.6695,444.09176 13.7856,64.9295 19.0869,203.0431 10.4936,273.385 -59.8025,489.5235 -501.4184,841.0518 -987.4836,786.0414 z m 220.2016,-389.0042 c 190.055,-49.0206 327.9317,-185.4471 377.9125,-373.9376 13.3337,-50.2844 17.9798,-149.2044 9.4954,-202.1622 -17.8141,-111.1908 -61.0895,-197.3702 -140.7815,-280.3554 -121.6783,-126.70614 -295.5468,-180.97641 -467.5232,-145.92983 -196.8662,40.11876 -345.78526,181.40013 -397.36521,376.98513 -11.58191,43.9173 -13.34984,60.6768 -13.34984,126.5527 0,65.8568 1.77023,82.6481 13.34191,126.5526 51.74705,196.3354 209.06394,341.6816 410.72364,379.4703 54.8233,10.2733 153.0647,6.8767 207.5463,-7.1757 z"
       style="fill:#ffffff;fill-opacity:1;stroke:#000000;stroke-width:885.86846924;stroke-linecap:round;stroke-linejoin:round;stroke-miterlimit:4;stroke-dasharray:none;stroke-opacity:0" />
  </g>
</svg>
