<?xml version="1.0" encoding="UTF-8" standalone="no"?>
<!-- Created with Inkscape (http://www.inkscape.org/) -->

<svg
   xmlns:sketch="http://www.bohemiancoding.com/sketch/ns"
   xmlns:dc="http://purl.org/dc/elements/1.1/"
   xmlns:cc="http://creativecommons.org/ns#"
   xmlns:rdf="http://www.w3.org/1999/02/22-rdf-syntax-ns#"
   xmlns:svg="http://www.w3.org/2000/svg"
   xmlns="http://www.w3.org/2000/svg"
   xmlns:sodipodi="http://sodipodi.sourceforge.net/DTD/sodipodi-0.dtd"
   xmlns:inkscape="http://www.inkscape.org/namespaces/inkscape"
   id="svg2"
   version="1.1"
   inkscape:version="0.91 r13725"
   xml:space="preserve"
   width="3000"
   height="3000"
   viewBox="0 0 3000 3000"
   sodipodi:docname="CUSTOM_FACEBOOK.Fonly.v2.svg"
   inkscape:export-filename="D:\ASUS WEBSTORAGE\R+D\CABS\DEV TEAM\WIREFRAME + PROTOTYPE\CUSTOM ICONS\FINAL CUSTOM LOGOS.v5\FINAL CUSTOM LOGOS.v5.PNG\CUSTOM_GOOGLE.Gonly.v2.png"
   inkscape:export-xdpi="1.5"
   inkscape:export-ydpi="1.5"><metadata
     id="metadata8"><rdf:RDF><cc:Work
         rdf:about=""><dc:format>image/svg+xml</dc:format><dc:type
           rdf:resource="http://purl.org/dc/dcmitype/StillImage" /><dc:title></dc:title></cc:Work></rdf:RDF></metadata><defs
     id="defs6"><clipPath
       clipPathUnits="userSpaceOnUse"
       id="clipPath16"><path
         d="M 0,792 612,792 612,0 0,0 0,792 Z"
         id="path18"
         inkscape:connector-curvature="0" /></clipPath><linearGradient
       x1="0"
       y1="0"
       x2="1"
       y2="0"
       gradientUnits="userSpaceOnUse"
       gradientTransform="matrix(0,307.50241,307.50241,0,311.69077,361.76724)"
       spreadMethod="pad"
       id="linearGradient88"><stop
         style="stop-opacity:1;stop-color:#ff8806"
         offset="0"
         id="stop90" /><stop
         style="stop-opacity:1;stop-color:#ff8806"
         offset="0.0410454"
         id="stop92" /><stop
         style="stop-opacity:1;stop-color:#ff8806"
         offset="0.13136028"
         id="stop94" /><stop
         style="stop-opacity:1;stop-color:#e8390e"
         offset="0.946403"
         id="stop96" /><stop
         style="stop-opacity:1;stop-color:#e8390e"
         offset="1"
         id="stop98" /></linearGradient><clipPath
       clipPathUnits="userSpaceOnUse"
       id="clipPath106"><path
         d="M 0,792 612,792 612,0 0,0 0,792 Z"
         id="path108"
         inkscape:connector-curvature="0" /></clipPath><clipPath
       clipPathUnits="userSpaceOnUse"
       id="clipPath114"><path
         d="m 157.94,669.27 307.502,0 0,-158.974 -307.502,0 0,158.974 z"
         id="path116"
         inkscape:connector-curvature="0" /></clipPath><clipPath
       clipPathUnits="userSpaceOnUse"
       id="clipPath138"><path
         d="m 157.939,515.518 c 0,-84.914 68.838,-153.75 153.752,-153.75 l 0,0 c 84.914,0 153.751,68.836 153.751,153.75 l 0,0 c 0,84.915 -68.837,153.752 -153.751,153.752 l 0,0 c -84.914,0 -153.752,-68.837 -153.752,-153.752"
         id="path140"
         inkscape:connector-curvature="0" /></clipPath><linearGradient
       x1="0"
       y1="0"
       x2="1"
       y2="0"
       gradientUnits="userSpaceOnUse"
       gradientTransform="matrix(0.0177288,30.668444,30.668444,-0.0177288,326.59711,491.58777)"
       spreadMethod="pad"
       id="linearGradient194"><stop
         style="stop-opacity:1;stop-color:#ff8806"
         offset="0"
         id="stop196" /><stop
         style="stop-opacity:1;stop-color:#ff8806"
         offset="0.10769"
         id="stop198" /><stop
         style="stop-opacity:1;stop-color:#ff8806"
         offset="0.18911167"
         id="stop200" /><stop
         style="stop-opacity:1;stop-color:#e8390e"
         offset="0.923898"
         id="stop202" /><stop
         style="stop-opacity:1;stop-color:#e8390e"
         offset="1"
         id="stop204" /></linearGradient><linearGradient
       x1="0"
       y1="0"
       x2="1"
       y2="0"
       gradientUnits="userSpaceOnUse"
       gradientTransform="matrix(0.02075,35.894638,35.894638,-0.02075,220.81883,486.36606)"
       spreadMethod="pad"
       id="linearGradient220"><stop
         style="stop-opacity:1;stop-color:#ff8806"
         offset="0"
         id="stop222" /><stop
         style="stop-opacity:1;stop-color:#ff8806"
         offset="0.10769"
         id="stop224" /><stop
         style="stop-opacity:1;stop-color:#ff8806"
         offset="0.18911167"
         id="stop226" /><stop
         style="stop-opacity:1;stop-color:#e8390e"
         offset="0.923898"
         id="stop228" /><stop
         style="stop-opacity:1;stop-color:#e8390e"
         offset="1"
         id="stop230" /></linearGradient><clipPath
       clipPathUnits="userSpaceOnUse"
       id="clipPath238"><path
         d="M 0,792 612,792 612,0 0,0 0,792 Z"
         id="path240"
         inkscape:connector-curvature="0" /></clipPath><clipPath
       clipPathUnits="userSpaceOnUse"
       id="clipPath278"><path
         d="M 0,792 612,792 612,0 0,0 0,792 Z"
         id="path280"
         inkscape:connector-curvature="0" /></clipPath><clipPath
       id="clipPath4243"
       clipPathUnits="userSpaceOnUse"><path
         d="m 15.559322,13.415254 18,0 0,18 -18,0 0,-18 z"
         id="path4245"
         sketch:type="MSShapeGroup"
         inkscape:connector-curvature="0"
         style="fill:none;fill-rule:evenodd;stroke:none;stroke-width:1" /></clipPath><clipPath
       id="clipPath4239"
       clipPathUnits="userSpaceOnUse"><path
         d="m 15.559322,13.415254 18,0 0,18 -18,0 0,-18 z"
         id="path4241"
         sketch:type="MSShapeGroup"
         inkscape:connector-curvature="0"
         style="fill:none;fill-rule:evenodd;stroke:none;stroke-width:1" /></clipPath><clipPath
       id="clipPath4235"
       clipPathUnits="userSpaceOnUse"><path
         d="m 15.559322,13.415254 18,0 0,18 -18,0 0,-18 z"
         id="path4237"
         sketch:type="MSShapeGroup"
         inkscape:connector-curvature="0"
         style="fill:none;fill-rule:evenodd;stroke:none;stroke-width:1" /></clipPath><clipPath
       id="clipPath4231"
       clipPathUnits="userSpaceOnUse"><path
         d="m 15.559322,13.415254 18,0 0,18 -18,0 0,-18 z"
         id="path4233"
         sketch:type="MSShapeGroup"
         inkscape:connector-curvature="0"
         style="fill:none;fill-rule:evenodd;stroke:none;stroke-width:1" /></clipPath></defs><sodipodi:namedview
     pagecolor="#ffffff"
     bordercolor="#666666"
     borderopacity="1"
     objecttolerance="10"
     gridtolerance="10"
     guidetolerance="10"
     inkscape:pageopacity="0"
     inkscape:pageshadow="2"
     inkscape:window-width="1920"
     inkscape:window-height="1017"
     id="namedview4"
     showgrid="false"
     fit-margin-top="0"
     fit-margin-left="0"
     fit-margin-right="0"
     fit-margin-bottom="0"
     inkscape:zoom="0.16856283"
     inkscape:cx="1238.0296"
     inkscape:cy="1953.0814"
     inkscape:window-x="-8"
     inkscape:window-y="-8"
     inkscape:window-maximized="1"
     inkscape:current-layer="g10" /><g
     id="g10"
     inkscape:groupmode="layer"
     inkscape:label="MOOKY_SEARCH BUTTON_3"
     transform="matrix(1.25,0,0,-1.25,1110.3866,2144.3981)"><g
       id="g102"
       transform="matrix(6.9640914,0,0,6.9640914,-1858.9518,-3074.5995)"
       style="fill:#ffffff;fill-opacity:1;stroke:#ffffff;stroke-opacity:1"><g
         transform="translate(426.0662,401.143)"
         id="g126"
         style="fill:#ffffff;fill-opacity:1;stroke:#ffffff;stroke-opacity:1"><path
           inkscape:connector-curvature="0"
           id="path128"
           style="fill:#ffffff;fill-opacity:1;fill-rule:nonzero;stroke:#ffffff;stroke-opacity:1"
           d="M 0,0 C 30.551,30.55 47.376,71.17 47.376,114.376 47.376,157.58 30.551,198.2 0,228.751 c -30.551,30.55 -71.17,47.376 -114.375,47.376 -43.206,0 -83.825,-16.826 -114.376,-47.376 -30.551,-30.552 -47.376,-71.171 -47.376,-114.375 0,-43.206 16.825,-83.824 47.376,-114.376 30.551,-30.55 71.17,-47.376 114.376,-47.376 C -71.17,-47.376 -30.551,-30.55 0,0 m -114.375,-56.196 c -45.561,0 -88.395,17.742 -120.612,49.96 -32.217,32.217 -49.96,75.052 -49.96,120.612 0,45.561 17.743,88.396 49.96,120.612 32.217,32.217 75.051,49.959 120.612,49.959 45.559,0 88.394,-17.742 120.612,-49.959 32.216,-32.216 49.959,-75.051 49.959,-120.612 0,-45.56 -17.743,-88.395 -49.959,-120.612 -32.218,-32.218 -75.052,-49.96 -120.612,-49.96" /></g><g
         transform="translate(426.0662,401.143)"
         id="g130"
         style="fill:#ffffff;fill-opacity:1;stroke:#ffffff;stroke-opacity:1"><path
           inkscape:connector-curvature="0"
           id="path132"
           style="fill:#ffffff;fill-opacity:1;stroke:#ffffff;stroke-width:3.48200011;stroke-linecap:butt;stroke-linejoin:miter;stroke-miterlimit:10;stroke-dasharray:none;stroke-opacity:1"
           d="M 0,0 C 30.551,30.55 47.376,71.17 47.376,114.376 47.376,157.58 30.551,198.2 0,228.751 c -30.551,30.55 -71.17,47.376 -114.375,47.376 -43.206,0 -83.825,-16.826 -114.376,-47.376 -30.551,-30.552 -47.376,-71.171 -47.376,-114.375 0,-43.206 16.825,-83.824 47.376,-114.376 30.551,-30.55 71.17,-47.376 114.376,-47.376 C -71.17,-47.376 -30.551,-30.55 0,0 Z m -114.375,-56.196 c -45.561,0 -88.395,17.742 -120.612,49.96 -32.217,32.217 -49.96,75.052 -49.96,120.612 0,45.561 17.743,88.396 49.96,120.612 32.217,32.217 75.051,49.959 120.612,49.959 45.559,0 88.394,-17.742 120.612,-49.959 32.216,-32.216 49.959,-75.051 49.959,-120.612 0,-45.56 -17.743,-88.395 -49.959,-120.612 -32.218,-32.218 -75.052,-49.96 -120.612,-49.96 z" /></g></g><g
       id="g242"
       transform="matrix(7.1751103,0,0,7.1751103,1414.8732,515.51776)"
       style="stroke:#ffffff;stroke-width:9.47720623;stroke-miterlimit:4;stroke-dasharray:none;stroke-opacity:1;fill:#ffffff;fill-opacity:1"><path
         d="m 0,0 c 0,-84.914 -68.837,-153.751 -153.751,-153.751 -84.915,0 -153.751,68.837 -153.751,153.751 0,84.914 68.836,153.751 153.751,153.751 C -68.837,153.751 0,84.914 0,0 Z"
         style="fill:#ffffff;stroke:#ffffff;stroke-width:9.47720623;stroke-linecap:round;stroke-linejoin:round;stroke-miterlimit:4;stroke-dasharray:none;stroke-opacity:1;fill-opacity:1"
         id="path244"
         inkscape:connector-curvature="0" /></g><path
       style="opacity:1;fill:#48629d;fill-opacity:1;stroke:none;stroke-width:25;stroke-linecap:round;stroke-linejoin:round;stroke-miterlimit:4;stroke-dasharray:none;stroke-opacity:1"
       d="m 163.48347,132.20901 0,322.29054 -108.214,0 -108.2147,0 0,124.68142 0,124.68188 108.2147,0 108.214,0 0.095,109.39087 c 0.1051,121.44999 3.8333,158.21439 21.4544,211.45208 32.536,98.301 115.1617,168.7129 223.1109,190.1306 33.4443,6.6358 56.9393,7.4602 143.5015,5.0348 56.93,-1.5954 108.2731,-4.2658 114.0955,-5.9345 l 10.5859,-3.0344 0,-109.5188 0,-109.51925 -90.5705,-1.86578 c -100.3571,-2.06706 -115.7631,-6.06276 -141.5526,-36.7119 -18.9953,-22.57409 -21.8907,-42.31666 -21.9188,-149.44309 l -0.049,-99.98063 122.3293,0 122.3295,0 0,-10.73575 c 0,-5.90541 -6.3519,-59.29816 -14.1153,-118.6507 -7.7631,-59.35296 -14.1148,-110.62859 -14.1148,-113.94589 0,-4.73002 -23.3446,-6.03096 -108.2147,-6.03096 l -108.214,0 0,-322.29054 0,-322.29059 -129.3869,0 -129.3864,0 0,322.29059 z"
       id="path4198"
       inkscape:connector-curvature="0" /></g></svg>