<?xml version="1.0" encoding="UTF-8" standalone="no"?>
<!-- Created with Inkscape (http://www.inkscape.org/) -->

<svg
   xmlns:sketch="http://www.bohemiancoding.com/sketch/ns"
   xmlns:dc="http://purl.org/dc/elements/1.1/"
   xmlns:cc="http://creativecommons.org/ns#"
   xmlns:rdf="http://www.w3.org/1999/02/22-rdf-syntax-ns#"
   xmlns:svg="http://www.w3.org/2000/svg"
   xmlns="http://www.w3.org/2000/svg"
   xmlns:sodipodi="http://sodipodi.sourceforge.net/DTD/sodipodi-0.dtd"
   xmlns:inkscape="http://www.inkscape.org/namespaces/inkscape"
   id="svg2"
   version="1.1"
   inkscape:version="0.91 r13725"
   xml:space="preserve"
   width="3000"
   height="3000"
   viewBox="0 0 3000 3000"
   sodipodi:docname="CUSTOM_GOOGLE.Gonly.v2.svg"
   inkscape:export-filename="D:\ASUS WEBSTORAGE\R+D\CABS\DEV TEAM\WIREFRAME + PROTOTYPE\CUSTOM ICONS\FINAL CUSTOM LOGOS.v5\FINAL CUSTOM LOGOS.v5.PNG\CUSTOM_MOOKY_PERSON.v4.png"
   inkscape:export-xdpi="1.5"
   inkscape:export-ydpi="1.5"><metadata
     id="metadata8"><rdf:RDF><cc:Work
         rdf:about=""><dc:format>image/svg+xml</dc:format><dc:type
           rdf:resource="http://purl.org/dc/dcmitype/StillImage" /><dc:title></dc:title></cc:Work></rdf:RDF></metadata><defs
     id="defs6"><clipPath
       clipPathUnits="userSpaceOnUse"
       id="clipPath16"><path
         d="M 0,792 612,792 612,0 0,0 0,792 Z"
         id="path18"
         inkscape:connector-curvature="0" /></clipPath><linearGradient
       x1="0"
       y1="0"
       x2="1"
       y2="0"
       gradientUnits="userSpaceOnUse"
       gradientTransform="matrix(0,307.50241,307.50241,0,311.69077,361.76724)"
       spreadMethod="pad"
       id="linearGradient88"><stop
         style="stop-opacity:1;stop-color:#ff8806"
         offset="0"
         id="stop90" /><stop
         style="stop-opacity:1;stop-color:#ff8806"
         offset="0.0410454"
         id="stop92" /><stop
         style="stop-opacity:1;stop-color:#ff8806"
         offset="0.13136028"
         id="stop94" /><stop
         style="stop-opacity:1;stop-color:#e8390e"
         offset="0.946403"
         id="stop96" /><stop
         style="stop-opacity:1;stop-color:#e8390e"
         offset="1"
         id="stop98" /></linearGradient><clipPath
       clipPathUnits="userSpaceOnUse"
       id="clipPath106"><path
         d="M 0,792 612,792 612,0 0,0 0,792 Z"
         id="path108"
         inkscape:connector-curvature="0" /></clipPath><clipPath
       clipPathUnits="userSpaceOnUse"
       id="clipPath114"><path
         d="m 157.94,669.27 307.502,0 0,-158.974 -307.502,0 0,158.974 z"
         id="path116"
         inkscape:connector-curvature="0" /></clipPath><clipPath
       clipPathUnits="userSpaceOnUse"
       id="clipPath138"><path
         d="m 157.939,515.518 c 0,-84.914 68.838,-153.75 153.752,-153.75 l 0,0 c 84.914,0 153.751,68.836 153.751,153.75 l 0,0 c 0,84.915 -68.837,153.752 -153.751,153.752 l 0,0 c -84.914,0 -153.752,-68.837 -153.752,-153.752"
         id="path140"
         inkscape:connector-curvature="0" /></clipPath><linearGradient
       x1="0"
       y1="0"
       x2="1"
       y2="0"
       gradientUnits="userSpaceOnUse"
       gradientTransform="matrix(0.0177288,30.668444,30.668444,-0.0177288,326.59711,491.58777)"
       spreadMethod="pad"
       id="linearGradient194"><stop
         style="stop-opacity:1;stop-color:#ff8806"
         offset="0"
         id="stop196" /><stop
         style="stop-opacity:1;stop-color:#ff8806"
         offset="0.10769"
         id="stop198" /><stop
         style="stop-opacity:1;stop-color:#ff8806"
         offset="0.18911167"
         id="stop200" /><stop
         style="stop-opacity:1;stop-color:#e8390e"
         offset="0.923898"
         id="stop202" /><stop
         style="stop-opacity:1;stop-color:#e8390e"
         offset="1"
         id="stop204" /></linearGradient><linearGradient
       x1="0"
       y1="0"
       x2="1"
       y2="0"
       gradientUnits="userSpaceOnUse"
       gradientTransform="matrix(0.02075,35.894638,35.894638,-0.02075,220.81883,486.36606)"
       spreadMethod="pad"
       id="linearGradient220"><stop
         style="stop-opacity:1;stop-color:#ff8806"
         offset="0"
         id="stop222" /><stop
         style="stop-opacity:1;stop-color:#ff8806"
         offset="0.10769"
         id="stop224" /><stop
         style="stop-opacity:1;stop-color:#ff8806"
         offset="0.18911167"
         id="stop226" /><stop
         style="stop-opacity:1;stop-color:#e8390e"
         offset="0.923898"
         id="stop228" /><stop
         style="stop-opacity:1;stop-color:#e8390e"
         offset="1"
         id="stop230" /></linearGradient><clipPath
       clipPathUnits="userSpaceOnUse"
       id="clipPath238"><path
         d="M 0,792 612,792 612,0 0,0 0,792 Z"
         id="path240"
         inkscape:connector-curvature="0" /></clipPath><clipPath
       clipPathUnits="userSpaceOnUse"
       id="clipPath278"><path
         d="M 0,792 612,792 612,0 0,0 0,792 Z"
         id="path280"
         inkscape:connector-curvature="0" /></clipPath><clipPath
       id="clipPath4243"
       clipPathUnits="userSpaceOnUse"><path
         d="m 15.559322,13.415254 18,0 0,18 -18,0 0,-18 z"
         id="path4245"
         sketch:type="MSShapeGroup"
         inkscape:connector-curvature="0"
         style="fill:none;fill-rule:evenodd;stroke:none;stroke-width:1" /></clipPath><clipPath
       id="clipPath4239"
       clipPathUnits="userSpaceOnUse"><path
         d="m 15.559322,13.415254 18,0 0,18 -18,0 0,-18 z"
         id="path4241"
         sketch:type="MSShapeGroup"
         inkscape:connector-curvature="0"
         style="fill:none;fill-rule:evenodd;stroke:none;stroke-width:1" /></clipPath><clipPath
       id="clipPath4235"
       clipPathUnits="userSpaceOnUse"><path
         d="m 15.559322,13.415254 18,0 0,18 -18,0 0,-18 z"
         id="path4237"
         sketch:type="MSShapeGroup"
         inkscape:connector-curvature="0"
         style="fill:none;fill-rule:evenodd;stroke:none;stroke-width:1" /></clipPath><clipPath
       id="clipPath4231"
       clipPathUnits="userSpaceOnUse"><path
         d="m 15.559322,13.415254 18,0 0,18 -18,0 0,-18 z"
         id="path4233"
         sketch:type="MSShapeGroup"
         inkscape:connector-curvature="0"
         style="fill:none;fill-rule:evenodd;stroke:none;stroke-width:1" /></clipPath></defs><sodipodi:namedview
     pagecolor="#ffffff"
     bordercolor="#666666"
     borderopacity="1"
     objecttolerance="10"
     gridtolerance="10"
     guidetolerance="10"
     inkscape:pageopacity="0"
     inkscape:pageshadow="2"
     inkscape:window-width="1920"
     inkscape:window-height="1017"
     id="namedview4"
     showgrid="false"
     fit-margin-top="0"
     fit-margin-left="0"
     fit-margin-right="0"
     fit-margin-bottom="0"
     inkscape:zoom="0.16856283"
     inkscape:cx="1238.0296"
     inkscape:cy="1953.0814"
     inkscape:window-x="-8"
     inkscape:window-y="-8"
     inkscape:window-maximized="1"
     inkscape:current-layer="g10" /><g
     id="g10"
     inkscape:groupmode="layer"
     inkscape:label="MOOKY_SEARCH BUTTON_3"
     transform="matrix(1.25,0,0,-1.25,1110.3866,2144.3981)"><g
       id="g102"
       transform="matrix(6.9640914,0,0,6.9640914,-1858.9518,-3074.5995)"
       style="fill:#ffffff;fill-opacity:1;stroke:#ffffff;stroke-opacity:1"><g
         transform="translate(426.0662,401.143)"
         id="g126"
         style="fill:#ffffff;fill-opacity:1;stroke:#ffffff;stroke-opacity:1"><path
           inkscape:connector-curvature="0"
           id="path128"
           style="fill:#ffffff;fill-opacity:1;fill-rule:nonzero;stroke:#ffffff;stroke-opacity:1"
           d="M 0,0 C 30.551,30.55 47.376,71.17 47.376,114.376 47.376,157.58 30.551,198.2 0,228.751 c -30.551,30.55 -71.17,47.376 -114.375,47.376 -43.206,0 -83.825,-16.826 -114.376,-47.376 -30.551,-30.552 -47.376,-71.171 -47.376,-114.375 0,-43.206 16.825,-83.824 47.376,-114.376 30.551,-30.55 71.17,-47.376 114.376,-47.376 C -71.17,-47.376 -30.551,-30.55 0,0 m -114.375,-56.196 c -45.561,0 -88.395,17.742 -120.612,49.96 -32.217,32.217 -49.96,75.052 -49.96,120.612 0,45.561 17.743,88.396 49.96,120.612 32.217,32.217 75.051,49.959 120.612,49.959 45.559,0 88.394,-17.742 120.612,-49.959 32.216,-32.216 49.959,-75.051 49.959,-120.612 0,-45.56 -17.743,-88.395 -49.959,-120.612 -32.218,-32.218 -75.052,-49.96 -120.612,-49.96" /></g><g
         transform="translate(426.0662,401.143)"
         id="g130"
         style="fill:#ffffff;fill-opacity:1;stroke:#ffffff;stroke-opacity:1"><path
           inkscape:connector-curvature="0"
           id="path132"
           style="fill:#ffffff;fill-opacity:1;stroke:#ffffff;stroke-width:3.48200011;stroke-linecap:butt;stroke-linejoin:miter;stroke-miterlimit:10;stroke-dasharray:none;stroke-opacity:1"
           d="M 0,0 C 30.551,30.55 47.376,71.17 47.376,114.376 47.376,157.58 30.551,198.2 0,228.751 c -30.551,30.55 -71.17,47.376 -114.375,47.376 -43.206,0 -83.825,-16.826 -114.376,-47.376 -30.551,-30.552 -47.376,-71.171 -47.376,-114.375 0,-43.206 16.825,-83.824 47.376,-114.376 30.551,-30.55 71.17,-47.376 114.376,-47.376 C -71.17,-47.376 -30.551,-30.55 0,0 Z m -114.375,-56.196 c -45.561,0 -88.395,17.742 -120.612,49.96 -32.217,32.217 -49.96,75.052 -49.96,120.612 0,45.561 17.743,88.396 49.96,120.612 32.217,32.217 75.051,49.959 120.612,49.959 45.559,0 88.394,-17.742 120.612,-49.959 32.216,-32.216 49.959,-75.051 49.959,-120.612 0,-45.56 -17.743,-88.395 -49.959,-120.612 -32.218,-32.218 -75.052,-49.96 -120.612,-49.96 z" /></g></g><g
       id="g242"
       transform="matrix(7.1751103,0,0,7.1751103,1414.8732,515.51776)"
       style="stroke:#ffffff;stroke-width:9.47720623;stroke-miterlimit:4;stroke-dasharray:none;stroke-opacity:1;fill:#ffffff;fill-opacity:1"><path
         d="m 0,0 c 0,-84.914 -68.837,-153.751 -153.751,-153.751 -84.915,0 -153.751,68.837 -153.751,153.751 0,84.914 68.836,153.751 153.751,153.751 C -68.837,153.751 0,84.914 0,0 Z"
         style="fill:#ffffff;stroke:#ffffff;stroke-width:9.47720623;stroke-linecap:round;stroke-linejoin:round;stroke-miterlimit:4;stroke-dasharray:none;stroke-opacity:1;fill-opacity:1"
         id="path244"
         inkscape:connector-curvature="0" /></g><g
       id="g4685"
       transform="matrix(2.0906669,0,0,-2.0906669,4009.7707,1669.4245)"><path
         transform="matrix(37.499996,0,0,37.499996,-2683.0763,-288.6399)"
         clip-path="url(#clipPath4243)"
         d="m 33.199322,22.619799 c 0,-0.638181 -0.05727,-1.251818 -0.163636,-1.840909 l -8.476364,0 0,3.481364 4.843636,0 c -0.208636,1.125 -0.842727,2.078182 -1.795909,2.716364 l 0,2.258182 2.908637,0 c 1.701818,-1.566819 2.683636,-3.874091 2.683636,-6.615001 l 0,0 z"
         id="Shape"
         sketch:type="MSShapeGroup"
         inkscape:connector-curvature="0"
         style="fill:#4285f4;fill-rule:evenodd;stroke:none;stroke-width:1" /><path
         transform="matrix(37.499996,0,0,37.499996,-2683.0763,-288.6399)"
         clip-path="url(#clipPath4239)"
         d="m 24.559322,31.415254 c 2.43,0 4.467273,-0.805909 5.956364,-2.180454 l -2.908637,-2.258182 c -0.805909,0.54 -1.836818,0.859091 -3.047727,0.859091 -2.344091,0 -4.328182,-1.583182 -5.035909,-3.710455 l -3.006818,0 0,2.331818 c 1.480909,2.941364 4.524545,4.958182 8.042727,4.958182 l 0,0 z"
         id="path48"
         sketch:type="MSShapeGroup"
         inkscape:connector-curvature="0"
         style="fill:#34a853;fill-rule:evenodd;stroke:none;stroke-width:1" /><path
         transform="matrix(37.499996,0,0,37.499996,-2683.0763,-288.6399)"
         clip-path="url(#clipPath4235)"
         d="m 19.523413,24.125254 c -0.18,-0.54 -0.282273,-1.116818 -0.282273,-1.71 0,-0.593182 0.102273,-1.17 0.282273,-1.71 l 0,-2.331818 -3.006818,0 c -0.609546,1.215 -0.957273,2.589545 -0.957273,4.041818 0,1.452273 0.347727,2.826818 0.957273,4.041818 l 3.006818,-2.331818 0,0 z"
         id="path50"
         sketch:type="MSShapeGroup"
         inkscape:connector-curvature="0"
         style="fill:#fbbc05;fill-rule:evenodd;stroke:none;stroke-width:1" /><path
         transform="matrix(37.499996,0,0,37.499996,-2683.0763,-288.6399)"
         clip-path="url(#clipPath4231)"
         d="m 24.559322,16.994799 c 1.321364,0 2.507727,0.454091 3.440455,1.34591 l 2.581363,-2.581364 c -1.558636,-1.452273 -3.595909,-2.344091 -6.021818,-2.344091 -3.518182,0 -6.561818,2.016818 -8.042727,4.958182 l 3.006818,2.331818 c 0.707727,-2.127273 2.691818,-3.710455 5.035909,-3.710455 l 0,0 z"
         id="path52"
         sketch:type="MSShapeGroup"
         inkscape:connector-curvature="0"
         style="fill:#ea4335;fill-rule:evenodd;stroke:none;stroke-width:1" /></g></g></svg>