<?xml version="1.0" encoding="UTF-8" standalone="no"?>
<!-- Created with Inkscape (http://www.inkscape.org/) -->

<svg
   xmlns:dc="http://purl.org/dc/elements/1.1/"
   xmlns:cc="http://creativecommons.org/ns#"
   xmlns:rdf="http://www.w3.org/1999/02/22-rdf-syntax-ns#"
   xmlns:svg="http://www.w3.org/2000/svg"
   xmlns="http://www.w3.org/2000/svg"
   xmlns:sodipodi="http://sodipodi.sourceforge.net/DTD/sodipodi-0.dtd"
   xmlns:inkscape="http://www.inkscape.org/namespaces/inkscape"
   id="svg2"
   version="1.1"
   inkscape:version="0.91 r13725"
   width="3000"
   height="3000"
   viewBox="0 0 3000 3000"
   sodipodi:docname="CUSTOM EMAIL ICON.W+RO.v2.svg"
   inkscape:export-filename="D:\ASUS WEBSTORAGE\R+D\CABS\DEV TEAM\WIREFRAME + PROTOTYPE\CUSTOM ICONS\FINAL CUSTOM LOGOS.v5\FINAL CUSTOM LOGOS.v5.PNG\CUSTOM TOGGLE RIGHT ICON.W+RO.v4.png"
   inkscape:export-xdpi="1.5"
   inkscape:export-ydpi="1.5">
  <metadata
     id="metadata8">
    <rdf:RDF>
      <cc:Work
         rdf:about="">
        <dc:format>image/svg+xml</dc:format>
        <dc:type
           rdf:resource="http://purl.org/dc/dcmitype/StillImage" />
        <dc:title></dc:title>
      </cc:Work>
    </rdf:RDF>
  </metadata>
  <defs
     id="defs6">
    <pattern
       y="0"
       x="0"
       height="6"
       width="6"
       patternUnits="userSpaceOnUse"
       id="EMFhbasepattern" />
  </defs>
  <sodipodi:namedview
     pagecolor="#ffffff"
     bordercolor="#666666"
     borderopacity="1"
     objecttolerance="10"
     gridtolerance="10"
     guidetolerance="10"
     inkscape:pageopacity="0"
     inkscape:pageshadow="2"
     inkscape:window-width="1920"
     inkscape:window-height="1017"
     id="namedview4"
     showgrid="true"
     fit-margin-top="0"
     fit-margin-left="0"
     fit-margin-right="0"
     fit-margin-bottom="0"
     inkscape:zoom="0.13985185"
     inkscape:cx="1403.4646"
     inkscape:cy="1496.7615"
     inkscape:window-x="-8"
     inkscape:window-y="-8"
     inkscape:window-maximized="1"
     inkscape:current-layer="svg2"
     showguides="true"
     inkscape:guide-bbox="true"
     inkscape:object-nodes="true">
    <inkscape:grid
       type="xygrid"
       id="grid4160"
       originx="140.73122"
       originy="-100.99352" />
    <sodipodi:guide
       position="1500.7313,1499.0064"
       orientation="1,0"
       id="guide4170" />
  </sodipodi:namedview>
  <g
     id="g4170">
    <circle
       transform="scale(-1,-1)"
       style="fill:#ffffff;fill-opacity:1;stroke:#e8390e;stroke-width:128.30799866;stroke-linecap:round;stroke-linejoin:round;stroke-miterlimit:4;stroke-dasharray:none;stroke-opacity:1"
       id="path4163"
       cx="-1500"
       cy="-1500"
       r="1435.8459" />
    <g
       style="fill:#e8390e;fill-opacity:1"
       transform="matrix(1.0106668,0,0,1.0106668,2924.1538,538.35721)"
       id="g4162">
      <path
         inkscape:connector-curvature="0"
         style="fill:#e8390e;fill-opacity:1"
         d="m -675.34515,1537.4309 c -18.46,-19.7657 -131.8401,-136.4696 -251.9551,-259.342 l -218.39145,-223.4046 -66.241,64.5966 c -52.462,51.1597 -73.3701,67.2498 -100.5141,77.3516 -69.4047,25.8297 -138.0232,23.8479 -199.4891,-5.7616 -15.6934,-7.5598 -57.5051,-41.8845 -92.9149,-76.2769 l -64.3815,-62.5318 -216.9517,221.5906 c -119.3233,121.8748 -233.5141,239.1687 -253.7573,260.6531 l -36.8058,39.0625 767.483,0 767.48295,0 -33.564,-35.9375 z"
         id="path4139" />
      <path
         inkscape:connector-curvature="0"
         style="fill:#e8390e;fill-opacity:1"
         d="m -2022.09,1208.0062 254.3925,-259.11206 -256.4969,-258.0754 -256.497,-258.0753 -0.2015,517.1875 c -0.1105,284.45306 0.8362,517.18746 2.1044,517.18746 1.2682,0 116.7825,-116.6005 256.6985,-259.1122 z"
         id="path4137" />
      <path
         inkscape:connector-curvature="0"
         style="fill:#e8390e;fill-opacity:1"
         d="m -537.34425,957.22264 c 0,-280.4428 -2.1094,-508.8877 -4.6875,-507.6554 -2.5779,1.2323 -116.8464,115.0789 -253.93,252.9925 l -249.24195,250.7519 251.57645,256.90336 c 138.3675,141.2969 252.6355,256.9034 253.93,256.9034 1.2941,0 2.353,-229.4532 2.353,-509.89576 z"
         id="path4135" />
      <path
         inkscape:connector-curvature="0"
         style="fill:#e8390e;fill-opacity:1"
         d="m -1366.8311,1064.8354 c 12.0152,-5.0978 164.4129,-154.80656 378.55385,-371.87496 l 358.4426,-363.34204 -773.72175,0 -773.7214,0 71.5213,73.43754 c 242.7634,249.2673 648.2557,654.82416 661.7726,661.87816 20.5976,10.7489 51.6793,10.7092 77.1528,-0.099 z"
         id="path4138" />
    </g>
  </g>
</svg>
