<?xml version="1.0" encoding="UTF-8" standalone="no"?>
<!-- Created with Inkscape (http://www.inkscape.org/) -->

<svg
   xmlns:dc="http://purl.org/dc/elements/1.1/"
   xmlns:cc="http://creativecommons.org/ns#"
   xmlns:rdf="http://www.w3.org/1999/02/22-rdf-syntax-ns#"
   xmlns:svg="http://www.w3.org/2000/svg"
   xmlns="http://www.w3.org/2000/svg"
   xmlns:sodipodi="http://sodipodi.sourceforge.net/DTD/sodipodi-0.dtd"
   xmlns:inkscape="http://www.inkscape.org/namespaces/inkscape"
   id="svg2"
   version="1.1"
   inkscape:version="0.91 r13725"
   width="3000"
   height="3000"
   viewBox="0 0 3000 3000"
   sodipodi:docname="CUSTOM LOGOUT ICON.W+RO.v1.svg"
   inkscape:export-filename="D:\ASUS WEBSTORAGE\R+D\CABS\DEV TEAM\WIREFRAME + PROTOTYPE\CUSTOM ICONS\FINAL CUSTOM LOGOS.v5\FINAL CUSTOM LOGOS.v5.PNG\CUSTOM TOGGLE RIGHT ICON.W+RO.v4.png"
   inkscape:export-xdpi="1.5"
   inkscape:export-ydpi="1.5">
  <metadata
     id="metadata8">
    <rdf:RDF>
      <cc:Work
         rdf:about="">
        <dc:format>image/svg+xml</dc:format>
        <dc:type
           rdf:resource="http://purl.org/dc/dcmitype/StillImage" />
        <dc:title></dc:title>
      </cc:Work>
    </rdf:RDF>
  </metadata>
  <defs
     id="defs6">
    <pattern
       y="0"
       x="0"
       height="6"
       width="6"
       patternUnits="userSpaceOnUse"
       id="EMFhbasepattern" />
  </defs>
  <sodipodi:namedview
     pagecolor="#ffffff"
     bordercolor="#666666"
     borderopacity="1"
     objecttolerance="10"
     gridtolerance="10"
     guidetolerance="10"
     inkscape:pageopacity="0"
     inkscape:pageshadow="2"
     inkscape:window-width="1920"
     inkscape:window-height="1017"
     id="namedview4"
     showgrid="true"
     fit-margin-top="0"
     fit-margin-left="0"
     fit-margin-right="0"
     fit-margin-bottom="0"
     inkscape:zoom="0.19778038"
     inkscape:cx="775.60698"
     inkscape:cy="1600.6736"
     inkscape:window-x="-8"
     inkscape:window-y="-8"
     inkscape:window-maximized="1"
     inkscape:current-layer="svg2"
     showguides="true"
     inkscape:guide-bbox="true"
     inkscape:object-nodes="true">
    <inkscape:grid
       type="xygrid"
       id="grid4160"
       originx="140.73122"
       originy="-100.99352" />
    <sodipodi:guide
       position="1500.7313,1499.0064"
       orientation="1,0"
       id="guide4170" />
  </sodipodi:namedview>
  <g
     id="g4192">
    <circle
       transform="scale(-1,-1)"
       style="fill:#ffffff;fill-opacity:1;stroke:#e8390e;stroke-width:128.30799866;stroke-linecap:round;stroke-linejoin:round;stroke-miterlimit:4;stroke-dasharray:none;stroke-opacity:1"
       id="path4163"
       cx="-1500"
       cy="-1500"
       r="1435.8459" />
    <g
       style="fill:#e8390e;fill-opacity:1;stroke:none;stroke-opacity:1"
       transform="matrix(88.2,0,0,88.2,441.6,441.6)"
       id="g4183">
      <g
         style="fill:#e8390e;fill-opacity:1;stroke:none;stroke-opacity:1"
         id="info" />
      <g
         style="fill:#e8390e;fill-opacity:1;stroke:none;stroke-opacity:1"
         id="icons">
        <g
           style="fill:#e8390e;fill-opacity:1;stroke:none;stroke-opacity:1"
           id="exit2">
          <path
             style="fill:#e8390e;fill-opacity:1;stroke:none;stroke-opacity:1"
             inkscape:connector-curvature="0"
             d="m 12,10 c 1.1,0 2,-0.9 2,-2 L 14,4 C 14,2.9 13.1,2 12,2 10.9,2 10,2.9 10,4 l 0,4 c 0,1.1 0.9,2 2,2 z"
             id="path4173" />
          <path
             style="fill:#e8390e;fill-opacity:1;stroke:none;stroke-opacity:1"
             inkscape:connector-curvature="0"
             d="m 19.1,4.9 0,0 C 18.8,4.6 18.5,4.5 18,4.5 c -0.8,0 -1.5,0.7 -1.5,1.5 0,0.4 0.2,0.8 0.4,1.1 l 0,0 c 0,0 0,0 0,0 0,0 0,0 0,0 1.3,1.3 2,3 2,4.9 0,3.9 -3.1,7 -7,7 -3.9,0 -7,-3.1 -7,-7 0,-1.9 0.8,-3.7 2.1,-4.9 l 0,0 C 7.3,6.8 7.5,6.4 7.5,6 7.5,5.2 6.8,4.5 6,4.5 5.6,4.5 5.2,4.7 4.9,4.9 l 0,0 C 3.1,6.7 2,9.2 2,12 2,17.5 6.5,22 12,22 17.5,22 22,17.5 22,12 22,9.2 20.9,6.7 19.1,4.9 Z"
             id="path4175" />
        </g>
      </g>
    </g>
  </g>
</svg>
