<?xml version="1.0" encoding="UTF-8" standalone="no"?>
<!-- Created with Inkscape (http://www.inkscape.org/) -->

<svg
   xmlns:sketch="http://www.bohemiancoding.com/sketch/ns"
   xmlns:dc="http://purl.org/dc/elements/1.1/"
   xmlns:cc="http://creativecommons.org/ns#"
   xmlns:rdf="http://www.w3.org/1999/02/22-rdf-syntax-ns#"
   xmlns:svg="http://www.w3.org/2000/svg"
   xmlns="http://www.w3.org/2000/svg"
   xmlns:sodipodi="http://sodipodi.sourceforge.net/DTD/sodipodi-0.dtd"
   xmlns:inkscape="http://www.inkscape.org/namespaces/inkscape"
   id="svg2"
   version="1.1"
   inkscape:version="0.91 r13725"
   width="3000"
   height="3000"
   viewBox="0 0 3000 3000"
   sodipodi:docname="lyft_logo.v1.svg"
   inkscape:export-filename="D:\ASUS WEBSTORAGE\R+D\CABS\DEV TEAM\WIREFRAME + PROTOTYPE\CUSTOM ICONS\FINAL CUSTOM LOGOS.v5\FINAL CUSTOM LOGOS.v5.PNG\UBER_WAV.v1.png"
   inkscape:export-xdpi="1.5"
   inkscape:export-ydpi="1.5">
  <metadata
     id="metadata8">
    <rdf:RDF>
      <cc:Work
         rdf:about="">
        <dc:format>image/svg+xml</dc:format>
        <dc:type
           rdf:resource="http://purl.org/dc/dcmitype/StillImage" />
        <dc:title></dc:title>
      </cc:Work>
    </rdf:RDF>
  </metadata>
  <defs
     id="defs6">
    <pattern
       y="0"
       x="0"
       height="6"
       width="6"
       patternUnits="userSpaceOnUse"
       id="EMFhbasepattern" />
  </defs>
  <sodipodi:namedview
     pagecolor="#ffffff"
     bordercolor="#666666"
     borderopacity="1"
     objecttolerance="10"
     gridtolerance="10"
     guidetolerance="10"
     inkscape:pageopacity="0"
     inkscape:pageshadow="2"
     inkscape:window-width="1920"
     inkscape:window-height="1017"
     id="namedview4"
     showgrid="true"
     fit-margin-top="0"
     fit-margin-left="0"
     fit-margin-right="0"
     fit-margin-bottom="0"
     inkscape:zoom="0.13985185"
     inkscape:cx="1724.0466"
     inkscape:cy="1795.0467"
     inkscape:window-x="-8"
     inkscape:window-y="-8"
     inkscape:window-maximized="1"
     inkscape:current-layer="svg2"
     showguides="true"
     inkscape:guide-bbox="true"
     inkscape:object-nodes="true">
    <inkscape:grid
       type="xygrid"
       id="grid4160"
       originx="140.73122"
       originy="-100.99352" />
    <sodipodi:guide
       position="1500.7313,1499.0064"
       orientation="1,0"
       id="guide4170" />
  </sodipodi:namedview>
  <g
     id="info"
     transform="matrix(73.499988,0,0,73.499988,-2248.2686,-1374.5063)" />
  <g
     id="g4213">
    <circle
       inkscape:export-ydpi="1.5"
       inkscape:export-xdpi="1.5"
       inkscape:export-filename="D:\ASUS WEBSTORAGE\R+D\CABS\DEV TEAM\WIREFRAME + PROTOTYPE\CUSTOM ICONS\FINAL CUSTOM LOGOS.v5\FINAL CUSTOM LOGOS.v5.PNG\CUSTOM TERMS ICON.W+RO.v1.png"
       transform="scale(-1,-1)"
       style="fill:#ff00bf;fill-opacity:1;stroke:#ff00bf;stroke-width:128.30799866;stroke-linecap:round;stroke-linejoin:round;stroke-miterlimit:4;stroke-dasharray:none;stroke-opacity:1"
       id="path4163"
       cx="-1500"
       cy="-1500"
       r="1435.8459" />
    <g
       style="fill:#f3f3f5;fill-opacity:1"
       sketch:type="MSPage"
       id="Page-1"
       transform="matrix(22.615389,0,0,22.615389,617.99983,619.16841)">
      <g
         style="fill:#f3f3f5;fill-opacity:1"
         sketch:type="MSArtboardGroup"
         id="_x31_x-78px">
        <path
           style="fill:#f3f3f5;fill-opacity:1"
           d="m 74,35 c 2.1,0 2.4,0 3,0 l 0,-11 -2.9,0 C 72.6,17.1 66.2,11.8 58.8,11.8 50.3,11.8 43.1,18.5 43.1,27 l 0,26.7 C 45.5,54 49,54 51.5,51.9 54,49.8 55,46.3 55,43 l 0,-1.2 5,0 0,-10.8 -5,0 0,-4.1 c 0,-2.2 1.2,-4.3 4,-4.3 2.8,0 4,2.2 4,4.3 l 0,11.6 c 0,8.5 6.9,15.4 15,15.4 l 0,-11.3 c -1.8,0 -4,-1.8 -4,-3.9 L 74,35 Z m -45,5.8 c 0,1 -0.5,2.1 -2.1,2.1 -1.2,0 -2,-1.2 -2,-2.1 0,-1.9 0,-15.8 0,-15.8 L 14,25 14,43.8 c 0,3.6 1.4,8.1 7,9.6 5.5,1.5 8.3,-1.6 8.3,-1.6 -0.3,2 -2.2,3.5 -4.7,3.8 -2.3,0.2 -5.1,-0.4 -6.5,-1.2 l 0,10.6 c 4.8,1 7.5,1.5 11.4,0.7 C 36.4,64.4 40,58.4 40,50.6 40,45.5 40,25 40,25 l -11,0 c 0,0 0,13.9 0,15.8 z M 0,13 l 11,0 0,31 c 0,5 2.4,7.9 4.2,9.2 C 13.3,54.9 7.8,56.4 3.5,52.8 0.9,50.6 0,47.1 0,43.9 L 0,13 Z"
           class="st0"
           sketch:type="MSShapeGroup"
           id="vector-fixed-wordmark"
           inkscape:connector-curvature="0" />
      </g>
    </g>
  </g>
</svg>
