<?xml version="1.0" encoding="UTF-8" standalone="no"?>
<!-- Created with Inkscape (http://www.inkscape.org/) -->

<svg
   xmlns:dc="http://purl.org/dc/elements/1.1/"
   xmlns:cc="http://creativecommons.org/ns#"
   xmlns:rdf="http://www.w3.org/1999/02/22-rdf-syntax-ns#"
   xmlns:svg="http://www.w3.org/2000/svg"
   xmlns="http://www.w3.org/2000/svg"
   xmlns:sodipodi="http://sodipodi.sourceforge.net/DTD/sodipodi-0.dtd"
   xmlns:inkscape="http://www.inkscape.org/namespaces/inkscape"
   id="svg2"
   version="1.1"
   inkscape:version="0.91 r13725"
   width="3000"
   height="3000"
   viewBox="0 0 3000 3000"
   sodipodi:docname="UBER_ASSIST.v1.svg"
   inkscape:export-filename="D:\ASUS WEBSTORAGE\R+D\CABS\DEV TEAM\WIREFRAME + PROTOTYPE\CUSTOM ICONS\FINAL CUSTOM LOGOS.v5\FINAL CUSTOM LOGOS.v5.PNG\CUSTOM VERSION ICON.W+RO.v2.png"
   inkscape:export-xdpi="1.5"
   inkscape:export-ydpi="1.5">
  <metadata
     id="metadata8">
    <rdf:RDF>
      <cc:Work
         rdf:about="">
        <dc:format>image/svg+xml</dc:format>
        <dc:type
           rdf:resource="http://purl.org/dc/dcmitype/StillImage" />
        <dc:title></dc:title>
      </cc:Work>
    </rdf:RDF>
  </metadata>
  <defs
     id="defs6">
    <pattern
       y="0"
       x="0"
       height="6"
       width="6"
       patternUnits="userSpaceOnUse"
       id="EMFhbasepattern" />
  </defs>
  <sodipodi:namedview
     pagecolor="#ffffff"
     bordercolor="#666666"
     borderopacity="1"
     objecttolerance="10"
     gridtolerance="10"
     guidetolerance="10"
     inkscape:pageopacity="0"
     inkscape:pageshadow="2"
     inkscape:window-width="1920"
     inkscape:window-height="1017"
     id="namedview4"
     showgrid="true"
     fit-margin-top="0"
     fit-margin-left="0"
     fit-margin-right="0"
     fit-margin-bottom="0"
     inkscape:zoom="0.13985185"
     inkscape:cx="1724.0466"
     inkscape:cy="2367.0806"
     inkscape:window-x="-8"
     inkscape:window-y="-8"
     inkscape:window-maximized="1"
     inkscape:current-layer="svg2"
     showguides="true"
     inkscape:guide-bbox="true"
     inkscape:object-nodes="true">
    <inkscape:grid
       type="xygrid"
       id="grid4160"
       originx="140.73122"
       originy="-100.99352" />
    <sodipodi:guide
       position="1500.7313,1499.0064"
       orientation="1,0"
       id="guide4170" />
  </sodipodi:namedview>
  <g
     id="info"
     transform="matrix(73.499988,0,0,73.499988,-2248.2686,-1374.5063)" />
  <g
     id="g4149">
    <circle
       inkscape:export-ydpi="1.5"
       inkscape:export-xdpi="1.5"
       inkscape:export-filename="D:\ASUS WEBSTORAGE\R+D\CABS\DEV TEAM\WIREFRAME + PROTOTYPE\CUSTOM ICONS\FINAL CUSTOM LOGOS.v5\FINAL CUSTOM LOGOS.v5.PNG\CUSTOM TERMS ICON.W+RO.v1.png"
       transform="scale(-1,-1)"
       style="fill:#ffffff;fill-opacity:1;stroke:#000000;stroke-width:128.30799866;stroke-linecap:round;stroke-linejoin:round;stroke-miterlimit:4;stroke-dasharray:none;stroke-opacity:1"
       id="path4163"
       cx="-1500"
       cy="-1500"
       r="1435.8459" />
    <path
       d="M 2369.9453,1449.567 2119.6489,947.69859 c -2.8317,-5.5486 -6.5817,-10.7144 -11.3522,-15.0385 -4.7832,-4.3112 -10.1404,-7.4745 -15.7273,-9.4771 l -293.4985,-105.486 c -20.4466,-7.347 -42.3474,-11.2884 -65.1411,-11.0843 -22.7681,0.2423 -44.5668,4.6174 -64.9115,12.3598 l -222.6941,84.95 c -15.6761,5.995 -31.2376,12.8828 -46.5821,20.7273 -5.1276,2.6531 -10.166,5.5231 -15.1788,8.342 -16.8114,-9.1073 -34.3627,-17.1303 -52.6792,-23.9544 -58.4191,-21.837 -118.2413,-29.2095 -176.1374,-24.2605 l -149.8233,12.8573 c -6.51794,0.5612 -13.09964,2.5766 -19.24764,6.1863 -6.1481,3.6225 -11.2247,8.5078 -15.2171,14.1583 l -337.3511,480.24831 c -6.9516,9.8598 -10.6634,22.411 -9.5281,35.6892 1.1097,13.2782 6.824,24.9238 15.268,33.2912 l 146.7365,145.4227 c -8.0486,14.7324 -13.1507,31.2759 -14.3242,48.9802 -2.1173,31.8117 8.3292,62.5263 29.3244,86.4935 21.0207,23.9543 50.0899,38.304 81.927,40.3831 1.6965,0.1276 3.4184,0.1276 5.1404,0.1786 -13.0486,42.1816 -2.3725,90.0904 31.6203,122.2591 20.3446,19.2605 46.4291,30.4851 74.1463,32.2836 -17.8574,44.2608 -8.2016,97.042 28.29124,131.5705 22.2579,21.0972 51.3654,32.6917 82.0418,32.6917 31.9392,0 61.7354,-12.4746 84.2357,-35.0004 8.3675,54.0568 53.2787,97.1568 110.0779,100.8686 2.6148,0.1786 5.2934,0.2934 7.9083,0.2934 14.5155,0 28.4187,-2.7424 41.3525,-7.5639 21.1227,14.0818 46.3016,21.837 73.1004,20.7528 32.9341,-1.3776 62.4752,-15.9058 84.5673,-38.6357 l -80.7024,-80.5239 c 0.1913,-1.8623 0.5357,-3.648 0.6122,-5.5741 1.0459,-15.8165 -1.1225,-31.1228 -5.8291,-45.3449 l 165.1678,164.7469 c 20.8421,8.4822 43.5209,12.7297 67.1437,11.7731 47.2709,-1.926 89.3761,-24.2477 119.1979,-58.789 l 16.5308,-19.1711 c 1.5306,-1.8113 2.7041,-3.8521 3.7245,-6.046 l -254.3016,-253.6001 c -6.5562,-6.4924 -7.0792,-17.2961 -1.2628,-24.0947 5.8292,-6.7603 15.9313,-6.9899 22.4365,-0.4974 l 302.44,301.5981 c 16.4798,5.7781 34.1203,8.597 52.4496,7.8445 41.5566,-1.6965 78.6362,-21.3268 104.8482,-51.7481 l 39.9368,-46.2251 c 9.1582,-10.6634 14.6175,-25.0513 14.1073,-40.6893 L 1807.094,1737.2491 c -6.4797,-6.5052 -7.0664,-17.3344 -1.25,-24.0819 5.8674,-6.773 15.9441,-7.0026 22.4365,-0.5102 l 266.6487,265.8834 c 10.944,2.9209 22.4365,4.3495 34.2478,3.8776 34.0693,-1.3776 64.3758,-17.4492 85.8302,-42.3602 l 10.7272,-12.4237 c 21.4671,-24.86 34.1203,-58.5339 32.832,-95.1542 -1.301,-36.6076 -16.2247,-69.1335 -39.3627,-92.2205 l -71.1871,-70.9703 17.9849,17.9084 192.4768,-173.8032 c 8.1762,-7.347 14.1074,-17.6405 16.2757,-29.7325 2.1557,-12.0792 0.2041,-24.0054 -4.8087,-34.0948 z M 886.85306,1737.0323 c -18.0487,-1.1735 -34.554,-9.3113 -46.5057,-22.934 -11.9389,-13.5843 -17.8318,-31.0208 -16.6328,-49.1077 2.2832,-35.4979 32.0029,-63.2916 67.488,-63.2916 1.5052,0 3.0358,0 4.5409,0.1275 18.0487,1.199 34.554,9.3241 46.5057,22.9468 11.9389,13.6098 17.8318,31.0335 16.6711,49.1205 -2.4745,37.003 -34.6305,65.6385 -72.0672,63.1385 z m 115.39684,154.9764 c -17.38544,0 -33.91624,-6.5562 -46.54394,-18.5079 -26.7988,-25.3319 -28.2529,-68.0238 -3.3802,-95.0139 1.2883,-1.3393 27.7172,-29.2988 40.3959,-42.6408 l 6.6583,-7.0792 c 12.93384,-13.6481 30.40854,-21.1737 49.20984,-21.1737 17.3982,0 33.9417,6.5944 46.5439,18.5716 13.1507,12.4236 20.6891,29.2223 21.1738,47.3348 0.4974,18.0487 -6.0843,35.2555 -18.5079,48.3679 l -18.8523,19.9365 c -4.0307,4.2347 -8.3547,8.8139 -12.7808,13.4823 -0.7015,0.7908 -1.4796,1.5817 -2.1556,2.3215 -3.2909,3.4566 -6.1991,6.5179 -8.4567,8.8776 -1.2883,1.3903 -2.5766,2.7807 -3.9032,4.1327 -0.3316,0.3444 -0.5867,0.6378 -0.6122,0.6761 -12.8318,13.3675 -30.1917,20.7145 -48.7889,20.7145 z m 151.2391,143.1905 c -12.87,13.3675 -30.1789,20.7146 -48.7633,20.7146 -17.3982,0 -33.9673,-6.5945 -46.5567,-18.5589 -26.7861,-25.332 -28.2529,-68.0111 -3.4567,-94.8736 0.5868,-0.6378 16.1099,-17.0666 33.6994,-35.6255 0,-0.013 0,-0.013 0,-0.013 l 13.0614,-13.7885 c 22.8702,-24.2095 30.3703,-32.0795 32.8958,-34.8218 0.2934,-0.2679 0.6378,-0.5868 0.8801,-0.8674 l 0,0 0.051,0 c 2.2067,-2.3852 3.495,-3.7118 3.5332,-3.75 12.9084,-13.6482 30.4086,-21.1865 49.2226,-21.1865 17.3982,0 33.9035,6.5817 46.5439,18.5461 13.1507,12.4492 20.6508,29.2606 21.1482,47.322 0.4975,18.1253 -6.0842,35.3193 -18.5589,48.4955 -1.2117,1.2756 -81.0851,85.6644 -83.7,88.445 z m 148.9304,86.7358 c -37.2708,-2.4745 -65.613,-34.7964 -63.1512,-72.0417 2.3342,-35.5234 31.9391,-63.3171 67.4753,-63.3171 1.5051,0 3.0357,0 4.5408,0.1403 37.2582,2.449 65.6003,34.7708 63.1768,72.0289 -2.449,36.9775 -34.554,65.6514 -72.0417,63.1896 z m 828.1352,-470.0441 -527.2259,-525.6442 0,0 5.944,-15.0129 c 3.074,-7.8318 2.6786,-17.0793 -1.824,-24.86 -4.5154,-7.7552 -12.0665,-12.2706 -19.9748,-12.6915 l -39.1841,-2.347 0,0 -42.8067,-2.5383 -3.2526,50.7404 c -0.038,1.0587 -8.5205,116.4428 -67.3604,220.6915 -60.3197,106.9784 -140.2441,143.8666 -152.4254,146.2391 -13.6099,2.6403 -27.883,5.1531 -39.7454,5.1531 -8.1506,0 -14.4262,-1.148 -19.7961,-3.6097 l -20.013,-9.2731 c -8.393,-3.8904 -14.7961,-11.0333 -18.1763,-20.1406 -3.2908,-8.7883 -3.2526,-18.393 0,-27.1559 l 200.5254,-440.08201 34.0948,-22.462 13.7375,-5.2296 -0.026,0 252.0183,-96.1237 c 15.8421,-6.0332 32.4367,-9.1965 49.2863,-9.3496 l 1.4031,-0.013 c 16.3523,0 32.5514,2.8316 48.0618,8.4184 l 293.5113,105.486 250.322,501.85571 -197.0943,177.9486 z"
       id="path5"
       inkscape:connector-curvature="0"
       style="fill:#000000;fill-opacity:1;stroke:#000000;stroke-width:12.75525951;stroke-opacity:1" />
  </g>
</svg>
