<?xml version="1.0" encoding="UTF-8" standalone="no"?>
<!-- Created with Inkscape (http://www.inkscape.org/) -->

<svg
   xmlns:dc="http://purl.org/dc/elements/1.1/"
   xmlns:cc="http://creativecommons.org/ns#"
   xmlns:rdf="http://www.w3.org/1999/02/22-rdf-syntax-ns#"
   xmlns:svg="http://www.w3.org/2000/svg"
   xmlns="http://www.w3.org/2000/svg"
   xmlns:sodipodi="http://sodipodi.sourceforge.net/DTD/sodipodi-0.dtd"
   xmlns:inkscape="http://www.inkscape.org/namespaces/inkscape"
   width="846.66681mm"
   height="846.6665mm"
   viewBox="0 0 3000.0005 2999.9994"
   id="svg4253"
   version="1.1"
   inkscape:version="0.91 r13725"
   sodipodi:docname="uber.circle.v4.svg"
   inkscape:export-filename="D:\ASUS WEBSTORAGE\R+D\CABS\DEV TEAM\WIREFRAME + PROTOTYPE\CUSTOM ICONS\FINAL CUSTOM LOGOS.v5\FINAL CUSTOM LOGOS.v5.PNG\uber.circle.v3.png"
   inkscape:export-xdpi="1.5"
   inkscape:export-ydpi="1.5">
  <defs
     id="defs4255" />
  <sodipodi:namedview
     id="base"
     pagecolor="#ffffff"
     bordercolor="#666666"
     borderopacity="1.0"
     inkscape:pageopacity="0.0"
     inkscape:pageshadow="2"
     inkscape:zoom="0.19987549"
     inkscape:cx="672.51996"
     inkscape:cy="1512.2719"
     inkscape:document-units="px"
     inkscape:current-layer="layer1"
     showgrid="false"
     fit-margin-top="0"
     fit-margin-left="0"
     fit-margin-right="0"
     fit-margin-bottom="0"
     inkscape:window-width="1920"
     inkscape:window-height="1017"
     inkscape:window-x="-8"
     inkscape:window-y="-8"
     inkscape:window-maximized="1" />
  <metadata
     id="metadata4258">
    <rdf:RDF>
      <cc:Work
         rdf:about="">
        <dc:format>image/svg+xml</dc:format>
        <dc:type
           rdf:resource="http://purl.org/dc/dcmitype/StillImage" />
        <dc:title></dc:title>
      </cc:Work>
    </rdf:RDF>
  </metadata>
  <g
     inkscape:label="Layer 1"
     inkscape:groupmode="layer"
     id="layer1"
     transform="translate(1057.1429,459.06613)">
    <g
       id="g5054"
       transform="matrix(0.89168812,0,0,0.89040667,47.712974,114.10662)">
      <path
         sodipodi:nodetypes="ssscsssssscccssss"
         inkscape:connector-curvature="0"
         id="path4284"
         d="m -138.36212,2443.6254 c -564.91791,-4.4062 -626.47676,-6.9145 -672.24962,-27.3916 -43.25648,-19.3512 -87.65872,-66.522 -115.38606,-122.5805 l -23.18061,-46.8659 -4.33312,-148.8528 c -10.68906,-367.194 -0.27761,-2097.15330071 13.46027,-2236.55293 7.67812,-77.9105 18.5153,-106.36168 57.27153,-150.35651 43.4418,-49.3138 88.38109,-57.74511 359.37324,-67.42405 272.88775,-9.74663 2120.36459,-10.48213 2164.62389,-0.86177 57.3806,12.47255 95.6423,34.30478 150.3766,85.80561 l 52.0757,48.99925 0,1259.6866 0,1259.6869 -48.9197,50.5908 c -32.6688,33.785 -60.7444,56.2854 -84.5157,67.7329 -35.2102,16.9564 -37.607,17.2033 -220.9272,22.7539 -252.2424,7.6375 -1026.80682,10.3167 -1627.66922,5.6301 z"
         style="opacity:0;fill:#000000;fill-opacity:1;stroke:#000000;stroke-width:189.92396545;stroke-linecap:round;stroke-linejoin:round;stroke-miterlimit:4;stroke-dasharray:none;stroke-opacity:1" />
      <path
         sodipodi:nodetypes="ssscsssssscccssss"
         inkscape:connector-curvature="0"
         id="path4280"
         d="m -138.36212,2443.6254 c -564.91791,-4.4062 -626.47676,-6.9145 -672.24962,-27.3916 -43.25648,-19.3512 -87.65872,-66.522 -115.38606,-122.5805 l -23.18061,-46.8659 -4.33312,-148.8528 c -10.68906,-367.194 -0.27761,-2097.15330071 13.46027,-2236.55293 7.67812,-77.9105 18.5153,-106.36168 57.27153,-150.35651 43.4418,-49.3138 88.38109,-57.74511 359.37324,-67.42405 272.88775,-9.74663 2120.36459,-10.48213 2164.62389,-0.86177 57.3806,12.47255 95.6423,34.30478 150.3766,85.80561 l 52.0757,48.99925 0,1259.6866 0,1259.6869 -48.9197,50.5908 c -32.6688,33.785 -60.7444,56.2854 -84.5157,67.7329 -35.2102,16.9564 -37.607,17.2033 -220.9272,22.7539 -252.2424,7.6375 -1026.80682,10.3167 -1627.66922,5.6301 z"
         style="opacity:0;fill:#000000;fill-opacity:1;stroke:#000000;stroke-width:189.92396545;stroke-linecap:round;stroke-linejoin:round;stroke-miterlimit:4;stroke-dasharray:none;stroke-opacity:1" />
      <path
         sodipodi:nodetypes="ssscsssssscccssss"
         inkscape:connector-curvature="0"
         id="path4276"
         d="m -138.36212,2443.6254 c -564.91791,-4.4062 -626.47676,-6.9145 -672.24962,-27.3916 -43.25648,-19.3512 -87.65872,-66.522 -115.38606,-122.5805 l -23.18061,-46.8659 -4.33312,-148.8528 c -10.68906,-367.194 -0.27761,-2097.15330071 13.46027,-2236.55293 7.67812,-77.9105 18.5153,-106.36168 57.27153,-150.35651 43.4418,-49.3138 88.38109,-57.74511 359.37324,-67.42405 272.88775,-9.74663 2120.36459,-10.48213 2164.62389,-0.86177 57.3806,12.47255 95.6423,34.30478 150.3766,85.80561 l 52.0757,48.99925 0,1259.6866 0,1259.6869 -48.9197,50.5908 c -32.6688,33.785 -60.7444,56.2854 -84.5157,67.7329 -35.2102,16.9564 -37.607,17.2033 -220.9272,22.7539 -252.2424,7.6375 -1026.80682,10.3167 -1627.66922,5.6301 z"
         style="opacity:0;fill:#000000;fill-opacity:1;stroke:#000000;stroke-width:189.92396545;stroke-linecap:round;stroke-linejoin:round;stroke-miterlimit:4;stroke-dasharray:none;stroke-opacity:1" />
      <path
         sodipodi:nodetypes="ssscsssssscccssss"
         inkscape:connector-curvature="0"
         id="path4272"
         d="m -138.36212,2443.6254 c -564.91791,-4.4062 -626.47676,-6.9145 -672.24962,-27.3916 -43.25648,-19.3512 -87.65872,-66.522 -115.38606,-122.5805 l -23.18061,-46.8659 -4.33312,-148.8528 c -10.68906,-367.194 -0.27761,-2097.15330071 13.46027,-2236.55293 7.67812,-77.9105 18.5153,-106.36168 57.27153,-150.35651 43.4418,-49.3138 88.38109,-57.74511 359.37324,-67.42405 272.88775,-9.74663 2120.36459,-10.48213 2164.62389,-0.86177 57.3806,12.47255 95.6423,34.30478 150.3766,85.80561 l 52.0757,48.99925 0,1259.6866 0,1259.6869 -48.9197,50.5908 c -32.6688,33.785 -60.7444,56.2854 -84.5157,67.7329 -35.2102,16.9564 -37.607,17.2033 -220.9272,22.7539 -252.2424,7.6375 -1026.80682,10.3167 -1627.66922,5.6301 z"
         style="opacity:0;fill:#000000;fill-opacity:1;stroke:#000000;stroke-width:189.92396545;stroke-linecap:round;stroke-linejoin:round;stroke-miterlimit:4;stroke-dasharray:none;stroke-opacity:1" />
      <path
         sodipodi:nodetypes="ssscsssssscccssss"
         inkscape:connector-curvature="0"
         id="path4268"
         d="m -138.36212,2443.6254 c -564.91791,-4.4062 -626.47676,-6.9145 -672.24962,-27.3916 -43.25648,-19.3512 -87.65872,-66.522 -115.38606,-122.5805 l -23.18061,-46.8659 -4.33312,-148.8528 c -10.68906,-367.194 -0.27761,-2097.15330071 13.46027,-2236.55293 7.67812,-77.9105 18.5153,-106.36168 57.27153,-150.35651 43.4418,-49.3138 88.38109,-57.74511 359.37324,-67.42405 272.88775,-9.74663 2120.36459,-10.48213 2164.62389,-0.86177 57.3806,12.47255 95.6423,34.30478 150.3766,85.80561 l 52.0757,48.99925 0,1259.6866 0,1259.6869 -48.9197,50.5908 c -32.6688,33.785 -60.7444,56.2854 -84.5157,67.7329 -35.2102,16.9564 -37.607,17.2033 -220.9272,22.7539 -252.2424,7.6375 -1026.80682,10.3167 -1627.66922,5.6301 z"
         style="opacity:0;fill:#000000;fill-opacity:1;stroke:#000000;stroke-width:189.92396545;stroke-linecap:round;stroke-linejoin:round;stroke-miterlimit:4;stroke-dasharray:none;stroke-opacity:1" />
      <path
         sodipodi:nodetypes="ssscsssssscccssss"
         inkscape:connector-curvature="0"
         id="path4264"
         d="m -138.36212,2443.6254 c -564.91791,-4.4062 -626.47676,-6.9145 -672.24962,-27.3916 -43.25648,-19.3512 -87.65872,-66.522 -115.38606,-122.5805 l -23.18061,-46.8659 -4.33312,-148.8528 c -10.68906,-367.194 -0.27761,-2097.15330071 13.46027,-2236.55293 7.67812,-77.9105 18.5153,-106.36168 57.27153,-150.35651 43.4418,-49.3138 88.38109,-57.74511 359.37324,-67.42405 272.88775,-9.74663 2120.36459,-10.48213 2164.62389,-0.86177 57.3806,12.47255 95.6423,34.30478 150.3766,85.80561 l 52.0757,48.99925 0,1259.6866 0,1259.6869 -48.9197,50.5908 c -32.6688,33.785 -60.7444,56.2854 -84.5157,67.7329 -35.2102,16.9564 -37.607,17.2033 -220.9272,22.7539 -252.2424,7.6375 -1026.80682,10.3167 -1627.66922,5.6301 z"
         style="opacity:0;fill:#000000;fill-opacity:1;stroke:#000000;stroke-width:189.92396545;stroke-linecap:round;stroke-linejoin:round;stroke-miterlimit:4;stroke-dasharray:none;stroke-opacity:1" />
      <path
         sodipodi:nodetypes="cssssssscccsssccc"
         inkscape:connector-curvature="0"
         id="path4260"
         d="m -492.59242,2425.0611 c -130.59997,-2.424 -251.32086,-6.427 -268.26863,-8.8957 -84.39308,-12.2927 -159.10302,-100.914 -173.89285,-206.2724 -8.76574,-62.4446 -2.62119,-2186.905643 6.6886,-2312.56465 7.0564,-95.24387 16.24099,-127.32874 48.5744,-169.68678 32.02539,-41.95452 73.76304,-53.31646 239.42478,-65.17691 126.57127,-9.06179 2117.39862,-15.74533 2225.33742,-7.47083 100.9639,7.73984 124.2785,17.73252 189.6244,81.27373 l 49.8373,48.46098 0,1253.53446 0,1253.5344 -27.7225,32.4521 c -33.696,39.4452 -59.8623,59.8117 -102.5141,79.7922 -31.843,14.9171 -36.9193,15.2804 -296.6734,21.2339 -294.5941,6.752 -1522.58486,6.6126 -1890.41542,-0.2137 l 0,-1e-4 z"
         style="opacity:0;fill:#000000;fill-opacity:1;stroke:#000000;stroke-width:189.92396545;stroke-linecap:round;stroke-linejoin:round;stroke-miterlimit:4;stroke-dasharray:none;stroke-opacity:1" />
      <path
         sodipodi:nodetypes="cssssssscccsssccc"
         inkscape:connector-curvature="0"
         id="path4256"
         d="m -492.59242,2425.0611 c -130.59997,-2.424 -251.32086,-6.427 -268.26863,-8.8957 -84.39308,-12.2927 -159.10302,-100.914 -173.89285,-206.2724 -8.76574,-62.4446 -2.62119,-2186.905643 6.6886,-2312.56465 7.0564,-95.24387 16.24099,-127.32874 48.5744,-169.68678 32.02539,-41.95452 73.76304,-53.31646 239.42478,-65.17691 126.57127,-9.06179 2117.39862,-15.74533 2225.33742,-7.47083 100.9639,7.73984 124.2785,17.73252 189.6244,81.27373 l 49.8373,48.46098 0,1253.53446 0,1253.5344 -27.7225,32.4521 c -33.696,39.4452 -59.8623,59.8117 -102.5141,79.7922 -31.843,14.9171 -36.9193,15.2804 -296.6734,21.2339 -294.5941,6.752 -1522.58486,6.6126 -1890.41542,-0.2137 l 0,-1e-4 z"
         style="opacity:0;fill:#000000;fill-opacity:1;stroke:#000000;stroke-width:189.92396545;stroke-linecap:round;stroke-linejoin:round;stroke-miterlimit:4;stroke-dasharray:none;stroke-opacity:1" />
      <path
         sodipodi:nodetypes="cssssssscccsssccc"
         inkscape:connector-curvature="0"
         id="path4252"
         d="m -492.59242,2425.0611 c -130.59997,-2.424 -251.32086,-6.427 -268.26863,-8.8957 -84.39308,-12.2927 -159.10302,-100.914 -173.89285,-206.2724 -8.76574,-62.4446 -2.62119,-2186.905643 6.6886,-2312.56465 7.0564,-95.24387 16.24099,-127.32874 48.5744,-169.68678 32.02539,-41.95452 73.76304,-53.31646 239.42478,-65.17691 126.57127,-9.06179 2117.39862,-15.74533 2225.33742,-7.47083 100.9639,7.73984 124.2785,17.73252 189.6244,81.27373 l 49.8373,48.46098 0,1253.53446 0,1253.5344 -27.7225,32.4521 c -33.696,39.4452 -59.8623,59.8117 -102.5141,79.7922 -31.843,14.9171 -36.9193,15.2804 -296.6734,21.2339 -294.5941,6.752 -1522.58486,6.6126 -1890.41542,-0.2137 l 0,-1e-4 z"
         style="opacity:0;fill:#ffffff;fill-opacity:1;stroke:#000000;stroke-width:189.92396545;stroke-linecap:round;stroke-linejoin:round;stroke-miterlimit:4;stroke-dasharray:none;stroke-opacity:1" />
      <path
         sodipodi:nodetypes="cssssssscccsssccc"
         inkscape:connector-curvature="0"
         id="path4248"
         d="m -492.59242,2425.0611 c -130.59997,-2.424 -251.32086,-6.427 -268.26863,-8.8957 -84.39308,-12.2927 -159.10302,-100.914 -173.89285,-206.2724 -8.76574,-62.4446 -2.62119,-2186.905643 6.6886,-2312.56465 7.0564,-95.24387 16.24099,-127.32874 48.5744,-169.68678 32.02539,-41.95452 73.76304,-53.31646 239.42478,-65.17691 126.57127,-9.06179 2117.39862,-15.74533 2225.33742,-7.47083 100.9639,7.73984 124.2785,17.73252 189.6244,81.27373 l 49.8373,48.46098 0,1253.53446 0,1253.5344 -27.7225,32.4521 c -33.696,39.4452 -59.8623,59.8117 -102.5141,79.7922 -31.843,14.9171 -36.9193,15.2804 -296.6734,21.2339 -294.5941,6.752 -1522.58486,6.6126 -1890.41542,-0.2137 l 0,-1e-4 z"
         style="opacity:0;fill:#ffffff;fill-opacity:1;stroke:#000000;stroke-width:189.92396545;stroke-linecap:round;stroke-linejoin:round;stroke-miterlimit:4;stroke-dasharray:none;stroke-opacity:1" />
      <path
         sodipodi:nodetypes="cssssssscccsssccc"
         inkscape:connector-curvature="0"
         id="path4244"
         d="m -492.59242,2425.0611 c -130.59997,-2.424 -251.32086,-6.427 -268.26863,-8.8957 -84.39308,-12.2927 -159.10302,-100.914 -173.89285,-206.2724 -8.76574,-62.4446 -2.62119,-2186.905643 6.6886,-2312.56465 7.0564,-95.24387 16.24099,-127.32874 48.5744,-169.68678 32.02539,-41.95452 73.76304,-53.31646 239.42478,-65.17691 126.57127,-9.06179 2117.39862,-15.74533 2225.33742,-7.47083 100.9639,7.73984 124.2785,17.73252 189.6244,81.27373 l 49.8373,48.46098 0,1253.53446 0,1253.5344 -27.7225,32.4521 c -33.696,39.4452 -59.8623,59.8117 -102.5141,79.7922 -31.843,14.9171 -36.9193,15.2804 -296.6734,21.2339 -294.5941,6.752 -1522.58486,6.6126 -1890.41542,-0.2137 l 0,-1e-4 z"
         style="opacity:0;fill:#ffffff;fill-opacity:1;stroke:#000000;stroke-width:189.92396545;stroke-linecap:round;stroke-linejoin:round;stroke-miterlimit:4;stroke-dasharray:none;stroke-opacity:1" />
      <path
         sodipodi:nodetypes="cssssssscccsssccc"
         inkscape:connector-curvature="0"
         id="path4240"
         d="m -492.59242,2425.0611 c -130.59997,-2.424 -251.32086,-6.427 -268.26863,-8.8957 -84.39308,-12.2927 -159.10302,-100.914 -173.89285,-206.2724 -8.76574,-62.4446 -2.62119,-2186.905643 6.6886,-2312.56465 7.0564,-95.24387 16.24099,-127.32874 48.5744,-169.68678 32.02539,-41.95452 73.76304,-53.31646 239.42478,-65.17691 126.57127,-9.06179 2117.39862,-15.74533 2225.33742,-7.47083 100.9639,7.73984 124.2785,17.73252 189.6244,81.27373 l 49.8373,48.46098 0,1253.53446 0,1253.5344 -27.7225,32.4521 c -33.696,39.4452 -59.8623,59.8117 -102.5141,79.7922 -31.843,14.9171 -36.9193,15.2804 -296.6734,21.2339 -294.5941,6.752 -1522.58486,6.6126 -1890.41542,-0.2137 l 0,-1e-4 z"
         style="opacity:0;fill:#ffffff;fill-opacity:1;stroke:#000000;stroke-width:189.92396545;stroke-linecap:round;stroke-linejoin:round;stroke-miterlimit:4;stroke-dasharray:none;stroke-opacity:1" />
      <path
         sodipodi:nodetypes="cssssssscccsssccc"
         inkscape:connector-curvature="0"
         id="path4236"
         d="m -492.59242,2425.0611 c -130.59997,-2.424 -251.32086,-6.427 -268.26863,-8.8957 -84.39308,-12.2927 -159.10302,-100.914 -173.89285,-206.2724 -8.76574,-62.4446 -2.62119,-2186.905643 6.6886,-2312.56465 7.0564,-95.24387 16.24099,-127.32874 48.5744,-169.68678 32.02539,-41.95452 73.76304,-53.31646 239.42478,-65.17691 126.57127,-9.06179 2117.39862,-15.74533 2225.33742,-7.47083 100.9639,7.73984 124.2785,17.73252 189.6244,81.27373 l 49.8373,48.46098 0,1253.53446 0,1253.5344 -27.7225,32.4521 c -33.696,39.4452 -59.8623,59.8117 -102.5141,79.7922 -31.843,14.9171 -36.9193,15.2804 -296.6734,21.2339 -294.5941,6.752 -1522.58486,6.6126 -1890.41542,-0.2137 l 0,-1e-4 z"
         style="opacity:0;fill:#ffffff;fill-opacity:1;stroke:#000000;stroke-width:189.92396545;stroke-linecap:round;stroke-linejoin:round;stroke-miterlimit:4;stroke-dasharray:none;stroke-opacity:1" />
      <path
         sodipodi:nodetypes="cssssssscccsssccc"
         inkscape:connector-curvature="0"
         id="path4232"
         d="m -492.59242,2425.0611 c -130.59997,-2.424 -251.32086,-6.427 -268.26863,-8.8957 -84.39308,-12.2927 -159.10302,-100.914 -173.89285,-206.2724 -8.76574,-62.4446 -2.62119,-2186.905643 6.6886,-2312.56465 7.0564,-95.24387 16.24099,-127.32874 48.5744,-169.68678 32.02539,-41.95452 73.76304,-53.31646 239.42478,-65.17691 126.57127,-9.06179 2117.39862,-15.74533 2225.33742,-7.47083 100.9639,7.73984 124.2785,17.73252 189.6244,81.27373 l 49.8373,48.46098 0,1253.53446 0,1253.5344 -27.7225,32.4521 c -33.696,39.4452 -59.8623,59.8117 -102.5141,79.7922 -31.843,14.9171 -36.9193,15.2804 -296.6734,21.2339 -294.5941,6.752 -1522.58486,6.6126 -1890.41542,-0.2137 l 0,-1e-4 z"
         style="opacity:0;fill:#ffffff;fill-opacity:1;stroke:#000000;stroke-width:189.92396545;stroke-linecap:round;stroke-linejoin:round;stroke-miterlimit:4;stroke-dasharray:none;stroke-opacity:1" />
      <path
         sodipodi:nodetypes="cssssssscccsssccc"
         inkscape:connector-curvature="0"
         id="path4228"
         d="m -492.59242,2425.0611 c -130.59997,-2.424 -251.32086,-6.427 -268.26863,-8.8957 -84.39308,-12.2927 -159.10302,-100.914 -173.89285,-206.2724 -8.76574,-62.4446 -2.62119,-2186.905643 6.6886,-2312.56465 7.0564,-95.24387 16.24099,-127.32874 48.5744,-169.68678 32.02539,-41.95452 73.76304,-53.31646 239.42478,-65.17691 126.57127,-9.06179 2117.39862,-15.74533 2225.33742,-7.47083 100.9639,7.73984 124.2785,17.73252 189.6244,81.27373 l 49.8373,48.46098 0,1253.53446 0,1253.5344 -27.7225,32.4521 c -33.696,39.4452 -59.8623,59.8117 -102.5141,79.7922 -31.843,14.9171 -36.9193,15.2804 -296.6734,21.2339 -294.5941,6.752 -1522.58486,6.6126 -1890.41542,-0.2137 l 0,-1e-4 z"
         style="opacity:0;fill:#ffffff;fill-opacity:1;stroke:#000000;stroke-width:189.92396545;stroke-linecap:round;stroke-linejoin:round;stroke-miterlimit:4;stroke-dasharray:none;stroke-opacity:1" />
      <path
         sodipodi:nodetypes="cssssssscccsssccc"
         inkscape:connector-curvature="0"
         id="path4224"
         d="m -492.59242,2425.0611 c -130.59997,-2.424 -251.32086,-6.427 -268.26863,-8.8957 -84.39308,-12.2927 -159.10302,-100.914 -173.89285,-206.2724 -8.76574,-62.4446 -2.62119,-2186.905643 6.6886,-2312.56465 7.0564,-95.24387 16.24099,-127.32874 48.5744,-169.68678 32.02539,-41.95452 73.76304,-53.31646 239.42478,-65.17691 126.57127,-9.06179 2117.39862,-15.74533 2225.33742,-7.47083 100.9639,7.73984 124.2785,17.73252 189.6244,81.27373 l 49.8373,48.46098 0,1253.53446 0,1253.5344 -27.7225,32.4521 c -33.696,39.4452 -59.8623,59.8117 -102.5141,79.7922 -31.843,14.9171 -36.9193,15.2804 -296.6734,21.2339 -294.5941,6.752 -1522.58486,6.6126 -1890.41542,-0.2137 l 0,-1e-4 z"
         style="opacity:0;fill:#ffffff;fill-opacity:1;stroke:#000000;stroke-width:189.92396545;stroke-linecap:round;stroke-linejoin:round;stroke-miterlimit:4;stroke-dasharray:none;stroke-opacity:1" />
      <path
         sodipodi:nodetypes="cssssssscccsssccc"
         inkscape:connector-curvature="0"
         id="path4220"
         d="m -492.59242,2425.0611 c -130.59997,-2.424 -251.32086,-6.427 -268.26863,-8.8957 -84.39308,-12.2927 -159.10302,-100.914 -173.89285,-206.2724 -8.76574,-62.4446 -2.62119,-2186.905643 6.6886,-2312.56465 7.0564,-95.24387 16.24099,-127.32874 48.5744,-169.68678 32.02539,-41.95452 73.76304,-53.31646 239.42478,-65.17691 126.57127,-9.06179 2117.39862,-15.74533 2225.33742,-7.47083 100.9639,7.73984 124.2785,17.73252 189.6244,81.27373 l 49.8373,48.46098 0,1253.53446 0,1253.5344 -27.7225,32.4521 c -33.696,39.4452 -59.8623,59.8117 -102.5141,79.7922 -31.843,14.9171 -36.9193,15.2804 -296.6734,21.2339 -294.5941,6.752 -1522.58486,6.6126 -1890.41542,-0.2137 l 0,-1e-4 z"
         style="opacity:0;fill:#ffffff;fill-opacity:1;stroke:#000000;stroke-width:189.92396545;stroke-linecap:round;stroke-linejoin:round;stroke-miterlimit:4;stroke-dasharray:none;stroke-opacity:1" />
      <path
         sodipodi:nodetypes="cssssssscccsssccc"
         inkscape:connector-curvature="0"
         id="path4216"
         d="m -492.59242,2425.0611 c -130.59997,-2.424 -251.32086,-6.427 -268.26863,-8.8957 -84.39308,-12.2927 -159.10302,-100.914 -173.89285,-206.2724 -8.76574,-62.4446 -2.62119,-2186.905643 6.6886,-2312.56465 7.0564,-95.24387 16.24099,-127.32874 48.5744,-169.68678 32.02539,-41.95452 73.76304,-53.31646 239.42478,-65.17691 126.57127,-9.06179 2117.39862,-15.74533 2225.33742,-7.47083 100.9639,7.73984 124.2785,17.73252 189.6244,81.27373 l 49.8373,48.46098 0,1253.53446 0,1253.5344 -27.7225,32.4521 c -33.696,39.4452 -59.8623,59.8117 -102.5141,79.7922 -31.843,14.9171 -36.9193,15.2804 -296.6734,21.2339 -294.5941,6.752 -1522.58486,6.6126 -1890.41542,-0.2137 l 0,-1e-4 z"
         style="opacity:0;fill:#ffffff;fill-opacity:1;stroke:#000000;stroke-width:189.92396545;stroke-linecap:round;stroke-linejoin:round;stroke-miterlimit:4;stroke-dasharray:none;stroke-opacity:1" />
      <path
         sodipodi:nodetypes="cssssssscccsssccc"
         inkscape:connector-curvature="0"
         id="path4212"
         d="m -492.59242,2425.0611 c -130.59997,-2.424 -251.32086,-6.427 -268.26863,-8.8957 -84.39308,-12.2927 -159.10302,-100.914 -173.89285,-206.2724 -8.76574,-62.4446 -2.62119,-2186.905643 6.6886,-2312.56465 7.0564,-95.24387 16.24099,-127.32874 48.5744,-169.68678 32.02539,-41.95452 73.76304,-53.31646 239.42478,-65.17691 126.57127,-9.06179 2117.39862,-15.74533 2225.33742,-7.47083 100.9639,7.73984 124.2785,17.73252 189.6244,81.27373 l 49.8373,48.46098 0,1253.53446 0,1253.5344 -27.7225,32.4521 c -33.696,39.4452 -59.8623,59.8117 -102.5141,79.7922 -31.843,14.9171 -36.9193,15.2804 -296.6734,21.2339 -294.5941,6.752 -1522.58486,6.6126 -1890.41542,-0.2137 l 0,-1e-4 z"
         style="opacity:0;fill:#ffffff;fill-opacity:1;stroke:#000000;stroke-width:189.92396545;stroke-linecap:round;stroke-linejoin:round;stroke-miterlimit:4;stroke-dasharray:none;stroke-opacity:1" />
      <path
         sodipodi:nodetypes="cssssssscccsssccc"
         inkscape:connector-curvature="0"
         id="path4208"
         d="m -492.59242,2425.0611 c -130.59997,-2.424 -251.32086,-6.427 -268.26863,-8.8957 -84.39308,-12.2927 -159.10302,-100.914 -173.89285,-206.2724 -8.76574,-62.4446 -2.62119,-2186.905643 6.6886,-2312.56465 7.0564,-95.24387 16.24099,-127.32874 48.5744,-169.68678 32.02539,-41.95452 73.76304,-53.31646 239.42478,-65.17691 126.57127,-9.06179 2117.39862,-15.74533 2225.33742,-7.47083 100.9639,7.73984 124.2785,17.73252 189.6244,81.27373 l 49.8373,48.46098 0,1253.53446 0,1253.5344 -27.7225,32.4521 c -33.696,39.4452 -59.8623,59.8117 -102.5141,79.7922 -31.843,14.9171 -36.9193,15.2804 -296.6734,21.2339 -294.5941,6.752 -1522.58486,6.6126 -1890.41542,-0.2137 l 0,-1e-4 z"
         style="opacity:0;fill:#ff47ff;fill-opacity:1;stroke:#000000;stroke-width:189.92396545;stroke-linecap:round;stroke-linejoin:round;stroke-miterlimit:4;stroke-dasharray:none;stroke-opacity:1" />
      <path
         sodipodi:nodetypes="cssssssscccsssccc"
         inkscape:connector-curvature="0"
         id="path4204"
         d="m -492.59242,2425.0611 c -130.59997,-2.424 -251.32086,-6.427 -268.26863,-8.8957 -84.39308,-12.2927 -159.10302,-100.914 -173.89285,-206.2724 -8.76574,-62.4446 -2.62119,-2186.905643 6.6886,-2312.56465 7.0564,-95.24387 16.24099,-127.32874 48.5744,-169.68678 32.02539,-41.95452 73.76304,-53.31646 239.42478,-65.17691 126.57127,-9.06179 2117.39862,-15.74533 2225.33742,-7.47083 100.9639,7.73984 124.2785,17.73252 189.6244,81.27373 l 49.8373,48.46098 0,1253.53446 0,1253.5344 -27.7225,32.4521 c -33.696,39.4452 -59.8623,59.8117 -102.5141,79.7922 -31.843,14.9171 -36.9193,15.2804 -296.6734,21.2339 -294.5941,6.752 -1522.58486,6.6126 -1890.41542,-0.2137 l 0,-1e-4 z"
         style="opacity:0;fill:#ff47ff;fill-opacity:1;stroke:#000000;stroke-width:189.92396545;stroke-linecap:round;stroke-linejoin:round;stroke-miterlimit:4;stroke-dasharray:none;stroke-opacity:1" />
      <path
         sodipodi:nodetypes="cssssssscccsssccc"
         inkscape:connector-curvature="0"
         id="path4200"
         d="m -492.59242,2425.0611 c -130.59997,-2.424 -251.32086,-6.427 -268.26863,-8.8957 -84.39308,-12.2927 -159.10302,-100.914 -173.89285,-206.2724 -8.76574,-62.4446 -2.62119,-2186.905643 6.6886,-2312.56465 7.0564,-95.24387 16.24099,-127.32874 48.5744,-169.68678 32.02539,-41.95452 73.76304,-53.31646 239.42478,-65.17691 126.57127,-9.06179 2117.39862,-15.74533 2225.33742,-7.47083 100.9639,7.73984 124.2785,17.73252 189.6244,81.27373 l 49.8373,48.46098 0,1253.53446 0,1253.5344 -27.7225,32.4521 c -33.696,39.4452 -59.8623,59.8117 -102.5141,79.7922 -31.843,14.9171 -36.9193,15.2804 -296.6734,21.2339 -294.5941,6.752 -1522.58486,6.6126 -1890.41542,-0.2137 l 0,-1e-4 z"
         style="opacity:0;fill:#ff47ff;fill-opacity:1;stroke:#000000;stroke-width:189.92396545;stroke-linecap:round;stroke-linejoin:round;stroke-miterlimit:4;stroke-dasharray:none;stroke-opacity:1" />
      <path
         sodipodi:nodetypes="cssssssscccsssccc"
         inkscape:connector-curvature="0"
         id="path4196"
         d="m -492.59242,2425.0611 c -130.59997,-2.424 -251.32086,-6.427 -268.26863,-8.8957 -84.39308,-12.2927 -159.10302,-100.914 -173.89285,-206.2724 -8.76574,-62.4446 -2.62119,-2186.905643 6.6886,-2312.56465 7.0564,-95.24387 16.24099,-127.32874 48.5744,-169.68678 32.02539,-41.95452 73.76304,-53.31646 239.42478,-65.17691 126.57127,-9.06179 2117.39862,-15.74533 2225.33742,-7.47083 100.9639,7.73984 124.2785,17.73252 189.6244,81.27373 l 49.8373,48.46098 0,1253.53446 0,1253.5344 -27.7225,32.4521 c -33.696,39.4452 -59.8623,59.8117 -102.5141,79.7922 -31.843,14.9171 -36.9193,15.2804 -296.6734,21.2339 -294.5941,6.752 -1522.58486,6.6126 -1890.41542,-0.2137 l 0,-1e-4 z"
         style="opacity:0;fill:#ff47ff;fill-opacity:1;stroke:#000000;stroke-width:189.92396545;stroke-linecap:round;stroke-linejoin:round;stroke-miterlimit:4;stroke-dasharray:none;stroke-opacity:1" />
      <path
         sodipodi:nodetypes="cssssssscccsssccc"
         inkscape:connector-curvature="0"
         id="path4192"
         d="m -492.59242,2425.0611 c -130.59997,-2.424 -251.32086,-6.427 -268.26863,-8.8957 -84.39308,-12.2927 -159.10302,-100.914 -173.89285,-206.2724 -8.76574,-62.4446 -2.62119,-2186.905643 6.6886,-2312.56465 7.0564,-95.24387 16.24099,-127.32874 48.5744,-169.68678 32.02539,-41.95452 73.76304,-53.31646 239.42478,-65.17691 126.57127,-9.06179 2117.39862,-15.74533 2225.33742,-7.47083 100.9639,7.73984 124.2785,17.73252 189.6244,81.27373 l 49.8373,48.46098 0,1253.53446 0,1253.5344 -27.7225,32.4521 c -33.696,39.4452 -59.8623,59.8117 -102.5141,79.7922 -31.843,14.9171 -36.9193,15.2804 -296.6734,21.2339 -294.5941,6.752 -1522.58486,6.6126 -1890.41542,-0.2137 l 0,-1e-4 z"
         style="opacity:0;fill:#ff47ff;fill-opacity:1;stroke:#000000;stroke-width:189.92396545;stroke-linecap:round;stroke-linejoin:round;stroke-miterlimit:4;stroke-dasharray:none;stroke-opacity:1" />
      <path
         style="fill:#000000;fill-opacity:1;stroke:#000000;stroke-width:500;stroke-linecap:round;stroke-linejoin:round;stroke-miterlimit:4;stroke-dasharray:none;stroke-opacity:1"
         d="M 440.51479,-393.26142 A 1432.3825,1434.444 0 0 0 -991.86755,1041.1823 1432.3825,1434.444 0 0 0 440.51479,2475.6259 1432.3825,1434.444 0 0 0 1872.8969,1041.1823 1432.3825,1434.444 0 0 0 440.51479,-393.26142 Z"
         id="path4292"
         inkscape:connector-curvature="0" />
      <path
         sodipodi:nodetypes="sssssscccccccccccssss"
         inkscape:connector-curvature="0"
         id="path4138"
         d="M 753.67596,2389.5429 C 1312.3391,2243.5067 1705.7572,1813.7098 1803.164,1243.01 1954.2425,357.84823 1116.1664,-483.2391 234.17325,-331.61732 -334.48372,-233.86054 -762.74199,160.9707 -908.25533,721.64107 c -25.33622,97.62234 -31.63138,202.99838 -31.63138,216.46324 0,13.46488 193.32719,9.99509 447.2585,9.99509 l 477.003405,2.56075 1.606349,-173.08931 1.606366,-185.89373 447.793,0 447.79323,0 0,449.40189 0,449.402 -447.79323,0 -447.793,0 -1.606366,-188.4552 -1.168552,-163.2849 -477.441202,-4.682 c -253.91924,-2.4906 -444.70672,-8.1521 -444.70672,5.3123 0,13.4652 3.74338,123.5235 29.0796,221.146 196.4876,757.0766 940.340281,1217.6513 1661.93129,1029.0257 z"
         style="fill:#ffffff;fill-opacity:1;stroke:none;stroke-width:30.5886879;stroke-opacity:1" />
      <path
         sodipodi:nodetypes="cssssssccccssscccccccscscccssscc"
         inkscape:connector-curvature="0"
         id="path4140"
         d="M 679.63721,2361.368 C 1004.2159,2318.7275 1333.3955,2121.7437 1531.4023,1851.6646 1856.474,1408.2704 1866.1437,727.11573 1554.0276,257.87672 1490.5203,162.399 1351.7118,19.938911 1254.39,-49.643412 1039.4314,-203.33249 798.79593,-280.79498 504.88489,-290.91513 119.5809,-304.18221 -135.80527,-221.63115 -420.5307,8.216354 -581.72817,138.34472 -716.57322,333.4255 -805.87918,565.70148 c -51.81668,134.77 -70.22098,225.49879 -70.29608,346.54274 l -0.0632,105.37878 479.30404,0 479.304164,0 6.036253,-71.66582 c 3.320092,-39.41615 6.036297,-93.62476 6.036297,-120.46367 0,-26.83879 2.670792,-68.35426 5.935356,-92.25671 l 5.9354,-43.45887 348.73641,0 348.73648,0 0,351.26247 0,351.2626 -348.73648,0 -348.73641,0 -5.9354,-43.4588 c -3.264506,-23.9026 -5.965229,-69.2154 -6.001738,-100.6954 -0.03731,-31.4799 -2.743987,-85.6886 -6.016318,-120.4636 l -5.950098,-63.2272 -479.323926,0 -479.32403,0 0,93.0575 c 0,137.4816 35.79246,284.402 112.55978,462.0338 167.02238,386.4729 577.03814,692.0493 1000.02442,745.2984 109.89385,13.8342 324.31117,12.1512 443.29368,-3.4798 z"
         style="opacity:0;fill:#000000;fill-opacity:1;stroke:#000000;stroke-width:281.44335938;stroke-linecap:round;stroke-linejoin:round;stroke-miterlimit:4;stroke-dasharray:none;stroke-opacity:1" />
      <path
         sodipodi:nodetypes="cssssssccccssscccccccscscccssscc"
         inkscape:connector-curvature="0"
         id="path4142"
         d="M 679.63721,2361.368 C 1004.2159,2318.7275 1333.3955,2121.7437 1531.4023,1851.6646 1856.474,1408.2704 1866.1437,727.11573 1554.0276,257.87672 1490.5203,162.399 1351.7118,19.938911 1254.39,-49.643412 1039.4314,-203.33249 798.79593,-280.79498 504.88489,-290.91513 119.5809,-304.18221 -135.80527,-221.63115 -420.5307,8.216354 -581.72817,138.34472 -716.57322,333.4255 -805.87918,565.70148 c -51.81668,134.77 -70.22098,225.49879 -70.29608,346.54274 l -0.0632,105.37878 479.30404,0 479.304164,0 6.036253,-71.66582 c 3.320092,-39.41615 6.036297,-93.62476 6.036297,-120.46367 0,-26.83879 2.670792,-68.35426 5.935356,-92.25671 l 5.9354,-43.45887 348.73641,0 348.73648,0 0,351.26247 0,351.2626 -348.73648,0 -348.73641,0 -5.9354,-43.4588 c -3.264506,-23.9026 -5.965229,-69.2154 -6.001738,-100.6954 -0.03731,-31.4799 -2.743987,-85.6886 -6.016318,-120.4636 l -5.950098,-63.2272 -479.323926,0 -479.32403,0 0,93.0575 c 0,137.4816 35.79246,284.402 112.55978,462.0338 167.02238,386.4729 577.03814,692.0493 1000.02442,745.2984 109.89385,13.8342 324.31117,12.1512 443.29368,-3.4798 z"
         style="opacity:0;fill:#000000;fill-opacity:1;stroke:#000000;stroke-width:281.44335938;stroke-linecap:round;stroke-linejoin:round;stroke-miterlimit:4;stroke-dasharray:none;stroke-opacity:1" />
      <path
         sodipodi:nodetypes="cssssssccccssscccccccscscccssscc"
         inkscape:connector-curvature="0"
         id="path4144"
         d="M 679.63721,2361.368 C 1004.2159,2318.7275 1333.3955,2121.7437 1531.4023,1851.6646 1856.474,1408.2704 1866.1437,727.11573 1554.0276,257.87672 1490.5203,162.399 1351.7118,19.938911 1254.39,-49.643412 1039.4314,-203.33249 798.79593,-280.79498 504.88489,-290.91513 119.5809,-304.18221 -135.80527,-221.63115 -420.5307,8.216354 -581.72817,138.34472 -716.57322,333.4255 -805.87918,565.70148 c -51.81668,134.77 -70.22098,225.49879 -70.29608,346.54274 l -0.0632,105.37878 479.30404,0 479.304164,0 6.036253,-71.66582 c 3.320092,-39.41615 6.036297,-93.62476 6.036297,-120.46367 0,-26.83879 2.670792,-68.35426 5.935356,-92.25671 l 5.9354,-43.45887 348.73641,0 348.73648,0 0,351.26247 0,351.2626 -348.73648,0 -348.73641,0 -5.9354,-43.4588 c -3.264506,-23.9026 -5.965229,-69.2154 -6.001738,-100.6954 -0.03731,-31.4799 -2.743987,-85.6886 -6.016318,-120.4636 l -5.950098,-63.2272 -479.323926,0 -479.32403,0 0,93.0575 c 0,137.4816 35.79246,284.402 112.55978,462.0338 167.02238,386.4729 577.03814,692.0493 1000.02442,745.2984 109.89385,13.8342 324.31117,12.1512 443.29368,-3.4798 z"
         style="opacity:0;fill:#000000;fill-opacity:1;stroke:#000000;stroke-width:281.44335938;stroke-linecap:round;stroke-linejoin:round;stroke-miterlimit:4;stroke-dasharray:none;stroke-opacity:1" />
      <path
         sodipodi:nodetypes="cssssssccccssscccccccscscccssscc"
         inkscape:connector-curvature="0"
         id="path4146"
         d="M 679.63721,2361.368 C 1004.2159,2318.7275 1333.3955,2121.7437 1531.4023,1851.6646 1856.474,1408.2704 1866.1437,727.11573 1554.0276,257.87672 1490.5203,162.399 1351.7118,19.938911 1254.39,-49.643412 1039.4314,-203.33249 798.79593,-280.79498 504.88489,-290.91513 119.5809,-304.18221 -135.80527,-221.63115 -420.5307,8.216354 -581.72817,138.34472 -716.57322,333.4255 -805.87918,565.70148 c -51.81668,134.77 -70.22098,225.49879 -70.29608,346.54274 l -0.0632,105.37878 479.30404,0 479.304164,0 6.036253,-71.66582 c 3.320092,-39.41615 6.036297,-93.62476 6.036297,-120.46367 0,-26.83879 2.670792,-68.35426 5.935356,-92.25671 l 5.9354,-43.45887 348.73641,0 348.73648,0 0,351.26247 0,351.2626 -348.73648,0 -348.73641,0 -5.9354,-43.4588 c -3.264506,-23.9026 -5.965229,-69.2154 -6.001738,-100.6954 -0.03731,-31.4799 -2.743987,-85.6886 -6.016318,-120.4636 l -5.950098,-63.2272 -479.323926,0 -479.32403,0 0,93.0575 c 0,137.4816 35.79246,284.402 112.55978,462.0338 167.02238,386.4729 577.03814,692.0493 1000.02442,745.2984 109.89385,13.8342 324.31117,12.1512 443.29368,-3.4798 z"
         style="opacity:0;fill:#000000;fill-opacity:1;stroke:#000000;stroke-width:281.44335938;stroke-linecap:round;stroke-linejoin:round;stroke-miterlimit:4;stroke-dasharray:none;stroke-opacity:1" />
      <path
         sodipodi:nodetypes="cssssssccccssscccccccscscccssscc"
         inkscape:connector-curvature="0"
         id="path4148"
         d="M 679.63721,2361.368 C 1004.2159,2318.7275 1333.3955,2121.7437 1531.4023,1851.6646 1856.474,1408.2704 1866.1437,727.11573 1554.0276,257.87672 1490.5203,162.399 1351.7118,19.938911 1254.39,-49.643412 1039.4314,-203.33249 798.79593,-280.79498 504.88489,-290.91513 119.5809,-304.18221 -135.80527,-221.63115 -420.5307,8.216354 -581.72817,138.34472 -716.57322,333.4255 -805.87918,565.70148 c -51.81668,134.77 -70.22098,225.49879 -70.29608,346.54274 l -0.0632,105.37878 479.30404,0 479.304164,0 6.036253,-71.66582 c 3.320092,-39.41615 6.036297,-93.62476 6.036297,-120.46367 0,-26.83879 2.670792,-68.35426 5.935356,-92.25671 l 5.9354,-43.45887 348.73641,0 348.73648,0 0,351.26247 0,351.2626 -348.73648,0 -348.73641,0 -5.9354,-43.4588 c -3.264506,-23.9026 -5.965229,-69.2154 -6.001738,-100.6954 -0.03731,-31.4799 -2.743987,-85.6886 -6.016318,-120.4636 l -5.950098,-63.2272 -479.323926,0 -479.32403,0 0,93.0575 c 0,137.4816 35.79246,284.402 112.55978,462.0338 167.02238,386.4729 577.03814,692.0493 1000.02442,745.2984 109.89385,13.8342 324.31117,12.1512 443.29368,-3.4798 z"
         style="opacity:0;fill:#000000;fill-opacity:1;stroke:#000000;stroke-width:281.44335938;stroke-linecap:round;stroke-linejoin:round;stroke-miterlimit:4;stroke-dasharray:none;stroke-opacity:1" />
      <path
         sodipodi:nodetypes="cssssssccccssscccccccscscccssscc"
         inkscape:connector-curvature="0"
         id="path4150"
         d="M 679.63721,2361.368 C 1004.2159,2318.7275 1333.3955,2121.7437 1531.4023,1851.6646 1856.474,1408.2704 1866.1437,727.11573 1554.0276,257.87672 1490.5203,162.399 1351.7118,19.938911 1254.39,-49.643412 1039.4314,-203.33249 798.79593,-280.79498 504.88489,-290.91513 119.5809,-304.18221 -135.80527,-221.63115 -420.5307,8.216354 -581.72817,138.34472 -716.57322,333.4255 -805.87918,565.70148 c -51.81668,134.77 -70.22098,225.49879 -70.29608,346.54274 l -0.0632,105.37878 479.30404,0 479.304164,0 6.036253,-71.66582 c 3.320092,-39.41615 6.036297,-93.62476 6.036297,-120.46367 0,-26.83879 2.670792,-68.35426 5.935356,-92.25671 l 5.9354,-43.45887 348.73641,0 348.73648,0 0,351.26247 0,351.2626 -348.73648,0 -348.73641,0 -5.9354,-43.4588 c -3.264506,-23.9026 -5.965229,-69.2154 -6.001738,-100.6954 -0.03731,-31.4799 -2.743987,-85.6886 -6.016318,-120.4636 l -5.950098,-63.2272 -479.323926,0 -479.32403,0 0,93.0575 c 0,137.4816 35.79246,284.402 112.55978,462.0338 167.02238,386.4729 577.03814,692.0493 1000.02442,745.2984 109.89385,13.8342 324.31117,12.1512 443.29368,-3.4798 z"
         style="opacity:0;fill:#000000;fill-opacity:1;stroke:#000000;stroke-width:281.44335938;stroke-linecap:round;stroke-linejoin:round;stroke-miterlimit:4;stroke-dasharray:none;stroke-opacity:1" />
      <path
         sodipodi:nodetypes="ssssssssscccssscccccccscscccssss"
         inkscape:connector-curvature="0"
         id="path4152"
         d="m 714.98493,2378.841 c 255.57988,-39.396 508.27867,-171.05 706.10397,-367.8743 187.9184,-186.9677 302.4728,-406.4891 359.6793,-689.2562 26.0938,-128.9806 23.7649,-452.02716 -4.1887,-581.01962 C 1734.3135,545.65465 1674.2398,400.26177 1572.6297,247.08313 1289.7975,-179.29033 752.20005,-389.13256 178.4413,-297.11519 -73.965467,-256.6351 -320.92589,-127.36948 -516.95271,66.872449 -619.203,168.19162 -699.65805,284.89688 -773.69722,439.29677 -866.38458,632.58512 -904.24107,780.27765 -904.24107,948.59743 l 0,87.75957 502.84062,0 502.84065,0 5.83342,-29.2719 c 3.20849,-16.09949 5.83341,-51.2808 5.83341,-78.18057 0,-26.89967 2.72911,-87.49244 6.06432,-134.65063 l 6.06444,-85.74196 325.27372,0 325.27379,0 0,327.84506 0,327.845 -325.28797,0 -325.28813,0 -5.99415,-77.2779 c -3.29658,-42.5027 -6.07664,-104.6762 -6.17754,-138.1632 -0.0994,-33.487 -2.71597,-70.3694 -5.81127,-81.9612 l -5.62781,-21.0758 -504.25998,0 -504.25994,0 5.48447,119.4293 c 11.05624,240.758 103.80206,493.5831 255.30763,695.9685 194.88715,260.3357 485.8459,449.8563 782.57208,509.7412 168.44839,33.9958 389.9407,37.0503 578.54424,7.9781 z"
         style="opacity:0;fill:#000000;fill-opacity:1;stroke:#000000;stroke-width:281.44335938;stroke-linecap:round;stroke-linejoin:round;stroke-miterlimit:4;stroke-dasharray:none;stroke-opacity:1" />
      <path
         sodipodi:nodetypes="ssssssssscccssscccccccscscccssss"
         inkscape:connector-curvature="0"
         id="path4154"
         d="m 714.98493,2378.841 c 255.57988,-39.396 508.27867,-171.05 706.10397,-367.8743 187.9184,-186.9677 302.4728,-406.4891 359.6793,-689.2562 26.0938,-128.9806 23.7649,-452.02716 -4.1887,-581.01962 C 1734.3135,545.65465 1674.2398,400.26177 1572.6297,247.08313 1289.7975,-179.29033 752.20005,-389.13256 178.4413,-297.11519 -73.965467,-256.6351 -320.92589,-127.36948 -516.95271,66.872449 -619.203,168.19162 -699.65805,284.89688 -773.69722,439.29677 -866.38458,632.58512 -904.24107,780.27765 -904.24107,948.59743 l 0,87.75957 502.84062,0 502.84065,0 5.83342,-29.2719 c 3.20849,-16.09949 5.83341,-51.2808 5.83341,-78.18057 0,-26.89967 2.72911,-87.49244 6.06432,-134.65063 l 6.06444,-85.74196 325.27372,0 325.27379,0 0,327.84506 0,327.845 -325.28797,0 -325.28813,0 -5.99415,-77.2779 c -3.29658,-42.5027 -6.07664,-104.6762 -6.17754,-138.1632 -0.0994,-33.487 -2.71597,-70.3694 -5.81127,-81.9612 l -5.62781,-21.0758 -504.25998,0 -504.25994,0 5.48447,119.4293 c 11.05624,240.758 103.80206,493.5831 255.30763,695.9685 194.88715,260.3357 485.8459,449.8563 782.57208,509.7412 168.44839,33.9958 389.9407,37.0503 578.54424,7.9781 z"
         style="opacity:0;fill:#000000;fill-opacity:1;stroke:#000000;stroke-width:281.44335938;stroke-linecap:round;stroke-linejoin:round;stroke-miterlimit:4;stroke-dasharray:none;stroke-opacity:1" />
      <path
         sodipodi:nodetypes="ssssssssscccssscccccccscscccssss"
         inkscape:connector-curvature="0"
         id="path4156"
         d="m 714.98493,2378.841 c 255.57988,-39.396 508.27867,-171.05 706.10397,-367.8743 187.9184,-186.9677 302.4728,-406.4891 359.6793,-689.2562 26.0938,-128.9806 23.7649,-452.02716 -4.1887,-581.01962 C 1734.3135,545.65465 1674.2398,400.26177 1572.6297,247.08313 1289.7975,-179.29033 752.20005,-389.13256 178.4413,-297.11519 -73.965467,-256.6351 -320.92589,-127.36948 -516.95271,66.872449 -619.203,168.19162 -699.65805,284.89688 -773.69722,439.29677 -866.38458,632.58512 -904.24107,780.27765 -904.24107,948.59743 l 0,87.75957 502.84062,0 502.84065,0 5.83342,-29.2719 c 3.20849,-16.09949 5.83341,-51.2808 5.83341,-78.18057 0,-26.89967 2.72911,-87.49244 6.06432,-134.65063 l 6.06444,-85.74196 325.27372,0 325.27379,0 0,327.84506 0,327.845 -325.28797,0 -325.28813,0 -5.99415,-77.2779 c -3.29658,-42.5027 -6.07664,-104.6762 -6.17754,-138.1632 -0.0994,-33.487 -2.71597,-70.3694 -5.81127,-81.9612 l -5.62781,-21.0758 -504.25998,0 -504.25994,0 5.48447,119.4293 c 11.05624,240.758 103.80206,493.5831 255.30763,695.9685 194.88715,260.3357 485.8459,449.8563 782.57208,509.7412 168.44839,33.9958 389.9407,37.0503 578.54424,7.9781 z"
         style="opacity:0;fill:#ffffff;fill-opacity:1;stroke:#000000;stroke-width:281.44335938;stroke-linecap:round;stroke-linejoin:round;stroke-miterlimit:4;stroke-dasharray:none;stroke-opacity:1" />
      <path
         sodipodi:nodetypes="ssssssssscccssscccccccscscccssss"
         inkscape:connector-curvature="0"
         id="path4158"
         d="m 714.98493,2378.841 c 255.57988,-39.396 508.27867,-171.05 706.10397,-367.8743 187.9184,-186.9677 302.4728,-406.4891 359.6793,-689.2562 26.0938,-128.9806 23.7649,-452.02716 -4.1887,-581.01962 C 1734.3135,545.65465 1674.2398,400.26177 1572.6297,247.08313 1289.7975,-179.29033 752.20005,-389.13256 178.4413,-297.11519 -73.965467,-256.6351 -320.92589,-127.36948 -516.95271,66.872449 -619.203,168.19162 -699.65805,284.89688 -773.69722,439.29677 -866.38458,632.58512 -904.24107,780.27765 -904.24107,948.59743 l 0,87.75957 502.84062,0 502.84065,0 5.83342,-29.2719 c 3.20849,-16.09949 5.83341,-51.2808 5.83341,-78.18057 0,-26.89967 2.72911,-87.49244 6.06432,-134.65063 l 6.06444,-85.74196 325.27372,0 325.27379,0 0,327.84506 0,327.845 -325.28797,0 -325.28813,0 -5.99415,-77.2779 c -3.29658,-42.5027 -6.07664,-104.6762 -6.17754,-138.1632 -0.0994,-33.487 -2.71597,-70.3694 -5.81127,-81.9612 l -5.62781,-21.0758 -504.25998,0 -504.25994,0 5.48447,119.4293 c 11.05624,240.758 103.80206,493.5831 255.30763,695.9685 194.88715,260.3357 485.8459,449.8563 782.57208,509.7412 168.44839,33.9958 389.9407,37.0503 578.54424,7.9781 z"
         style="opacity:0;fill:#ffffff;fill-opacity:1;stroke:#000000;stroke-width:281.44335938;stroke-linecap:round;stroke-linejoin:round;stroke-miterlimit:4;stroke-dasharray:none;stroke-opacity:1" />
      <path
         sodipodi:nodetypes="ssssssssscccssscccccccscscccssss"
         inkscape:connector-curvature="0"
         id="path4160"
         d="m 714.98493,2378.841 c 255.57988,-39.396 508.27867,-171.05 706.10397,-367.8743 187.9184,-186.9677 302.4728,-406.4891 359.6793,-689.2562 26.0938,-128.9806 23.7649,-452.02716 -4.1887,-581.01962 C 1734.3135,545.65465 1674.2398,400.26177 1572.6297,247.08313 1289.7975,-179.29033 752.20005,-389.13256 178.4413,-297.11519 -73.965467,-256.6351 -320.92589,-127.36948 -516.95271,66.872449 -619.203,168.19162 -699.65805,284.89688 -773.69722,439.29677 -866.38458,632.58512 -904.24107,780.27765 -904.24107,948.59743 l 0,87.75957 502.84062,0 502.84065,0 5.83342,-29.2719 c 3.20849,-16.09949 5.83341,-51.2808 5.83341,-78.18057 0,-26.89967 2.72911,-87.49244 6.06432,-134.65063 l 6.06444,-85.74196 325.27372,0 325.27379,0 0,327.84506 0,327.845 -325.28797,0 -325.28813,0 -5.99415,-77.2779 c -3.29658,-42.5027 -6.07664,-104.6762 -6.17754,-138.1632 -0.0994,-33.487 -2.71597,-70.3694 -5.81127,-81.9612 l -5.62781,-21.0758 -504.25998,0 -504.25994,0 5.48447,119.4293 c 11.05624,240.758 103.80206,493.5831 255.30763,695.9685 194.88715,260.3357 485.8459,449.8563 782.57208,509.7412 168.44839,33.9958 389.9407,37.0503 578.54424,7.9781 z"
         style="opacity:0;fill:#ffffff;fill-opacity:1;stroke:#000000;stroke-width:281.44335938;stroke-linecap:round;stroke-linejoin:round;stroke-miterlimit:4;stroke-dasharray:none;stroke-opacity:1" />
      <path
         sodipodi:nodetypes="ssssssssscccssscccccccscscccssss"
         inkscape:connector-curvature="0"
         id="path4162"
         d="m 714.98493,2378.841 c 255.57988,-39.396 508.27867,-171.05 706.10397,-367.8743 187.9184,-186.9677 302.4728,-406.4891 359.6793,-689.2562 26.0938,-128.9806 23.7649,-452.02716 -4.1887,-581.01962 C 1734.3135,545.65465 1674.2398,400.26177 1572.6297,247.08313 1289.7975,-179.29033 752.20005,-389.13256 178.4413,-297.11519 -73.965467,-256.6351 -320.92589,-127.36948 -516.95271,66.872449 -619.203,168.19162 -699.65805,284.89688 -773.69722,439.29677 -866.38458,632.58512 -904.24107,780.27765 -904.24107,948.59743 l 0,87.75957 502.84062,0 502.84065,0 5.83342,-29.2719 c 3.20849,-16.09949 5.83341,-51.2808 5.83341,-78.18057 0,-26.89967 2.72911,-87.49244 6.06432,-134.65063 l 6.06444,-85.74196 325.27372,0 325.27379,0 0,327.84506 0,327.845 -325.28797,0 -325.28813,0 -5.99415,-77.2779 c -3.29658,-42.5027 -6.07664,-104.6762 -6.17754,-138.1632 -0.0994,-33.487 -2.71597,-70.3694 -5.81127,-81.9612 l -5.62781,-21.0758 -504.25998,0 -504.25994,0 5.48447,119.4293 c 11.05624,240.758 103.80206,493.5831 255.30763,695.9685 194.88715,260.3357 485.8459,449.8563 782.57208,509.7412 168.44839,33.9958 389.9407,37.0503 578.54424,7.9781 z"
         style="opacity:0;fill:#ffffff;fill-opacity:1;stroke:#000000;stroke-width:281.44335938;stroke-linecap:round;stroke-linejoin:round;stroke-miterlimit:4;stroke-dasharray:none;stroke-opacity:1" />
      <path
         sodipodi:nodetypes="ssssssssscccssscccccccscscccssss"
         inkscape:connector-curvature="0"
         id="path4164"
         d="m 714.98493,2378.841 c 255.57988,-39.396 508.27867,-171.05 706.10397,-367.8743 187.9184,-186.9677 302.4728,-406.4891 359.6793,-689.2562 26.0938,-128.9806 23.7649,-452.02716 -4.1887,-581.01962 C 1734.3135,545.65465 1674.2398,400.26177 1572.6297,247.08313 1289.7975,-179.29033 752.20005,-389.13256 178.4413,-297.11519 -73.965467,-256.6351 -320.92589,-127.36948 -516.95271,66.872449 -619.203,168.19162 -699.65805,284.89688 -773.69722,439.29677 -866.38458,632.58512 -904.24107,780.27765 -904.24107,948.59743 l 0,87.75957 502.84062,0 502.84065,0 5.83342,-29.2719 c 3.20849,-16.09949 5.83341,-51.2808 5.83341,-78.18057 0,-26.89967 2.72911,-87.49244 6.06432,-134.65063 l 6.06444,-85.74196 325.27372,0 325.27379,0 0,327.84506 0,327.845 -325.28797,0 -325.28813,0 -5.99415,-77.2779 c -3.29658,-42.5027 -6.07664,-104.6762 -6.17754,-138.1632 -0.0994,-33.487 -2.71597,-70.3694 -5.81127,-81.9612 l -5.62781,-21.0758 -504.25998,0 -504.25994,0 5.48447,119.4293 c 11.05624,240.758 103.80206,493.5831 255.30763,695.9685 194.88715,260.3357 485.8459,449.8563 782.57208,509.7412 168.44839,33.9958 389.9407,37.0503 578.54424,7.9781 z"
         style="opacity:0;fill:#ffffff;fill-opacity:1;stroke:#000000;stroke-width:281.44335938;stroke-linecap:round;stroke-linejoin:round;stroke-miterlimit:4;stroke-dasharray:none;stroke-opacity:1" />
      <path
         sodipodi:nodetypes="ssssssssscccssscccccccscscccssss"
         inkscape:connector-curvature="0"
         id="path4166"
         d="m 714.98493,2378.841 c 255.57988,-39.396 508.27867,-171.05 706.10397,-367.8743 187.9184,-186.9677 302.4728,-406.4891 359.6793,-689.2562 26.0938,-128.9806 23.7649,-452.02716 -4.1887,-581.01962 C 1734.3135,545.65465 1674.2398,400.26177 1572.6297,247.08313 1289.7975,-179.29033 752.20005,-389.13256 178.4413,-297.11519 -73.965467,-256.6351 -320.92589,-127.36948 -516.95271,66.872449 -619.203,168.19162 -699.65805,284.89688 -773.69722,439.29677 -866.38458,632.58512 -904.24107,780.27765 -904.24107,948.59743 l 0,87.75957 502.84062,0 502.84065,0 5.83342,-29.2719 c 3.20849,-16.09949 5.83341,-51.2808 5.83341,-78.18057 0,-26.89967 2.72911,-87.49244 6.06432,-134.65063 l 6.06444,-85.74196 325.27372,0 325.27379,0 0,327.84506 0,327.845 -325.28797,0 -325.28813,0 -5.99415,-77.2779 c -3.29658,-42.5027 -6.07664,-104.6762 -6.17754,-138.1632 -0.0994,-33.487 -2.71597,-70.3694 -5.81127,-81.9612 l -5.62781,-21.0758 -504.25998,0 -504.25994,0 5.48447,119.4293 c 11.05624,240.758 103.80206,493.5831 255.30763,695.9685 194.88715,260.3357 485.8459,449.8563 782.57208,509.7412 168.44839,33.9958 389.9407,37.0503 578.54424,7.9781 z"
         style="opacity:0;fill:#ffffff;fill-opacity:1;stroke:#000000;stroke-width:281.44335938;stroke-linecap:round;stroke-linejoin:round;stroke-miterlimit:4;stroke-dasharray:none;stroke-opacity:1" />
      <path
         sodipodi:nodetypes="ssssssssscccssscccccccscscccssss"
         inkscape:connector-curvature="0"
         id="path4168"
         d="m 714.98493,2378.841 c 255.57988,-39.396 508.27867,-171.05 706.10397,-367.8743 187.9184,-186.9677 302.4728,-406.4891 359.6793,-689.2562 26.0938,-128.9806 23.7649,-452.02716 -4.1887,-581.01962 C 1734.3135,545.65465 1674.2398,400.26177 1572.6297,247.08313 1289.7975,-179.29033 752.20005,-389.13256 178.4413,-297.11519 -73.965467,-256.6351 -320.92589,-127.36948 -516.95271,66.872449 -619.203,168.19162 -699.65805,284.89688 -773.69722,439.29677 -866.38458,632.58512 -904.24107,780.27765 -904.24107,948.59743 l 0,87.75957 502.84062,0 502.84065,0 5.83342,-29.2719 c 3.20849,-16.09949 5.83341,-51.2808 5.83341,-78.18057 0,-26.89967 2.72911,-87.49244 6.06432,-134.65063 l 6.06444,-85.74196 325.27372,0 325.27379,0 0,327.84506 0,327.845 -325.28797,0 -325.28813,0 -5.99415,-77.2779 c -3.29658,-42.5027 -6.07664,-104.6762 -6.17754,-138.1632 -0.0994,-33.487 -2.71597,-70.3694 -5.81127,-81.9612 l -5.62781,-21.0758 -504.25998,0 -504.25994,0 5.48447,119.4293 c 11.05624,240.758 103.80206,493.5831 255.30763,695.9685 194.88715,260.3357 485.8459,449.8563 782.57208,509.7412 168.44839,33.9958 389.9407,37.0503 578.54424,7.9781 z"
         style="opacity:0;fill:#ffffff;fill-opacity:1;stroke:#000000;stroke-width:281.44335938;stroke-linecap:round;stroke-linejoin:round;stroke-miterlimit:4;stroke-dasharray:none;stroke-opacity:1" />
      <path
         sodipodi:nodetypes="ssssssssscccssscccccccscscccssss"
         inkscape:connector-curvature="0"
         id="path4170"
         d="m 714.98493,2378.841 c 255.57988,-39.396 508.27867,-171.05 706.10397,-367.8743 187.9184,-186.9677 302.4728,-406.4891 359.6793,-689.2562 26.0938,-128.9806 23.7649,-452.02716 -4.1887,-581.01962 C 1734.3135,545.65465 1674.2398,400.26177 1572.6297,247.08313 1289.7975,-179.29033 752.20005,-389.13256 178.4413,-297.11519 -73.965467,-256.6351 -320.92589,-127.36948 -516.95271,66.872449 -619.203,168.19162 -699.65805,284.89688 -773.69722,439.29677 -866.38458,632.58512 -904.24107,780.27765 -904.24107,948.59743 l 0,87.75957 502.84062,0 502.84065,0 5.83342,-29.2719 c 3.20849,-16.09949 5.83341,-51.2808 5.83341,-78.18057 0,-26.89967 2.72911,-87.49244 6.06432,-134.65063 l 6.06444,-85.74196 325.27372,0 325.27379,0 0,327.84506 0,327.845 -325.28797,0 -325.28813,0 -5.99415,-77.2779 c -3.29658,-42.5027 -6.07664,-104.6762 -6.17754,-138.1632 -0.0994,-33.487 -2.71597,-70.3694 -5.81127,-81.9612 l -5.62781,-21.0758 -504.25998,0 -504.25994,0 5.48447,119.4293 c 11.05624,240.758 103.80206,493.5831 255.30763,695.9685 194.88715,260.3357 485.8459,449.8563 782.57208,509.7412 168.44839,33.9958 389.9407,37.0503 578.54424,7.9781 z"
         style="opacity:0;fill:#ffffff;fill-opacity:1;stroke:#000000;stroke-width:281.44335938;stroke-linecap:round;stroke-linejoin:round;stroke-miterlimit:4;stroke-dasharray:none;stroke-opacity:1" />
      <path
         sodipodi:nodetypes="ssssssssscccssscccccccscscccssss"
         inkscape:connector-curvature="0"
         id="path4172"
         d="m 714.98493,2378.841 c 255.57988,-39.396 508.27867,-171.05 706.10397,-367.8743 187.9184,-186.9677 302.4728,-406.4891 359.6793,-689.2562 26.0938,-128.9806 23.7649,-452.02716 -4.1887,-581.01962 C 1734.3135,545.65465 1674.2398,400.26177 1572.6297,247.08313 1289.7975,-179.29033 752.20005,-389.13256 178.4413,-297.11519 -73.965467,-256.6351 -320.92589,-127.36948 -516.95271,66.872449 -619.203,168.19162 -699.65805,284.89688 -773.69722,439.29677 -866.38458,632.58512 -904.24107,780.27765 -904.24107,948.59743 l 0,87.75957 502.84062,0 502.84065,0 5.83342,-29.2719 c 3.20849,-16.09949 5.83341,-51.2808 5.83341,-78.18057 0,-26.89967 2.72911,-87.49244 6.06432,-134.65063 l 6.06444,-85.74196 325.27372,0 325.27379,0 0,327.84506 0,327.845 -325.28797,0 -325.28813,0 -5.99415,-77.2779 c -3.29658,-42.5027 -6.07664,-104.6762 -6.17754,-138.1632 -0.0994,-33.487 -2.71597,-70.3694 -5.81127,-81.9612 l -5.62781,-21.0758 -504.25998,0 -504.25994,0 5.48447,119.4293 c 11.05624,240.758 103.80206,493.5831 255.30763,695.9685 194.88715,260.3357 485.8459,449.8563 782.57208,509.7412 168.44839,33.9958 389.9407,37.0503 578.54424,7.9781 z"
         style="opacity:0;fill:#ffffff;fill-opacity:1;stroke:#000000;stroke-width:281.44335938;stroke-linecap:round;stroke-linejoin:round;stroke-miterlimit:4;stroke-dasharray:none;stroke-opacity:1" />
      <path
         sodipodi:nodetypes="ssssssssscccssscccccccscscccssss"
         inkscape:connector-curvature="0"
         id="path4174"
         d="m 714.98493,2378.841 c 255.57988,-39.396 508.27867,-171.05 706.10397,-367.8743 187.9184,-186.9677 302.4728,-406.4891 359.6793,-689.2562 26.0938,-128.9806 23.7649,-452.02716 -4.1887,-581.01962 C 1734.3135,545.65465 1674.2398,400.26177 1572.6297,247.08313 1289.7975,-179.29033 752.20005,-389.13256 178.4413,-297.11519 -73.965467,-256.6351 -320.92589,-127.36948 -516.95271,66.872449 -619.203,168.19162 -699.65805,284.89688 -773.69722,439.29677 -866.38458,632.58512 -904.24107,780.27765 -904.24107,948.59743 l 0,87.75957 502.84062,0 502.84065,0 5.83342,-29.2719 c 3.20849,-16.09949 5.83341,-51.2808 5.83341,-78.18057 0,-26.89967 2.72911,-87.49244 6.06432,-134.65063 l 6.06444,-85.74196 325.27372,0 325.27379,0 0,327.84506 0,327.845 -325.28797,0 -325.28813,0 -5.99415,-77.2779 c -3.29658,-42.5027 -6.07664,-104.6762 -6.17754,-138.1632 -0.0994,-33.487 -2.71597,-70.3694 -5.81127,-81.9612 l -5.62781,-21.0758 -504.25998,0 -504.25994,0 5.48447,119.4293 c 11.05624,240.758 103.80206,493.5831 255.30763,695.9685 194.88715,260.3357 485.8459,449.8563 782.57208,509.7412 168.44839,33.9958 389.9407,37.0503 578.54424,7.9781 z"
         style="opacity:0;fill:#ffffff;fill-opacity:1;stroke:#000000;stroke-width:281.44335938;stroke-linecap:round;stroke-linejoin:round;stroke-miterlimit:4;stroke-dasharray:none;stroke-opacity:1" />
      <path
         sodipodi:nodetypes="ssssssssscccssscccccccscscccssss"
         inkscape:connector-curvature="0"
         id="path4176"
         d="m 714.98493,2378.841 c 255.57988,-39.396 508.27867,-171.05 706.10397,-367.8743 187.9184,-186.9677 302.4728,-406.4891 359.6793,-689.2562 26.0938,-128.9806 23.7649,-452.02716 -4.1887,-581.01962 C 1734.3135,545.65465 1674.2398,400.26177 1572.6297,247.08313 1289.7975,-179.29033 752.20005,-389.13256 178.4413,-297.11519 -73.965467,-256.6351 -320.92589,-127.36948 -516.95271,66.872449 -619.203,168.19162 -699.65805,284.89688 -773.69722,439.29677 -866.38458,632.58512 -904.24107,780.27765 -904.24107,948.59743 l 0,87.75957 502.84062,0 502.84065,0 5.83342,-29.2719 c 3.20849,-16.09949 5.83341,-51.2808 5.83341,-78.18057 0,-26.89967 2.72911,-87.49244 6.06432,-134.65063 l 6.06444,-85.74196 325.27372,0 325.27379,0 0,327.84506 0,327.845 -325.28797,0 -325.28813,0 -5.99415,-77.2779 c -3.29658,-42.5027 -6.07664,-104.6762 -6.17754,-138.1632 -0.0994,-33.487 -2.71597,-70.3694 -5.81127,-81.9612 l -5.62781,-21.0758 -504.25998,0 -504.25994,0 5.48447,119.4293 c 11.05624,240.758 103.80206,493.5831 255.30763,695.9685 194.88715,260.3357 485.8459,449.8563 782.57208,509.7412 168.44839,33.9958 389.9407,37.0503 578.54424,7.9781 z"
         style="opacity:0;fill:#ffffff;fill-opacity:1;stroke:#000000;stroke-width:281.44335938;stroke-linecap:round;stroke-linejoin:round;stroke-miterlimit:4;stroke-dasharray:none;stroke-opacity:1" />
      <path
         sodipodi:nodetypes="ssssssssscccssscccccccscscccssss"
         inkscape:connector-curvature="0"
         id="path4178"
         d="m 714.98493,2378.841 c 255.57988,-39.396 508.27867,-171.05 706.10397,-367.8743 187.9184,-186.9677 302.4728,-406.4891 359.6793,-689.2562 26.0938,-128.9806 23.7649,-452.02716 -4.1887,-581.01962 C 1734.3135,545.65465 1674.2398,400.26177 1572.6297,247.08313 1289.7975,-179.29033 752.20005,-389.13256 178.4413,-297.11519 -73.965467,-256.6351 -320.92589,-127.36948 -516.95271,66.872449 -619.203,168.19162 -699.65805,284.89688 -773.69722,439.29677 -866.38458,632.58512 -904.24107,780.27765 -904.24107,948.59743 l 0,87.75957 502.84062,0 502.84065,0 5.83342,-29.2719 c 3.20849,-16.09949 5.83341,-51.2808 5.83341,-78.18057 0,-26.89967 2.72911,-87.49244 6.06432,-134.65063 l 6.06444,-85.74196 325.27372,0 325.27379,0 0,327.84506 0,327.845 -325.28797,0 -325.28813,0 -5.99415,-77.2779 c -3.29658,-42.5027 -6.07664,-104.6762 -6.17754,-138.1632 -0.0994,-33.487 -2.71597,-70.3694 -5.81127,-81.9612 l -5.62781,-21.0758 -504.25998,0 -504.25994,0 5.48447,119.4293 c 11.05624,240.758 103.80206,493.5831 255.30763,695.9685 194.88715,260.3357 485.8459,449.8563 782.57208,509.7412 168.44839,33.9958 389.9407,37.0503 578.54424,7.9781 z"
         style="opacity:0;fill:#ff47ff;fill-opacity:1;stroke:#000000;stroke-width:281.44335938;stroke-linecap:round;stroke-linejoin:round;stroke-miterlimit:4;stroke-dasharray:none;stroke-opacity:1" />
      <path
         sodipodi:nodetypes="ssssssssscccssscccccccscscccssss"
         inkscape:connector-curvature="0"
         id="path4180"
         d="m 714.98493,2378.841 c 255.57988,-39.396 508.27867,-171.05 706.10397,-367.8743 187.9184,-186.9677 302.4728,-406.4891 359.6793,-689.2562 26.0938,-128.9806 23.7649,-452.02716 -4.1887,-581.01962 C 1734.3135,545.65465 1674.2398,400.26177 1572.6297,247.08313 1289.7975,-179.29033 752.20005,-389.13256 178.4413,-297.11519 -73.965467,-256.6351 -320.92589,-127.36948 -516.95271,66.872449 -619.203,168.19162 -699.65805,284.89688 -773.69722,439.29677 -866.38458,632.58512 -904.24107,780.27765 -904.24107,948.59743 l 0,87.75957 502.84062,0 502.84065,0 5.83342,-29.2719 c 3.20849,-16.09949 5.83341,-51.2808 5.83341,-78.18057 0,-26.89967 2.72911,-87.49244 6.06432,-134.65063 l 6.06444,-85.74196 325.27372,0 325.27379,0 0,327.84506 0,327.845 -325.28797,0 -325.28813,0 -5.99415,-77.2779 c -3.29658,-42.5027 -6.07664,-104.6762 -6.17754,-138.1632 -0.0994,-33.487 -2.71597,-70.3694 -5.81127,-81.9612 l -5.62781,-21.0758 -504.25998,0 -504.25994,0 5.48447,119.4293 c 11.05624,240.758 103.80206,493.5831 255.30763,695.9685 194.88715,260.3357 485.8459,449.8563 782.57208,509.7412 168.44839,33.9958 389.9407,37.0503 578.54424,7.9781 z"
         style="opacity:0;fill:#ff47ff;fill-opacity:1;stroke:#000000;stroke-width:281.44335938;stroke-linecap:round;stroke-linejoin:round;stroke-miterlimit:4;stroke-dasharray:none;stroke-opacity:1" />
      <path
         sodipodi:nodetypes="ssssssssscccssscccccccscscccssss"
         inkscape:connector-curvature="0"
         id="path4182"
         d="m 714.98493,2378.841 c 255.57988,-39.396 508.27867,-171.05 706.10397,-367.8743 187.9184,-186.9677 302.4728,-406.4891 359.6793,-689.2562 26.0938,-128.9806 23.7649,-452.02716 -4.1887,-581.01962 C 1734.3135,545.65465 1674.2398,400.26177 1572.6297,247.08313 1289.7975,-179.29033 752.20005,-389.13256 178.4413,-297.11519 -73.965467,-256.6351 -320.92589,-127.36948 -516.95271,66.872449 -619.203,168.19162 -699.65805,284.89688 -773.69722,439.29677 -866.38458,632.58512 -904.24107,780.27765 -904.24107,948.59743 l 0,87.75957 502.84062,0 502.84065,0 5.83342,-29.2719 c 3.20849,-16.09949 5.83341,-51.2808 5.83341,-78.18057 0,-26.89967 2.72911,-87.49244 6.06432,-134.65063 l 6.06444,-85.74196 325.27372,0 325.27379,0 0,327.84506 0,327.845 -325.28797,0 -325.28813,0 -5.99415,-77.2779 c -3.29658,-42.5027 -6.07664,-104.6762 -6.17754,-138.1632 -0.0994,-33.487 -2.71597,-70.3694 -5.81127,-81.9612 l -5.62781,-21.0758 -504.25998,0 -504.25994,0 5.48447,119.4293 c 11.05624,240.758 103.80206,493.5831 255.30763,695.9685 194.88715,260.3357 485.8459,449.8563 782.57208,509.7412 168.44839,33.9958 389.9407,37.0503 578.54424,7.9781 z"
         style="opacity:0;fill:#ff47ff;fill-opacity:1;stroke:#000000;stroke-width:281.44335938;stroke-linecap:round;stroke-linejoin:round;stroke-miterlimit:4;stroke-dasharray:none;stroke-opacity:1" />
      <path
         sodipodi:nodetypes="ssssssssscccssscccccccscscccssss"
         inkscape:connector-curvature="0"
         id="path4184"
         d="m 714.98493,2378.841 c 255.57988,-39.396 508.27867,-171.05 706.10397,-367.8743 187.9184,-186.9677 302.4728,-406.4891 359.6793,-689.2562 26.0938,-128.9806 23.7649,-452.02716 -4.1887,-581.01962 C 1734.3135,545.65465 1674.2398,400.26177 1572.6297,247.08313 1289.7975,-179.29033 752.20005,-389.13256 178.4413,-297.11519 -73.965467,-256.6351 -320.92589,-127.36948 -516.95271,66.872449 -619.203,168.19162 -699.65805,284.89688 -773.69722,439.29677 -866.38458,632.58512 -904.24107,780.27765 -904.24107,948.59743 l 0,87.75957 502.84062,0 502.84065,0 5.83342,-29.2719 c 3.20849,-16.09949 5.83341,-51.2808 5.83341,-78.18057 0,-26.89967 2.72911,-87.49244 6.06432,-134.65063 l 6.06444,-85.74196 325.27372,0 325.27379,0 0,327.84506 0,327.845 -325.28797,0 -325.28813,0 -5.99415,-77.2779 c -3.29658,-42.5027 -6.07664,-104.6762 -6.17754,-138.1632 -0.0994,-33.487 -2.71597,-70.3694 -5.81127,-81.9612 l -5.62781,-21.0758 -504.25998,0 -504.25994,0 5.48447,119.4293 c 11.05624,240.758 103.80206,493.5831 255.30763,695.9685 194.88715,260.3357 485.8459,449.8563 782.57208,509.7412 168.44839,33.9958 389.9407,37.0503 578.54424,7.9781 z"
         style="opacity:0;fill:#ff47ff;fill-opacity:1;stroke:#000000;stroke-width:281.44335938;stroke-linecap:round;stroke-linejoin:round;stroke-miterlimit:4;stroke-dasharray:none;stroke-opacity:1" />
      <path
         sodipodi:nodetypes="ssssssssscccssscccccccscscccssss"
         inkscape:connector-curvature="0"
         id="path4186"
         d="m 714.98493,2378.841 c 255.57988,-39.396 508.27867,-171.05 706.10397,-367.8743 187.9184,-186.9677 302.4728,-406.4891 359.6793,-689.2562 26.0938,-128.9806 23.7649,-452.02716 -4.1887,-581.01962 C 1734.3135,545.65465 1674.2398,400.26177 1572.6297,247.08313 1289.7975,-179.29033 752.20005,-389.13256 178.4413,-297.11519 -73.965467,-256.6351 -320.92589,-127.36948 -516.95271,66.872449 -619.203,168.19162 -699.65805,284.89688 -773.69722,439.29677 -866.38458,632.58512 -904.24107,780.27765 -904.24107,948.59743 l 0,87.75957 502.84062,0 502.84065,0 5.83342,-29.2719 c 3.20849,-16.09949 5.83341,-51.2808 5.83341,-78.18057 0,-26.89967 2.72911,-87.49244 6.06432,-134.65063 l 6.06444,-85.74196 325.27372,0 325.27379,0 0,327.84506 0,327.845 -325.28797,0 -325.28813,0 -5.99415,-77.2779 c -3.29658,-42.5027 -6.07664,-104.6762 -6.17754,-138.1632 -0.0994,-33.487 -2.71597,-70.3694 -5.81127,-81.9612 l -5.62781,-21.0758 -504.25998,0 -504.25994,0 5.48447,119.4293 c 11.05624,240.758 103.80206,493.5831 255.30763,695.9685 194.88715,260.3357 485.8459,449.8563 782.57208,509.7412 168.44839,33.9958 389.9407,37.0503 578.54424,7.9781 z"
         style="opacity:0;fill:#ff47ff;fill-opacity:1;stroke:#000000;stroke-width:281.44335938;stroke-linecap:round;stroke-linejoin:round;stroke-miterlimit:4;stroke-dasharray:none;stroke-opacity:1" />
    </g>
  </g>
  <g
     inkscape:groupmode="layer"
     id="layer2"
     inkscape:label="Layer 2"
     transform="translate(8.4367578e-5,-2.3832094e-4)" />
</svg>
