<?xml version="1.0" encoding="UTF-8" standalone="no"?>
<!-- Created with Inkscape (http://www.inkscape.org/) -->

<svg
   xmlns:dc="http://purl.org/dc/elements/1.1/"
   xmlns:cc="http://creativecommons.org/ns#"
   xmlns:rdf="http://www.w3.org/1999/02/22-rdf-syntax-ns#"
   xmlns:svg="http://www.w3.org/2000/svg"
   xmlns="http://www.w3.org/2000/svg"
   xmlns:sodipodi="http://sodipodi.sourceforge.net/DTD/sodipodi-0.dtd"
   xmlns:inkscape="http://www.inkscape.org/namespaces/inkscape"
   id="svg2"
   version="1.1"
   inkscape:version="0.91 r13725"
   width="3000"
   height="3000"
   viewBox="0 0 3000 3000"
   sodipodi:docname="UBER_WAV.v1.svg"
   inkscape:export-filename="D:\ASUS WEBSTORAGE\R+D\CABS\DEV TEAM\WIREFRAME + PROTOTYPE\CUSTOM ICONS\FINAL CUSTOM LOGOS.v5\FINAL CUSTOM LOGOS.v5.PNG\UBER_ASSIST.v1.png"
   inkscape:export-xdpi="1.5"
   inkscape:export-ydpi="1.5">
  <metadata
     id="metadata8">
    <rdf:RDF>
      <cc:Work
         rdf:about="">
        <dc:format>image/svg+xml</dc:format>
        <dc:type
           rdf:resource="http://purl.org/dc/dcmitype/StillImage" />
        <dc:title></dc:title>
      </cc:Work>
    </rdf:RDF>
  </metadata>
  <defs
     id="defs6">
    <pattern
       y="0"
       x="0"
       height="6"
       width="6"
       patternUnits="userSpaceOnUse"
       id="EMFhbasepattern" />
  </defs>
  <sodipodi:namedview
     pagecolor="#ffffff"
     bordercolor="#666666"
     borderopacity="1"
     objecttolerance="10"
     gridtolerance="10"
     guidetolerance="10"
     inkscape:pageopacity="0"
     inkscape:pageshadow="2"
     inkscape:window-width="1920"
     inkscape:window-height="1017"
     id="namedview4"
     showgrid="true"
     fit-margin-top="0"
     fit-margin-left="0"
     fit-margin-right="0"
     fit-margin-bottom="0"
     inkscape:zoom="0.13985185"
     inkscape:cx="1724.0466"
     inkscape:cy="1795.0467"
     inkscape:window-x="-8"
     inkscape:window-y="-8"
     inkscape:window-maximized="1"
     inkscape:current-layer="svg2"
     showguides="true"
     inkscape:guide-bbox="true"
     inkscape:object-nodes="true">
    <inkscape:grid
       type="xygrid"
       id="grid4160"
       originx="140.73122"
       originy="-100.99352" />
    <sodipodi:guide
       position="1500.7313,1499.0064"
       orientation="1,0"
       id="guide4170" />
  </sodipodi:namedview>
  <g
     id="info"
     transform="matrix(73.499988,0,0,73.499988,-2248.2686,-1374.5063)" />
  <g
     id="g4187">
    <circle
       inkscape:export-ydpi="1.5"
       inkscape:export-xdpi="1.5"
       inkscape:export-filename="D:\ASUS WEBSTORAGE\R+D\CABS\DEV TEAM\WIREFRAME + PROTOTYPE\CUSTOM ICONS\FINAL CUSTOM LOGOS.v5\FINAL CUSTOM LOGOS.v5.PNG\CUSTOM TERMS ICON.W+RO.v1.png"
       transform="scale(-1,-1)"
       style="fill:#ffffff;fill-opacity:1;stroke:#000000;stroke-width:128.30799866;stroke-linecap:round;stroke-linejoin:round;stroke-miterlimit:4;stroke-dasharray:none;stroke-opacity:1"
       id="path4163"
       cx="-1500"
       cy="-1500"
       r="1435.8459" />
    <g
       id="g4181"
       transform="matrix(28.341375,0,0,28.341375,513.85451,617.06444)">
      <path
         style="fill:#000000;fill-opacity:1"
         d="m 54.173,52.728 c -0.482,0.265 -0.997,0.39 -1.528,0.39 -1.296,0 -2.606,-0.765 -3.326,-2.076 l -6.51,-11.901 -16.815,0 c -0.093,0 -0.186,0 -0.28,-0.015 l -0.141,0 c -2.592,0.095 -4.808,-1.888 -4.98,-4.494 L 19.485,17.724 c -0.171,-2.654 1.842,-4.949 4.498,-5.121 l 0.997,-0.061 c 2.656,-0.174 4.949,1.826 5.123,4.479 l 0.295,4.668 -1.741,0 c -1.312,0 -0.678847,1.524983 -0.678847,2.975983 0,1.453 1.367847,2.300017 2.678847,2.300017 l 0.083,0 0.25,3.763 12.274,0 c 0.467,0 0.905,0.078 1.326,0.218 1.076,0.188 2.092,0.891 2.702,1.999 l 8.086,14.785 c 0.996,1.844 0.466,4.077 -1.205,4.998 z"
         id="path7"
         inkscape:connector-curvature="0"
         sodipodi:nodetypes="csccsccccccccsssccscccc" />
      <g
         style="fill:#000000;fill-opacity:1"
         id="g9">
        <circle
           style="fill:#000000;fill-opacity:1"
           id="circle11"
           r="5.5939999"
           cy="5.6269999"
           cx="24.547001" />
      </g>
      <rect
         style="opacity:1;fill:#000000;fill-opacity:1;stroke:none;stroke-width:51.81600189;stroke-linecap:round;stroke-linejoin:round;stroke-miterlimit:4;stroke-dasharray:none;stroke-opacity:1"
         id="rect4163"
         width="5.4441218"
         height="11.503912"
         x="23.933767"
         y="26.010632"
         ry="0.25162858"
         transform="matrix(0.97166754,-0.23635184,0.06481467,0.99789732,0,0)" />
      <circle
         style="opacity:1;fill:#000000;fill-opacity:1;stroke:none;stroke-width:51.81600189;stroke-linecap:round;stroke-linejoin:round;stroke-miterlimit:4;stroke-dasharray:none;stroke-opacity:1"
         id="path4165"
         cx="29.482756"
         cy="46.502102"
         r="15.772077" />
    </g>
  </g>
</svg>
