<?xml version="1.0" encoding="UTF-8" standalone="no"?>
<!-- Created with Inkscape (http://www.inkscape.org/) -->

<svg
   xmlns:dc="http://purl.org/dc/elements/1.1/"
   xmlns:cc="http://creativecommons.org/ns#"
   xmlns:rdf="http://www.w3.org/1999/02/22-rdf-syntax-ns#"
   xmlns:svg="http://www.w3.org/2000/svg"
   xmlns="http://www.w3.org/2000/svg"
   xmlns:sodipodi="http://sodipodi.sourceforge.net/DTD/sodipodi-0.dtd"
   xmlns:inkscape="http://www.inkscape.org/namespaces/inkscape"
   id="svg2"
   version="1.1"
   inkscape:version="0.91 r13725"
   width="3000"
   height="3000"
   viewBox="0 0 3000 3000"
   sodipodi:docname="CUSTOM VERSION ICON.W+RO.v2.svg"
   inkscape:export-filename="D:\ASUS WEBSTORAGE\R+D\CABS\DEV TEAM\WIREFRAME + PROTOTYPE\CUSTOM ICONS\FINAL CUSTOM LOGOS.v5\FINAL CUSTOM LOGOS.v5.PNG\CUSTOM TOGGLE RIGHT ICON.W+RO.v4.png"
   inkscape:export-xdpi="1.5"
   inkscape:export-ydpi="1.5">
  <metadata
     id="metadata8">
    <rdf:RDF>
      <cc:Work
         rdf:about="">
        <dc:format>image/svg+xml</dc:format>
        <dc:type
           rdf:resource="http://purl.org/dc/dcmitype/StillImage" />
        <dc:title></dc:title>
      </cc:Work>
    </rdf:RDF>
  </metadata>
  <defs
     id="defs6">
    <pattern
       y="0"
       x="0"
       height="6"
       width="6"
       patternUnits="userSpaceOnUse"
       id="EMFhbasepattern" />
  </defs>
  <sodipodi:namedview
     pagecolor="#ffffff"
     bordercolor="#666666"
     borderopacity="1"
     objecttolerance="10"
     gridtolerance="10"
     guidetolerance="10"
     inkscape:pageopacity="0"
     inkscape:pageshadow="2"
     inkscape:window-width="1920"
     inkscape:window-height="1017"
     id="namedview4"
     showgrid="true"
     fit-margin-top="0"
     fit-margin-left="0"
     fit-margin-right="0"
     fit-margin-bottom="0"
     inkscape:zoom="0.13985185"
     inkscape:cx="-1350.6357"
     inkscape:cy="2367.0806"
     inkscape:window-x="-8"
     inkscape:window-y="-8"
     inkscape:window-maximized="1"
     inkscape:current-layer="svg2"
     showguides="true"
     inkscape:guide-bbox="true"
     inkscape:object-nodes="true">
    <inkscape:grid
       type="xygrid"
       id="grid4160"
       originx="140.73122"
       originy="-100.99352" />
    <sodipodi:guide
       position="1500.7313,1499.0064"
       orientation="1,0"
       id="guide4170" />
  </sodipodi:namedview>
  <g
     id="g4184">
    <circle
       inkscape:export-ydpi="1.5"
       inkscape:export-xdpi="1.5"
       inkscape:export-filename="D:\ASUS WEBSTORAGE\R+D\CABS\DEV TEAM\WIREFRAME + PROTOTYPE\CUSTOM ICONS\FINAL CUSTOM LOGOS.v5\FINAL CUSTOM LOGOS.v5.PNG\CUSTOM TERMS ICON.W+RO.v1.png"
       transform="scale(-1,-1)"
       style="fill:#ffffff;fill-opacity:1;stroke:#e8390e;stroke-width:128.30799866;stroke-linecap:round;stroke-linejoin:round;stroke-miterlimit:4;stroke-dasharray:none;stroke-opacity:1"
       id="path4163"
       cx="-1500"
       cy="-1500"
       r="1435.8459" />
    <g
       id="g4151"
       transform="matrix(60.827599,0,0,60.827599,747.75117,618.02415)"
       style="fill:#e8390e;fill-opacity:1;fill-rule:evenodd;stroke:#e8390e;stroke-width:1;stroke-opacity:1">
      <path
         style="fill:#e8390e;fill-opacity:1;stroke:#e8390e;stroke-opacity:1"
         inkscape:connector-curvature="0"
         d="m 6.3364,4.1016 6.132,18.156 6.15,-18.285 c 0.32,-0.961 0.561,-1.629 0.721,-2.004 0.16,-0.376 0.424,-0.714 0.794,-1.016 0.369,-0.302 0.874,-0.453 1.514,-0.453 0.468,0 0.902,0.117 1.302,0.351 0.401,0.234 0.715,0.545 0.942,0.933 0.228,0.388 0.342,0.779 0.342,1.173 0,0.271 -0.037,0.563 -0.111,0.877 -0.074,0.314 -0.166,0.622 -0.277,0.924 -0.111,0.301 -0.221,0.612 -0.332,0.932 l -6.557,17.694 c -0.234,0.678 -0.468,1.321 -0.702,1.93 -0.234,0.61 -0.505,1.146 -0.812,1.607 -0.308,0.462 -0.718,0.841 -1.229,1.136 -0.511,0.296 -1.136,0.443 -1.874,0.443 -0.739,0 -1.364,-0.144 -1.875,-0.434 -0.511,-0.289 -0.924,-0.671 -1.237,-1.145 -0.314,-0.474 -0.588,-1.012 -0.822,-1.616 -0.234,-0.603 -0.468,-1.243 -0.702,-1.921 L 1.2574,5.8376 c -0.111,-0.32 -0.225,-0.634 -0.342,-0.942 -0.117,-0.308 -0.215,-0.64 -0.295,-0.997 -0.08,-0.357 -0.12,-0.659 -0.12,-0.905 0,-0.628 0.252,-1.201 0.757,-1.718 0.505,-0.517 1.139,-0.776 1.902,-0.776 0.936,0 1.598,0.287 1.986,0.859 0.388,0.573 0.785,1.487 1.191,2.743"
         id="Fill-1" />
      <path
         style="fill:#e8390e;fill-opacity:1;stroke:#e8390e;stroke-opacity:1"
         inkscape:connector-curvature="0"
         d="m 6.3364,4.1016 6.132,18.156 6.15,-18.285 c 0.32,-0.961 0.561,-1.629 0.721,-2.004 0.16,-0.376 0.424,-0.714 0.794,-1.016 0.369,-0.302 0.874,-0.453 1.514,-0.453 0.468,0 0.902,0.117 1.302,0.351 0.401,0.234 0.715,0.545 0.942,0.933 0.228,0.388 0.342,0.779 0.342,1.173 0,0.271 -0.037,0.563 -0.111,0.877 -0.074,0.314 -0.166,0.622 -0.277,0.924 -0.111,0.301 -0.221,0.612 -0.332,0.932 l -6.557,17.694 c -0.234,0.678 -0.468,1.321 -0.702,1.93 -0.234,0.61 -0.505,1.146 -0.812,1.607 -0.308,0.462 -0.718,0.841 -1.229,1.136 -0.511,0.296 -1.136,0.443 -1.874,0.443 -0.739,0 -1.364,-0.144 -1.875,-0.434 -0.511,-0.289 -0.924,-0.671 -1.237,-1.145 -0.314,-0.474 -0.588,-1.012 -0.822,-1.616 -0.234,-0.603 -0.468,-1.243 -0.702,-1.921 L 1.2574,5.8376 c -0.111,-0.32 -0.225,-0.634 -0.342,-0.942 -0.117,-0.308 -0.215,-0.64 -0.295,-0.997 -0.08,-0.357 -0.12,-0.659 -0.12,-0.905 0,-0.628 0.252,-1.201 0.757,-1.718 0.505,-0.517 1.139,-0.776 1.902,-0.776 0.936,0 1.598,0.287 1.986,0.859 0.388,0.573 0.785,1.487 1.191,2.743 l 0,0 z"
         id="Stroke-3" />
    </g>
  </g>
</svg>
