<?xml version="1.0" encoding="UTF-8" standalone="no"?>
<!-- Created with Inkscape (http://www.inkscape.org/) -->

<svg
   xmlns:dc="http://purl.org/dc/elements/1.1/"
   xmlns:cc="http://creativecommons.org/ns#"
   xmlns:rdf="http://www.w3.org/1999/02/22-rdf-syntax-ns#"
   xmlns:svg="http://www.w3.org/2000/svg"
   xmlns="http://www.w3.org/2000/svg"
   xmlns:sodipodi="http://sodipodi.sourceforge.net/DTD/sodipodi-0.dtd"
   xmlns:inkscape="http://www.inkscape.org/namespaces/inkscape"
   id="svg2"
   version="1.1"
   inkscape:version="0.91 r13725"
   width="3000"
   height="3000"
   viewBox="0 0 3000 3000"
   sodipodi:docname="CUSTOM SORT LIST FORMAT.RO.v11.svg"
   inkscape:export-filename="D:\ASUS WEBSTORAGE\R+D\CABS\DEV TEAM\WIREFRAME + PROTOTYPE\CUSTOM ICONS\CUSTOM SORT LIST FORMAT.v8.png"
   inkscape:export-xdpi="1.2830818"
   inkscape:export-ydpi="1.2830818">
  <metadata
     id="metadata8">
    <rdf:RDF>
      <cc:Work
         rdf:about="">
        <dc:format>image/svg+xml</dc:format>
        <dc:type
           rdf:resource="http://purl.org/dc/dcmitype/StillImage" />
        <dc:title></dc:title>
      </cc:Work>
    </rdf:RDF>
  </metadata>
  <defs
     id="defs6" />
  <sodipodi:namedview
     pagecolor="#ffffff"
     bordercolor="#666666"
     borderopacity="1"
     objecttolerance="10"
     gridtolerance="10"
     guidetolerance="10"
     inkscape:pageopacity="0"
     inkscape:pageshadow="2"
     inkscape:window-width="1920"
     inkscape:window-height="1017"
     id="namedview4"
     showgrid="false"
     fit-margin-top="0"
     fit-margin-left="0"
     fit-margin-right="0"
     fit-margin-bottom="0"
     inkscape:zoom="0.19778039"
     inkscape:cx="802.31584"
     inkscape:cy="1451.5145"
     inkscape:window-x="-8"
     inkscape:window-y="-8"
     inkscape:window-maximized="1"
     inkscape:current-layer="svg2" />
  <g
     id="g4159">
    <circle
       style="fill:#ffffff;fill-opacity:1;stroke:#e8390e;stroke-width:128.3081665;stroke-linecap:round;stroke-linejoin:round;stroke-miterlimit:4;stroke-dasharray:none;stroke-opacity:1"
       id="path4163"
       cx="1500"
       cy="1500"
       r="1435.8459" />
    <g
       style="fill:#e8390e;fill-opacity:1;stroke:#e8390e;stroke-opacity:1"
       transform="matrix(0.77767913,0,0,0.85538781,197.30359,69.417523)"
       id="g4180">
      <path
         inkscape:connector-curvature="0"
         id="path4149"
         d="m 1630.3888,2124.6873 0,-83.25 944.6276,0 335.4554,0 0,83.25 0,83.25 -335.4554,0 -944.6276,0 z"
         style="fill:#e8390e;fill-opacity:1;stroke:#e8390e;stroke-opacity:1" />
      <path
         inkscape:connector-curvature="0"
         id="path4145"
         d="m 1630.3888,1681.4373 0,-81 944.6276,0 335.4554,0 0,81 0,81 -335.4554,0 -944.6276,0 z"
         style="fill:#e8390e;fill-opacity:1;stroke:#e8390e;stroke-opacity:1" />
      <path
         inkscape:connector-curvature="0"
         id="path4138"
         d="m 1630.3888,1220.1873 0,-83.25 944.6276,0 335.4554,0 0,83.25 0,83.25 -335.4554,0 -944.6276,0 z"
         style="fill:#e8390e;fill-opacity:1;stroke:#e8390e;stroke-opacity:1" />
    </g>
    <g
       style="fill:#e8390e;fill-opacity:1;stroke:#e8390e;stroke-opacity:1"
       transform="matrix(0.85538781,0,0,0.85538781,140.43796,64.535053)"
       id="g4171">
      <circle
         r="60.778603"
         cy="1222.4415"
         cx="1192.8535"
         id="path4148"
         style="fill:#e8390e;fill-opacity:1;stroke:#e8390e;stroke-width:175;stroke-linecap:round;stroke-linejoin:round;stroke-miterlimit:4;stroke-dasharray:none;stroke-opacity:1" />
      <circle
         r="60.778603"
         cy="1684.1453"
         cx="1192.8535"
         id="path4148-4"
         style="fill:#e8390e;fill-opacity:1;stroke:#e8390e;stroke-width:175;stroke-linecap:round;stroke-linejoin:round;stroke-miterlimit:4;stroke-dasharray:none;stroke-opacity:1" />
      <circle
         r="60.778603"
         cy="2133.8489"
         cx="1192.8535"
         id="path4148-4-5"
         style="fill:#e8390e;fill-opacity:1;stroke:#e8390e;stroke-width:175;stroke-linecap:round;stroke-linejoin:round;stroke-miterlimit:4;stroke-dasharray:none;stroke-opacity:1" />
    </g>
    <g
       style="fill:#e8390e;fill-opacity:1;stroke:#e8390e;stroke-opacity:1"
       id="g8257"
       transform="matrix(3.6867241,0,0,9.7760605,304.3999,786.34759)">
      <path
         style="fill:#e8390e;fill-opacity:1;stroke:#e8390e;stroke-opacity:1"
         inkscape:connector-curvature="0"
         d="m 71.5,62.571 73,0 c 1.412,0 2.635,-0.516 3.666,-1.548 1.031,-1.032 1.549,-2.254 1.549,-3.666 0,-1.412 -0.518,-2.634 -1.549,-3.667 l -36.5,-36.5 c -1.031,-1.031 -2.253,-1.548 -3.666,-1.548 -1.413,0 -2.635,0.517 -3.667,1.548 l -36.5,36.5 c -1.032,1.032 -1.548,2.255 -1.548,3.667 0,1.412 0.516,2.634 1.548,3.666 1.033,1.032 2.255,1.548 3.667,1.548 z"
         id="path8117" />
      <path
         style="fill:#e8390e;fill-opacity:1;stroke:#e8390e;stroke-opacity:1"
         inkscape:connector-curvature="0"
         d="m 144.5,83.43 -73,0 c -1.413,0 -2.635,0.516 -3.667,1.547 -1.032,1.032 -1.548,2.254 -1.548,3.666 0,1.412 0.516,2.635 1.548,3.666 l 36.5,36.5 c 1.033,1.032 2.255,1.549 3.667,1.549 1.412,0 2.635,-0.517 3.666,-1.549 l 36.5,-36.5 c 1.031,-1.031 1.549,-2.254 1.549,-3.666 0,-1.412 -0.518,-2.634 -1.549,-3.666 -1.031,-1.032 -2.254,-1.547 -3.666,-1.547 z"
         id="path8119" />
    </g>
  </g>
</svg>
