<?xml version="1.0" encoding="UTF-8" standalone="no"?>
<!-- Created with Inkscape (http://www.inkscape.org/) -->

<svg
   xmlns:dc="http://purl.org/dc/elements/1.1/"
   xmlns:cc="http://creativecommons.org/ns#"
   xmlns:rdf="http://www.w3.org/1999/02/22-rdf-syntax-ns#"
   xmlns:svg="http://www.w3.org/2000/svg"
   xmlns="http://www.w3.org/2000/svg"
   xmlns:sodipodi="http://sodipodi.sourceforge.net/DTD/sodipodi-0.dtd"
   xmlns:inkscape="http://www.inkscape.org/namespaces/inkscape"
   id="svg2"
   version="1.1"
   inkscape:version="0.91 r13725"
   width="3000"
   height="3000"
   viewBox="0 0 3000 3000"
   sodipodi:docname="CUSTOM EXPLORER FORMAT ICON.RO.v6.svg"
   inkscape:export-filename="D:\ASUS WEBSTORAGE\R+D\CABS\DEV TEAM\WIREFRAME + PROTOTYPE\CUSTOM ICONS\CUSTOM LIST FORMAT.s2.v8.png"
   inkscape:export-xdpi="1.5"
   inkscape:export-ydpi="1.5">
  <metadata
     id="metadata8">
    <rdf:RDF>
      <cc:Work
         rdf:about="">
        <dc:format>image/svg+xml</dc:format>
        <dc:type
           rdf:resource="http://purl.org/dc/dcmitype/StillImage" />
        <dc:title></dc:title>
      </cc:Work>
    </rdf:RDF>
  </metadata>
  <defs
     id="defs6">
    <pattern
       y="0"
       x="0"
       height="6"
       width="6"
       patternUnits="userSpaceOnUse"
       id="EMFhbasepattern" />
  </defs>
  <sodipodi:namedview
     pagecolor="#ffffff"
     bordercolor="#666666"
     borderopacity="1"
     objecttolerance="10"
     gridtolerance="10"
     guidetolerance="10"
     inkscape:pageopacity="0"
     inkscape:pageshadow="2"
     inkscape:window-width="1920"
     inkscape:window-height="1017"
     id="namedview4"
     showgrid="false"
     fit-margin-top="0"
     fit-margin-left="0"
     fit-margin-right="0"
     fit-margin-bottom="0"
     inkscape:zoom="0.13985185"
     inkscape:cx="75.873847"
     inkscape:cy="1456.5962"
     inkscape:window-x="-8"
     inkscape:window-y="-8"
     inkscape:window-maximized="1"
     inkscape:current-layer="svg2" />
  <g
     id="g4148">
    <circle
       style="fill:#ffffff;fill-opacity:1;stroke:#e8390e;stroke-width:128.3081665;stroke-linecap:round;stroke-linejoin:round;stroke-miterlimit:4;stroke-dasharray:none;stroke-opacity:1"
       id="path4163"
       cx="1500"
       cy="1500"
       r="1435.8459" />
    <g
       style="fill:#e8390e;fill-opacity:1;stroke:#e8390e;stroke-opacity:1"
       transform="translate(-2.6448975,-7.364502)"
       id="g4167">
      <path
         inkscape:connector-curvature="0"
         style="fill:#e8390e;fill-opacity:1;stroke:#e8390e;stroke-opacity:1"
         d="m 706.08328,1950.2753 c -105.6739,-52.1122 -103.01428,-193.2002 4.60462,-244.2685 31.24266,-14.8257 70.22002,-22.698 86.61634,-17.494 30.60143,9.7125 166.5779,-104.4118 329.30976,-276.388 62.0855,-65.6122 75.7517,-91.1667 76.5878,-143.2097 1.7814,-110.8827 96.4188,-179.6599 200.1195,-145.4353 67.5126,22.2809 102.7057,90.8434 91.4761,178.2111 -6.8426,53.2364 0.4138,66.6049 76.527,140.9906 74.3594,72.6715 92.6531,82.4136 158.1454,84.2192 72.0293,1.9857 77.8418,-1.7841 212.0879,-137.5489 129.3673,-130.8309 137.8648,-143.7083 135.4123,-205.2103 -2.1901,-54.9142 6.0514,-73.365 50.5145,-113.0928 59.4563,-53.1242 98.3727,-58.6503 166.1628,-23.5947 56.2139,29.0693 89.6048,102.9154 74.2317,164.1672 -12.9481,51.5886 -93.7206,107.6411 -155.2444,107.7324 -29.2565,0.042 -85.7861,41.4364 -192.4721,140.9347 -135.4645,126.3384 -150.0994,145.6242 -141.8408,186.9179 14.1196,70.5974 -67.8516,155.4131 -150.2011,155.4131 -83.9116,0 -164.335,-84.743 -149.7293,-157.7711 8.5177,-42.5891 -1.9484,-60.1037 -87.1432,-145.8289 -139.5915,-140.4609 -147.3238,-138.7277 -384.8609,86.2624 -164.73759,156.036 -192.48467,189.4598 -184.31224,222.0213 14.01067,55.8233 -31.02528,130.1839 -91.64305,151.3152 -64.78982,22.5859 -61.13282,22.8313 -124.34863,-8.3429 z"
         id="path4174" />
      <circle
         style="fill:#e8390e;fill-opacity:1;stroke:#e8390e;stroke-width:50;stroke-linecap:round;stroke-linejoin:round;stroke-miterlimit:4;stroke-dasharray:none;stroke-opacity:1"
         id="path4136"
         cx="779.948"
         cy="1834.5659"
         r="151.6834" />
      <circle
         style="fill:#e8390e;fill-opacity:1;stroke:#e8390e;stroke-width:50;stroke-linecap:round;stroke-linejoin:round;stroke-miterlimit:4;stroke-dasharray:none;stroke-opacity:1"
         id="path4136-3"
         cx="1337.2498"
         cy="1275.8264"
         r="151.6834" />
      <circle
         style="fill:#e8390e;fill-opacity:1;stroke:#e8390e;stroke-width:50;stroke-linecap:round;stroke-linejoin:round;stroke-miterlimit:4;stroke-dasharray:none;stroke-opacity:1"
         id="path4136-5"
         cx="1739.3419"
         cy="1672.1631"
         r="151.6834" />
      <circle
         style="fill:#e8390e;fill-opacity:1;stroke:#e8390e;stroke-width:50;stroke-linecap:round;stroke-linejoin:round;stroke-miterlimit:4;stroke-dasharray:none;stroke-opacity:1"
         id="path4136-7"
         cx="2225.3418"
         cy="1180.1631"
         r="151.6834" />
    </g>
  </g>
</svg>
