<?xml version="1.0" encoding="UTF-8" standalone="no"?>
<!-- Created with Inkscape (http://www.inkscape.org/) -->

<svg
   xmlns:dc="http://purl.org/dc/elements/1.1/"
   xmlns:cc="http://creativecommons.org/ns#"
   xmlns:rdf="http://www.w3.org/1999/02/22-rdf-syntax-ns#"
   xmlns:svg="http://www.w3.org/2000/svg"
   xmlns="http://www.w3.org/2000/svg"
   xmlns:xlink="http://www.w3.org/1999/xlink"
   xmlns:sodipodi="http://sodipodi.sourceforge.net/DTD/sodipodi-0.dtd"
   xmlns:inkscape="http://www.inkscape.org/namespaces/inkscape"
   id="svg2"
   version="1.1"
   inkscape:version="0.91 r13725"
   xml:space="preserve"
   width="3000"
   height="2697.926"
   viewBox="0 0 3000 2697.926"
   sodipodi:docname="CUSTOM_MOOKY_MAIN LOGO_ON WHITE to CLEAR.v3.svg"><metadata
     id="metadata8"><rdf:RDF><cc:Work
         rdf:about=""><dc:format>image/svg+xml</dc:format><dc:type
           rdf:resource="http://purl.org/dc/dcmitype/StillImage" /><dc:title></dc:title></cc:Work></rdf:RDF></metadata><defs
     id="defs6"><linearGradient
       inkscape:collect="always"
       id="linearGradient5675"><stop
         style="stop-color:#000000;stop-opacity:1;"
         offset="0"
         id="stop5677" /><stop
         style="stop-color:#000000;stop-opacity:0;"
         offset="1"
         id="stop5679" /></linearGradient><linearGradient
       id="linearGradient5652"
       spreadMethod="pad"
       gradientTransform="matrix(-1.9693099,26.068506,26.068506,1.9693099,251.19077,591.11542)"
       gradientUnits="userSpaceOnUse"
       y2="0"
       x2="1"
       y1="0"
       x1="0"><stop
         style="stop-opacity:1;stop-color:#e8390e"
         offset="0"
         id="stop5662" /><stop
         style="stop-opacity:1;stop-color:#e8390e"
         offset="0.076102"
         id="stop5660" /><stop
         style="stop-opacity:1;stop-color:#ff8806"
         offset="0.81088833"
         id="stop5658" /><stop
         style="stop-opacity:1;stop-color:#ff8806"
         offset="0.89231"
         id="stop5656" /><stop
         style="stop-opacity:1;stop-color:#ff8806"
         offset="1"
         id="stop5654" /></linearGradient><clipPath
       clipPathUnits="userSpaceOnUse"
       id="clipPath16"><path
         d="M 0,792 612,792 612,0 0,0 0,792 Z"
         id="path18"
         inkscape:connector-curvature="0" /></clipPath><linearGradient
       x1="0"
       y1="0"
       x2="1"
       y2="0"
       gradientUnits="userSpaceOnUse"
       gradientTransform="matrix(0,393.19965,393.19965,0,304.90164,299.28809)"
       spreadMethod="pad"
       id="linearGradient56"><stop
         style="stop-opacity:1;stop-color:#ff8806"
         offset="0"
         id="stop58" /><stop
         style="stop-opacity:1;stop-color:#ff8806"
         offset="0.531726"
         id="stop60" /><stop
         style="stop-opacity:1;stop-color:#ff8806"
         offset="0.56393623"
         id="stop62" /><stop
         style="stop-opacity:1;stop-color:#e8390e"
         offset="0.854616"
         id="stop64" /><stop
         style="stop-opacity:1;stop-color:#e8390e"
         offset="1"
         id="stop66" /></linearGradient><clipPath
       clipPathUnits="userSpaceOnUse"
       id="clipPath74"><path
         d="M 0,792 612,792 612,0 0,0 0,792 Z"
         id="path76"
         inkscape:connector-curvature="0" /></clipPath><clipPath
       clipPathUnits="userSpaceOnUse"
       id="clipPath82"><path
         d="m 168.583,380.796 292.015,0 0,-39.338 -292.015,0 0,39.338 z"
         id="path84"
         inkscape:connector-curvature="0" /></clipPath><clipPath
       clipPathUnits="userSpaceOnUse"
       id="clipPath98"><path
         d="m 111.138,692.488 387.527,0 0,-183.456 -387.527,0 0,183.456 z"
         id="path100"
         inkscape:connector-curvature="0" /></clipPath><clipPath
       clipPathUnits="userSpaceOnUse"
       id="clipPath114"><path
         d="m 132.604,534.86 70.834,0 0,-24.397 -70.834,0 0,24.397 z"
         id="path116"
         inkscape:connector-curvature="0" /></clipPath><clipPath
       clipPathUnits="userSpaceOnUse"
       id="clipPath130"><path
         d="m 417.412,555.583 71.487,0 0,-23.278 -71.487,0 0,23.278 z"
         id="path132"
         inkscape:connector-curvature="0" /></clipPath><clipPath
       clipPathUnits="userSpaceOnUse"
       id="clipPath146"><path
         d="m 253.453,349.648 132.319,0 0,-32.898 -132.319,0 0,32.898 z"
         id="path148"
         inkscape:connector-curvature="0" /></clipPath><clipPath
       clipPathUnits="userSpaceOnUse"
       id="clipPath218"><path
         d="m 148.5,752.333 0,-240.657 306.875,23.481 0,217.176 -306.875,0 z"
         id="path220"
         inkscape:connector-curvature="0" /></clipPath><linearGradient
       x1="0"
       y1="0"
       x2="1"
       y2="0"
       gradientUnits="userSpaceOnUse"
       gradientTransform="matrix(-1.682582,22.27298,22.27298,1.682582,327.72028,600.75531)"
       spreadMethod="pad"
       id="linearGradient274"><stop
         style="stop-opacity:1;stop-color:#ff8806"
         offset="0"
         id="stop276" /><stop
         style="stop-opacity:1;stop-color:#ff8806"
         offset="0.10769"
         id="stop278" /><stop
         style="stop-opacity:1;stop-color:#ff8806"
         offset="0.18911167"
         id="stop280" /><stop
         style="stop-opacity:1;stop-color:#e8390e"
         offset="0.923898"
         id="stop282" /><stop
         style="stop-opacity:1;stop-color:#e8390e"
         offset="1"
         id="stop284" /></linearGradient><linearGradient
       x1="0"
       y1="0"
       x2="1"
       y2="0"
       gradientUnits="userSpaceOnUse"
       gradientTransform="matrix(-1.9693099,26.068506,26.068506,1.9693099,251.19077,591.11542)"
       spreadMethod="pad"
       id="linearGradient300"><stop
         style="stop-opacity:1;stop-color:#ff8806"
         offset="0"
         id="stop302" /><stop
         style="stop-opacity:1;stop-color:#ff8806"
         offset="0.10769"
         id="stop304" /><stop
         style="stop-opacity:1;stop-color:#ff8806"
         offset="0.18911167"
         id="stop306" /><stop
         style="stop-opacity:1;stop-color:#e8390e"
         offset="0.923898"
         id="stop308" /><stop
         style="stop-opacity:1;stop-color:#e8390e"
         offset="1"
         id="stop310" /></linearGradient><clipPath
       clipPathUnits="userSpaceOnUse"
       id="clipPath318"><path
         d="M 0,792 612,792 612,0 0,0 0,792 Z"
         id="path320"
         inkscape:connector-curvature="0" /></clipPath><clipPath
       clipPathUnits="userSpaceOnUse"
       id="clipPath452"><path
         d="M 0,792 612,792 612,0 0,0 0,792 Z"
         id="path454"
         inkscape:connector-curvature="0" /></clipPath><linearGradient
       inkscape:collect="always"
       xlink:href="#linearGradient5675"
       id="linearGradient5650"
       x1="444.40149"
       y1="1039.5"
       x2="424.2659"
       y2="196.32205"
       gradientUnits="userSpaceOnUse"
       spreadMethod="reflect" /><linearGradient
       inkscape:collect="always"
       xlink:href="#linearGradient5675"
       id="linearGradient5870"
       gradientUnits="userSpaceOnUse"
       spreadMethod="reflect"
       x1="444.40149"
       y1="1039.5"
       x2="424.2659"
       y2="196.32205" /><linearGradient
       inkscape:collect="always"
       xlink:href="#linearGradient5675"
       id="linearGradient5872"
       gradientUnits="userSpaceOnUse"
       spreadMethod="reflect"
       x1="444.40149"
       y1="1039.5"
       x2="424.2659"
       y2="196.32205" /><linearGradient
       inkscape:collect="always"
       xlink:href="#linearGradient5675"
       id="linearGradient5874"
       gradientUnits="userSpaceOnUse"
       spreadMethod="reflect"
       x1="444.40149"
       y1="1039.5"
       x2="424.2659"
       y2="196.32205" /><linearGradient
       inkscape:collect="always"
       xlink:href="#linearGradient5675"
       id="linearGradient5876"
       gradientUnits="userSpaceOnUse"
       spreadMethod="reflect"
       x1="444.40149"
       y1="1039.5"
       x2="424.2659"
       y2="196.32205" /><linearGradient
       inkscape:collect="always"
       xlink:href="#linearGradient5675"
       id="linearGradient5878"
       gradientUnits="userSpaceOnUse"
       spreadMethod="reflect"
       x1="444.40149"
       y1="1039.5"
       x2="424.2659"
       y2="196.32205" /><linearGradient
       inkscape:collect="always"
       xlink:href="#linearGradient5675"
       id="linearGradient4697"
       x1="428.52911"
       y1="542.20715"
       x2="488.89828"
       y2="543.94421"
       gradientUnits="userSpaceOnUse"
       spreadMethod="reflect" /><linearGradient
       inkscape:collect="always"
       xlink:href="#linearGradient5675"
       id="linearGradient4699"
       x1="142.67892"
       y1="520.92444"
       x2="203.438"
       y2="522.6615"
       gradientUnits="userSpaceOnUse"
       spreadMethod="reflect" /></defs><sodipodi:namedview
     pagecolor="#ffffff"
     bordercolor="#666666"
     borderopacity="1"
     objecttolerance="10"
     gridtolerance="10"
     guidetolerance="10"
     inkscape:pageopacity="0"
     inkscape:pageshadow="2"
     inkscape:window-width="1920"
     inkscape:window-height="1017"
     id="namedview4"
     showgrid="false"
     fit-margin-top="0"
     fit-margin-left="0"
     fit-margin-right="0"
     fit-margin-bottom="0"
     inkscape:zoom="0.23838384"
     inkscape:cx="1369.7559"
     inkscape:cy="1529.2496"
     inkscape:window-x="-8"
     inkscape:window-y="-8"
     inkscape:window-maximized="1"
     inkscape:current-layer="g5730" /><g
     id="g10"
     inkscape:groupmode="layer"
     inkscape:label="MOOKY_MAIN LOGO_ON WHITE"
     transform="matrix(1.25,0,0,-1.25,1117.5,1843.963)"><g
       id="g5884"><g
         transform="matrix(4.8299162,0,0,4.8299162,-1177.2966,-2017.3401)"
         id="g5730"><g
           id="g4707"><g
             id="g14"
             clip-path="url(#clipPath16)"><g
               id="g20"
               transform="translate(251.0427,694.2233)"><path
                 d="m 0,0 c 3.804,3.328 7.9,6.502 12.275,9.487 5.31,3.623 11.014,6.964 17.059,10.038 -46.612,-5.689 -90.117,-26.169 -124.623,-59.089 -40.553,-38.687 -64.609,-90.648 -67.739,-146.311 -0.019,-0.329 0.106,-0.651 0.342,-0.882 0.214,-0.21 0.502,-0.327 0.801,-0.327 0.029,0 11.234,0.856 11.234,0.856 0.569,0.044 1.019,0.499 1.055,1.069 C -143.966,-96.316 -82.035,-23.291 0,0"
                 style="fill:#000000;fill-opacity:1;fill-rule:nonzero;stroke:none"
                 id="path22"
                 inkscape:connector-curvature="0" /></g><g
               id="g24"
               transform="translate(251.0427,694.2233)"><path
                 d="m 0,0 c 3.804,3.328 7.9,6.502 12.275,9.487 5.31,3.623 11.014,6.964 17.059,10.038 -46.612,-5.689 -90.117,-26.169 -124.623,-59.089 -40.553,-38.687 -64.609,-90.648 -67.739,-146.311 -0.019,-0.329 0.106,-0.651 0.342,-0.882 0.214,-0.21 0.502,-0.327 0.801,-0.327 0.029,0 11.234,0.856 11.234,0.856 0.569,0.044 1.019,0.499 1.055,1.069 C -143.966,-96.316 -82.035,-23.291 0,0 Z"
                 style="fill:none;stroke:#000000;stroke-width:0.336;stroke-linecap:butt;stroke-linejoin:miter;stroke-miterlimit:10;stroke-dasharray:none;stroke-opacity:1"
                 id="path26"
                 inkscape:connector-curvature="0" /></g><g
               id="g28"
               transform="translate(307.154,715.3776)"><path
                 d="m 0,0 c -0.955,0 -1.907,-0.022 -2.86,-0.034 l -7.525,-13.581 c 3.442,0.172 6.904,0.262 10.385,0.262 47.363,0 93.647,-16.531 130.33,-46.549 35.887,-29.368 61.101,-70.305 70.996,-115.268 0.116,-0.529 0.584,-0.899 1.116,-0.899 0.03,0 11.237,0.856 11.237,0.856 0.33,0.026 0.632,0.191 0.829,0.455 0.199,0.265 0.272,0.602 0.204,0.924 C 193.319,-73.108 103.019,0 0,0"
                 style="fill:#000000;fill-opacity:1;fill-rule:nonzero;stroke:none"
                 id="path30"
                 inkscape:connector-curvature="0" /></g><g
               id="g32"
               transform="translate(307.154,715.3776)"><path
                 d="m 0,0 c -0.955,0 -1.907,-0.022 -2.86,-0.034 l -7.525,-13.581 c 3.442,0.172 6.904,0.262 10.385,0.262 47.363,0 93.647,-16.531 130.33,-46.549 35.887,-29.368 61.101,-70.305 70.996,-115.268 0.116,-0.529 0.584,-0.899 1.116,-0.899 0.03,0 11.237,0.856 11.237,0.856 0.33,0.026 0.632,0.191 0.829,0.455 0.199,0.265 0.272,0.602 0.204,0.924 C 193.319,-73.108 103.019,0 0,0 Z"
                 style="fill:none;stroke:#000000;stroke-width:0.336;stroke-linecap:butt;stroke-linejoin:miter;stroke-miterlimit:10;stroke-dasharray:none;stroke-opacity:1"
                 id="path34"
                 inkscape:connector-curvature="0" /></g><g
               id="g36"
               transform="translate(487.5104,374.1584)"><path
                 d="m 0,0 c -0.143,0 -0.289,-0.027 -0.427,-0.083 -3.47,-1.398 -7.214,-2.253 -11.13,-2.54 -0.907,-0.067 -1.804,-0.1 -2.669,-0.1 -0.43,0 -0.858,0.012 -1.288,0.033 -0.018,0.002 -0.038,0.002 -0.056,0.002 -0.357,0 -0.693,-0.165 -0.91,-0.45 -18.8,-24.612 -43.271,-45.016 -70.767,-59.005 -29.042,-14.774 -60.37,-22.264 -93.109,-22.264 -57.929,0 -113.561,24.689 -152.63,67.736 -0.219,0.24 -0.527,0.376 -0.848,0.376 -0.029,0 -13.85,-1.056 -13.85,-1.056 -0.428,-0.033 -0.801,-0.303 -0.968,-0.698 -0.166,-0.396 -0.098,-0.851 0.179,-1.18 41.903,-49.908 103.178,-78.531 168.117,-78.531 72.484,0 140.259,35.877 181.301,95.97 0.285,0.416 0.263,0.969 -0.053,1.362 C 0.67,-0.151 0.339,0 0,0"
                 style="fill:#000000;fill-opacity:1;fill-rule:nonzero;stroke:none"
                 id="path38"
                 inkscape:connector-curvature="0" /></g><g
               id="g40"
               transform="translate(487.5104,374.1584)"><path
                 d="m 0,0 c -0.143,0 -0.289,-0.027 -0.427,-0.083 -3.47,-1.398 -7.214,-2.253 -11.13,-2.54 -0.907,-0.067 -1.804,-0.1 -2.669,-0.1 -0.43,0 -0.858,0.012 -1.288,0.033 -0.018,0.002 -0.038,0.002 -0.056,0.002 -0.357,0 -0.693,-0.165 -0.91,-0.45 -18.8,-24.612 -43.271,-45.016 -70.767,-59.005 -29.042,-14.774 -60.37,-22.264 -93.109,-22.264 -57.929,0 -113.561,24.689 -152.63,67.736 -0.219,0.24 -0.527,0.376 -0.848,0.376 -0.029,0 -13.85,-1.056 -13.85,-1.056 -0.428,-0.033 -0.801,-0.303 -0.968,-0.698 -0.166,-0.396 -0.098,-0.851 0.179,-1.18 41.903,-49.908 103.178,-78.531 168.117,-78.531 72.484,0 140.259,35.877 181.301,95.97 0.285,0.416 0.263,0.969 -0.053,1.362 C 0.67,-0.151 0.339,0 0,0 Z"
                 style="fill:none;stroke:#000000;stroke-width:0.336;stroke-linecap:butt;stroke-linejoin:miter;stroke-miterlimit:10;stroke-dasharray:none;stroke-opacity:1"
                 id="path42"
                 inkscape:connector-curvature="0" /></g></g><g
             id="g46"><g
               id="g52"><g
                 id="g54"><path
                   d="M 173.596,639.982 C 137.083,606.15 114.903,560.35 111.144,511.022 l 0,0 c -0.043,-0.556 0.159,-1.101 0.553,-1.494 l 0,0 c 0.358,-0.359 0.844,-0.559 1.348,-0.559 l 0,0 c 0.049,0 0.098,0.002 0.146,0.006 l 0,0 383.713,29.36 c 0.554,0.042 1.063,0.326 1.392,0.774 l 0,0 c 0.329,0.449 0.446,1.019 0.319,1.561 l 0,0 c -9.821,42.124 -33.813,80.429 -67.557,107.858 l 0,0 c -34.872,28.348 -78.875,43.96 -123.904,43.96 l 0,0 c -49.584,0 -97.015,-18.647 -133.558,-52.506 M 453.278,380.79 170.346,359.141 c -0.746,-0.056 -1.389,-0.544 -1.646,-1.245 l 0,0 c -0.258,-0.702 -0.081,-1.489 0.45,-2.014 l 0,0 c 36.982,-36.495 85.993,-56.594 138.004,-56.594 l 0,0 c 59.707,0 115.481,26.677 153.02,73.188 l 0,0 c 0.337,0.416 0.483,0.956 0.403,1.485 l 0,0 c -0.08,0.529 -0.38,1.001 -0.826,1.298 l 0,0 c -1.92,1.286 -3.516,2.864 -4.743,4.692 l 0,0 c -0.357,0.53 -0.952,0.844 -1.584,0.844 l 0,0 c -0.049,0 -0.098,-0.001 -0.146,-0.005"
                   style="fill:url(#linearGradient56);stroke:none"
                   id="path68"
                   inkscape:connector-curvature="0" /></g></g></g><g
             style="fill:#e86b0e;fill-opacity:1"
             id="g78"><g
               style="fill:#e86b0e;fill-opacity:1"
               id="g80" /><g
               style="fill:#e86b0e;fill-opacity:1"
               id="g86"><g
                 style="fill:#e86b0e;fill-opacity:1"
                 id="g88"
                 clip-path="url(#clipPath82)"><g
                   style="fill:#e86b0e;fill-opacity:1"
                   id="g90"
                   transform="translate(459.7511,375.2591)"><path
                     inkscape:connector-curvature="0"
                     id="path92"
                     style="fill:#e86b0e;fill-opacity:1;fill-rule:nonzero;stroke:none"
                     d="m 0,0 c -1.92,1.285 -3.516,2.864 -4.743,4.692 -0.356,0.53 -0.952,0.844 -1.584,0.844 -0.049,0 -0.097,-0.002 -0.146,-0.005 l -282.933,-21.649 c -0.745,-0.056 -1.388,-0.544 -1.645,-1.245 -0.258,-0.702 -0.081,-1.489 0.451,-2.014 5.209,-5.141 10.665,-9.945 16.327,-14.424 l 265.379,20.305 c 3.212,3.448 6.329,7.01 9.317,10.713 0.337,0.417 0.483,0.955 0.402,1.485 C 0.745,-0.769 0.446,-0.298 0,0" /></g></g></g></g><g
             style="fill:url(#linearGradient5650);fill-opacity:1"
             transform="translate(1.0985,0)"
             id="g94"><g
               style="fill:url(#linearGradient5870);fill-opacity:1"
               id="g96" /><g
               style="fill:url(#linearGradient5878);fill-opacity:1"
               id="g102"><g
                 style="fill:url(#linearGradient5876);fill-opacity:1"
                 id="g104"
                 clip-path="url(#clipPath98)"><g
                   style="fill:url(#linearGradient5874);fill-opacity:1"
                   id="g106"
                   transform="translate(362.7026,664.574)"><path
                     inkscape:connector-curvature="0"
                     id="path108"
                     style="fill:url(#linearGradient5872);fill-opacity:1;fill-rule:nonzero;stroke:none"
                     d="M 0,0 C -1.284,1.798 -2.575,3.414 -3.845,4.893 -2.549,4.541 -1.257,4.176 0.028,3.798 0.186,2.545 0.17,1.271 0,0 M 135.912,-123.904 C 126.092,-81.78 102.099,-43.475 68.355,-16.046 38.29,8.395 1.436,23.357 -37.01,27.021 l -0.002,0 c -1.517,0.144 -3.036,0.272 -4.557,0.381 -0.03,0.003 -0.059,0.005 -0.088,0.007 -1.426,0.102 -2.853,0.188 -4.282,0.259 -0.144,0.007 -0.289,0.016 -0.433,0.023 -1.303,0.061 -2.606,0.108 -3.911,0.143 -0.247,0.007 -0.493,0.018 -0.741,0.024 -1.507,0.035 -3.015,0.056 -4.525,0.056 -1.514,0 -3.026,-0.019 -4.536,-0.054 -0.812,-0.018 -1.622,-0.054 -2.432,-0.083 -0.683,-0.024 -1.367,-0.041 -2.049,-0.072 -1.106,-0.051 -2.209,-0.12 -3.312,-0.189 -0.375,-0.024 -0.751,-0.04 -1.126,-0.066 -1.288,-0.088 -2.573,-0.195 -3.857,-0.308 -0.18,-0.016 -0.362,-0.028 -0.542,-0.044 -1.398,-0.128 -2.793,-0.273 -4.186,-0.43 -0.063,-0.007 -0.126,-0.013 -0.189,-0.02 -41.395,-4.705 -80.29,-22.482 -111.328,-51.24 -36.514,-33.832 -58.693,-79.632 -62.453,-128.96 -0.043,-0.555 0.16,-1.101 0.553,-1.494 0.281,-0.281 0.648,-0.43 1.032,-0.496 11.199,74.961 64.716,136.083 135.463,158.299 -4.733,-6.048 -8.686,-12.624 -12.066,-19.565 -4.427,-9.091 -8.253,-18.513 -11.387,-28.127 -8.945,1.41 -17.571,-4.107 -23.7,-10.076 -6.871,-6.693 -12.272,-15.602 -14.333,-25.017 -2.054,-9.385 2.383,-18.969 7.622,-26.526 5.518,-7.961 12.527,-14.945 20.251,-20.764 0.361,-0.272 5.274,-3.79 6.445,-4.633 0.289,-0.644 0.591,-1.282 0.923,-1.906 0.447,3.594 1.875,6.931 3.127,10.288 0.047,-7.797 0.897,-15.654 2.698,-23.263 l 161.586,12.364 c -0.152,5.001 -0.877,10.014 -1.867,15.022 1.41,-3.281 3.006,-6.522 3.653,-10.08 0.234,0.501 0.453,1.006 0.664,1.513 0.692,0.429 2.1,1.408 4.979,3.665 16.163,13.517 31.061,35.638 26.328,51.237 -0.002,0.005 -0.002,0.009 -0.003,0.014 -2.306,7.585 -6.793,14.503 -12.299,20.158 -5.131,5.27 -11.529,9.873 -18.746,11.708 -1.767,0.449 -3.585,0.718 -5.41,0.737 -0.952,19.177 -11.073,34.111 -18.519,42.606 60.369,-19.68 107.901,-67.777 126.783,-128.503 l 1.983,0.152 c 0.555,0.042 1.063,0.325 1.392,0.774 0.33,0.449 0.447,1.019 0.319,1.561" /></g></g></g></g><g
             style="fill:url(#linearGradient4699);fill-opacity:1"
             id="g110"><g
               style="fill:url(#linearGradient4699);fill-opacity:1"
               id="g112" /><g
               style="fill:url(#linearGradient4699);fill-opacity:1"
               id="g118"><g
                 style="fill:url(#linearGradient4699);fill-opacity:1"
                 id="g120"
                 clip-path="url(#clipPath114)"><g
                   style="fill:url(#linearGradient4699);fill-opacity:1"
                   id="g122"
                   transform="translate(202.841,524.001)"><path
                     inkscape:connector-curvature="0"
                     id="path124"
                     style="fill:url(#linearGradient4699);fill-opacity:1;fill-rule:nonzero;stroke:none"
                     d="M 0,0 C -0.418,5.691 -5.389,9.982 -11.081,9.564 L -12.214,9.48 c -2.468,-0.181 -4.671,-1.221 -6.343,-2.803 -2.045,2.742 -5.397,4.422 -9.053,4.154 l -1.133,-0.084 c -4.131,-0.303 -7.512,-3.01 -8.902,-6.644 -1.754,1.036 -3.826,1.572 -6.007,1.411 l -1.133,-0.083 c -4.886,-0.359 -8.73,-4.077 -9.458,-8.722 -1.587,0.773 -3.386,1.159 -5.27,1.02 l -1.133,-0.083 c -5.692,-0.418 -9.982,-5.39 -9.563,-11.081 l 0.007,-0.103 L 0.597,-8.121 0,0 Z" /></g></g></g></g><g
             style="fill:url(#linearGradient4697);fill-opacity:1"
             id="g126"><g
               style="fill:url(#linearGradient4697);fill-opacity:1"
               id="g128" /><g
               style="fill:url(#linearGradient4697);fill-opacity:1"
               id="g134"><g
                 style="fill:url(#linearGradient4697);fill-opacity:1"
                 id="g136"
                 clip-path="url(#clipPath130)"><g
                   style="fill:url(#linearGradient4697);fill-opacity:1"
                   id="g138"
                   transform="translate(488.8803,537.9534)"><path
                     inkscape:connector-curvature="0"
                     id="path140"
                     style="fill:url(#linearGradient4697);fill-opacity:1;fill-rule:nonzero;stroke:none"
                     d="m 0,0 c -0.452,5.689 -5.448,9.951 -11.136,9.499 l -1.133,-0.09 c -1.883,-0.15 -3.603,-0.805 -5.054,-1.811 -1.426,4.481 -5.79,7.571 -10.674,7.184 l -1.132,-0.09 c -2.18,-0.174 -4.147,-1.018 -5.723,-2.309 -1.926,3.381 -5.68,5.542 -9.808,5.214 l -1.133,-0.09 c -3.655,-0.29 -6.712,-2.461 -8.317,-5.482 -1.892,1.31 -4.228,2.003 -6.695,1.807 l -1.133,-0.09 C -67.627,13.29 -71.887,8.293 -71.436,2.604 L -70.78,-5.648 0.018,-0.231 0,0 Z" /></g></g></g></g><g
             style="fill:#e86b0e;fill-opacity:1"
             id="g142"><g
               style="fill:#e86b0e;fill-opacity:1"
               id="g144" /><g
               style="fill:#e86b0e;fill-opacity:1"
               id="g150"><g
                 style="fill:#e86b0e;fill-opacity:1"
                 id="g152"
                 clip-path="url(#clipPath146)"><g
                   style="fill:#e86b0e;fill-opacity:1"
                   id="g154"
                   transform="translate(385.7718,326.8722)"><path
                     inkscape:connector-curvature="0"
                     id="path156"
                     style="fill:#e86b0e;fill-opacity:1;fill-rule:nonzero;stroke:none"
                     d="m 0,0 -132.2,-10.122 6.713,12.121 -6.832,10.654 132.2,10.123 L -6.834,11.084 0,0 Z" /></g></g></g></g><g
             transform="translate(379.0009,334.9972)"
             id="g158"><path
               inkscape:connector-curvature="0"
               id="path160"
               style="fill:#000000;fill-opacity:1;fill-rule:nonzero;stroke:none"
               d="m 0,0 -132.2,-10.122 6.713,12.121 -6.832,10.654 132.2,10.123 L -6.834,11.084 0,0 Z" /></g><g
             transform="translate(264.9776,344.7625)"
             id="g162"><path
               inkscape:connector-curvature="0"
               id="path164"
               style="fill:#ffffff;fill-opacity:1;fill-rule:nonzero;stroke:none"
               d="M 0,0 C 0.24,0.018 0.422,-0.151 0.423,-0.394 L 0.434,-2.382 C 0.435,-2.626 0.255,-2.822 0.015,-2.84 l -4.917,-0.377 0.014,-2.839 3.513,0.269 c 0.24,0.018 0.423,-0.151 0.424,-0.394 l 0.01,-1.989 C -0.94,-8.413 -1.12,-8.61 -1.36,-8.628 l -3.512,-0.269 0.014,-2.84 4.917,0.376 c 0.24,0.018 0.422,-0.15 0.424,-0.394 l 0.01,-1.988 c 0.002,-0.243 -0.179,-0.441 -0.419,-0.458 l -7.305,-0.56 c -0.24,-0.018 -0.422,0.15 -0.423,0.394 l -0.07,13.349 c -10e-4,0.243 0.179,0.44 0.419,0.459 L 0,0 Z" /></g><g
             transform="translate(279.8934,345.9044)"
             id="g166"><path
               inkscape:connector-curvature="0"
               id="path168"
               style="fill:#ffffff;fill-opacity:1;fill-rule:nonzero;stroke:none"
               d="M 0,0 C 0.121,0.009 0.221,-0.024 0.301,-0.099 L 1.189,-0.924 C 1.27,-1 1.31,-1.097 1.311,-1.219 L 1.324,-3.735 C 1.325,-3.978 1.146,-4.175 0.905,-4.193 l -1.967,-0.15 c -0.24,-0.019 -0.422,0.15 -0.423,0.393 l -0.003,0.528 c -0.001,0.122 -0.041,0.22 -0.122,0.295 l -0.04,0.038 c -0.081,0.074 -0.182,0.107 -0.302,0.098 l -1.886,-0.144 c -0.121,-0.01 -0.221,-0.058 -0.301,-0.146 l -0.04,-0.043 c -0.08,-0.087 -0.119,-0.192 -0.119,-0.313 l 0.01,-1.907 c 0.001,-0.122 0.042,-0.22 0.122,-0.295 l 0.04,-0.037 c 0.082,-0.075 0.182,-0.108 0.302,-0.099 L 0.029,-5.68 C 0.15,-5.67 0.25,-5.703 0.331,-5.78 L 1.219,-6.604 C 1.299,-6.679 1.34,-6.777 1.34,-6.899 l 0.031,-5.883 c 0.001,-0.123 -0.039,-0.227 -0.118,-0.314 l -0.879,-0.961 c -0.08,-0.087 -0.179,-0.135 -0.3,-0.144 l -5.82,-0.446 c -0.12,-0.01 -0.221,0.023 -0.302,0.099 l -0.887,0.825 c -0.081,0.075 -0.121,0.172 -0.122,0.295 l -0.013,2.515 c -10e-4,0.244 0.178,0.44 0.419,0.459 l 1.967,0.15 c 0.241,0.019 0.422,-0.149 0.423,-0.394 l 0.003,-0.526 c 0.001,-0.123 0.041,-0.221 0.122,-0.297 l 0.04,-0.037 c 0.081,-0.075 0.182,-0.108 0.302,-0.098 l 1.886,0.144 c 0.121,0.009 0.221,0.058 0.301,0.145 l 0.04,0.044 c 0.08,0.086 0.12,0.192 0.119,0.314 l -0.01,1.907 c -0.001,0.122 -0.041,0.219 -0.122,0.294 l -0.041,0.038 c -0.081,0.075 -0.181,0.108 -0.301,0.098 l -3.854,-0.295 c -0.12,-0.009 -0.22,0.024 -0.301,0.099 l -0.887,0.825 c -0.082,0.076 -0.122,0.174 -0.123,0.295 l -0.03,5.883 c -0.001,0.122 0.038,0.227 0.119,0.314 l 0.878,0.961 c 0.08,0.086 0.18,0.135 0.3,0.144 L 0,0 Z" /></g><g
             transform="translate(296.9766,347.2123)"
             id="g170"><path
               inkscape:connector-curvature="0"
               id="path172"
               style="fill:#ffffff;fill-opacity:1;fill-rule:nonzero;stroke:none"
               d="M 0,0 C 0.241,0.018 0.422,-0.151 0.423,-0.394 L 0.434,-2.382 C 0.435,-2.626 0.256,-2.822 0.015,-2.84 l -3.091,-0.237 0.057,-10.935 c 0.001,-0.243 -0.178,-0.44 -0.419,-0.458 l -1.967,-0.151 c -0.24,-0.019 -0.422,0.151 -0.423,0.394 l -0.057,10.935 -3.091,-0.237 c -0.24,-0.019 -0.422,0.15 -0.423,0.395 l -0.011,1.987 c -10e-4,0.244 0.179,0.44 0.42,0.459 L 0,0 Z" /></g><g
             transform="translate(305.7341,343.6205)"
             id="g174"><path
               inkscape:connector-curvature="0"
               id="path176"
               style="fill:#ff8806;fill-opacity:1;fill-rule:nonzero;stroke:none"
               d="m 0,0 c 0.422,0.032 0.824,-0.099 1.126,-0.38 l 1.09,-1.034 c 0.303,-0.28 0.465,-0.653 0.467,-1.079 L 2.685,-2.777 C 2.687,-3.203 2.528,-3.601 2.229,-3.928 l -1.078,-1.2 C 0.852,-5.455 0.451,-5.648 0.03,-5.681 L -0.231,-5.7 c -0.422,-0.032 -0.823,0.099 -1.126,0.381 l -1.11,1.031 c -0.283,0.282 -0.465,0.655 -0.468,1.081 l -10e-4,0.284 c -0.003,0.426 0.177,0.825 0.456,1.15 l 1.098,1.202 c 0.299,0.326 0.699,0.519 1.122,0.551 L 0,0 Z" /></g><g
             transform="translate(322.8739,349.1945)"
             id="g178"><path
               inkscape:connector-curvature="0"
               id="path180"
               style="fill:#ffffff;fill-opacity:1;fill-rule:nonzero;stroke:none"
               d="M 0,0 C 0.121,0.009 0.222,-0.024 0.302,-0.098 L 1.189,-0.923 C 1.27,-0.999 1.311,-1.097 1.312,-1.219 l 0.019,-3.752 c 0,-0.062 -0.019,-0.123 -0.039,-0.165 L 0.974,-5.871 C 0.954,-5.914 0.915,-5.978 0.875,-6.021 L -4.1,-10.685 c -0.04,-0.043 -0.079,-0.087 -0.099,-0.149 l -0.02,-0.042 c -0.02,-0.063 -0.04,-0.125 -0.04,-0.186 l 0.004,-0.629 5.198,0.398 c 0.24,0.019 0.422,-0.15 0.423,-0.394 l 0.011,-1.988 c 10e-4,-0.244 -0.179,-0.44 -0.42,-0.459 l -7.585,-0.58 c -0.242,-0.018 -0.423,0.15 -0.424,0.394 l -0.018,3.367 c 0,0.061 0.019,0.125 0.04,0.166 l 0.317,0.735 c 0.02,0.062 0.06,0.105 0.1,0.149 l 4.954,4.663 c 0.06,0.044 0.1,0.088 0.12,0.151 l 0.02,0.042 c 0.02,0.062 0.039,0.125 0.039,0.185 l -0.007,1.44 c -10e-4,0.122 -0.042,0.221 -0.123,0.295 l -0.039,0.038 c -0.081,0.075 -0.182,0.108 -0.302,0.099 L -3.838,-3.135 C -3.959,-3.144 -4.059,-3.192 -4.139,-3.28 l -0.039,-0.043 c -0.081,-0.088 -0.12,-0.192 -0.119,-0.314 l 0.003,-0.528 c 10e-4,-0.243 -0.179,-0.439 -0.42,-0.458 l -1.966,-0.15 c -0.242,-0.018 -0.423,0.149 -0.424,0.393 l -0.013,2.516 c -0.001,0.122 0.039,0.226 0.119,0.314 l 0.878,0.96 c 0.08,0.087 0.18,0.135 0.3,0.145 L 0,0 Z" /></g><g
             transform="translate(334.8358,347.2689)"
             id="g182"><path
               inkscape:connector-curvature="0"
               id="path184"
               style="fill:#ffffff;fill-opacity:1;fill-rule:nonzero;stroke:none"
               d="m 0,0 c -0.121,-0.008 -0.222,-0.057 -0.301,-0.144 l -0.04,-0.044 C -0.421,-0.275 -0.46,-0.38 -0.459,-0.502 l 0.039,-7.587 c 0,-0.122 0.042,-0.221 0.122,-0.295 l 0.041,-0.038 c 0.08,-0.074 0.181,-0.107 0.301,-0.099 l 1.886,0.145 c 0.121,0.009 0.221,0.057 0.301,0.145 l 0.04,0.043 C 2.35,-8.1 2.39,-7.996 2.39,-7.874 L 2.35,-0.287 C 2.349,-0.165 2.308,-0.066 2.227,0.008 L 2.188,0.046 C 2.107,0.121 2.007,0.154 1.886,0.145 L 0,0 Z M 3.838,3.135 C 3.958,3.145 4.06,3.112 4.139,3.037 L 5.027,2.211 C 5.107,2.137 5.148,2.039 5.149,1.916 L 5.209,-9.647 C 5.21,-9.769 5.169,-9.873 5.09,-9.961 l -0.878,-0.96 c -0.079,-0.087 -0.18,-0.136 -0.3,-0.145 l -5.821,-0.445 c -0.119,-0.01 -0.22,0.023 -0.3,0.098 l -0.888,0.826 c -0.082,0.075 -0.121,0.173 -0.122,0.295 L -3.28,1.271 c -0.001,0.123 0.039,0.226 0.119,0.314 l 0.878,0.96 c 0.08,0.088 0.18,0.136 0.301,0.145 l 5.82,0.445 z" /></g><g
             transform="translate(350.2584,351.2917)"
             id="g186"><path
               inkscape:connector-curvature="0"
               id="path188"
               style="fill:#ffffff;fill-opacity:1;fill-rule:nonzero;stroke:none"
               d="m 0,0 c 0.12,0.009 0.221,-0.044 0.302,-0.099 l 0.887,-0.825 c 0.06,-0.077 0.122,-0.173 0.123,-0.295 l 0.052,-10.042 0.983,0.075 c 0.221,0.017 0.422,-0.17 0.424,-0.394 l 0.01,-1.988 c 10e-4,-0.243 -0.198,-0.441 -0.419,-0.458 l -4.777,-0.366 c -0.24,-0.019 -0.422,0.151 -0.422,0.394 l -0.011,1.988 c -0.002,0.224 0.177,0.44 0.418,0.458 l 0.983,0.076 -0.041,8.054 C -1.489,-3.3 -1.55,-3.203 -1.61,-3.127 l -0.04,0.038 c -0.081,0.054 -0.182,0.107 -0.302,0.098 l -0.522,-0.04 c -0.241,-0.019 -0.422,0.15 -0.423,0.394 l -0.01,1.988 c -0.002,0.224 0.177,0.44 0.417,0.459 L 0,0 Z" /></g><g
             transform="translate(362.6483,343.7157)"
             id="g190"><path
               inkscape:connector-curvature="0"
               id="path192"
               style="fill:#ffffff;fill-opacity:1;fill-rule:nonzero;stroke:none"
               d="m 0,0 c -0.12,-0.009 -0.22,-0.058 -0.3,-0.144 l -0.04,-0.044 c -0.079,-0.087 -0.119,-0.191 -0.118,-0.313 l 0.01,-1.907 c 0,-0.122 0.042,-0.221 0.121,-0.296 l 0.041,-0.037 c 0.08,-0.076 0.181,-0.109 0.301,-0.099 l 1.886,0.144 c 0.121,0.009 0.222,0.058 0.301,0.145 l 0.039,0.044 c 0.081,0.087 0.12,0.192 0.12,0.314 l -0.01,1.907 C 2.35,-0.164 2.309,-0.066 2.228,0.008 L 2.188,0.046 C 2.109,0.121 2.007,0.154 1.886,0.144 L 0,0 Z M 3.809,8.816 C 3.929,8.825 4.031,8.792 4.111,8.718 L 4.999,7.892 C 5.078,7.817 5.12,7.719 5.12,7.597 L 5.134,5.081 C 5.135,4.838 4.955,4.641 4.715,4.624 L 2.748,4.473 C 2.506,4.455 2.325,4.623 2.324,4.866 L 2.322,5.394 C 2.321,5.516 2.279,5.615 2.199,5.689 L 2.159,5.727 C 2.078,5.801 1.977,5.834 1.857,5.825 L -0.029,5.681 C -0.149,5.671 -0.25,5.623 -0.329,5.536 L -0.37,5.493 C -0.449,5.405 -0.488,5.301 -0.488,5.179 l 0.015,-2.799 0.299,0.326 c 0.08,0.089 0.18,0.137 0.3,0.147 L 3.839,3.136 C 3.96,3.146 4.061,3.113 4.14,3.037 L 5.028,2.212 C 5.108,2.138 5.149,2.039 5.15,1.917 l 0.031,-5.883 c 0,-0.123 -0.04,-0.227 -0.119,-0.314 L 4.183,-5.24 C 4.105,-5.328 4.004,-5.376 3.883,-5.385 l -5.82,-0.446 c -0.12,-0.009 -0.221,0.024 -0.302,0.099 l -0.887,0.825 c -0.081,0.075 -0.122,0.173 -0.122,0.296 l -0.06,11.563 c -0.001,0.122 0.038,0.226 0.119,0.313 l 0.878,0.961 c 0.08,0.087 0.18,0.136 0.3,0.145 l 5.82,0.445 z" /></g><g
             transform="translate(77.4448,484.4072)"
             id="g194"><path
               inkscape:connector-curvature="0"
               id="path196"
               style="fill:#000000;fill-opacity:1;fill-rule:nonzero;stroke:none"
               d="m 0,0 c -0.492,0 -0.958,0.237 -1.246,0.643 -0.312,0.436 -0.371,1.004 -0.159,1.496 l 4.747,10.957 c 0.226,0.521 0.722,0.875 1.288,0.918 0,0 453.758,34.589 453.797,34.589 0.493,0 0.958,-0.238 1.247,-0.643 0.311,-0.438 0.37,-1.006 0.157,-1.499 l -4.77,-10.96 c -0.227,-0.519 -0.722,-0.872 -1.288,-0.914 C 453.773,34.587 0.038,0 0,0" /></g><g
             transform="translate(75.5281,360.8246)"
             id="g198"><path
               inkscape:connector-curvature="0"
               id="path200"
               style="fill:#000000;fill-opacity:1;fill-rule:nonzero;stroke:none"
               d="M 0,0 C -0.494,0 -0.961,0.239 -1.249,0.647 -1.557,1.083 -1.616,1.648 -1.404,2.139 L 3.32,13.043 c 0.227,0.526 0.729,0.88 1.3,0.919 23.778,1.623 84.33,5.751 84.363,5.751 0.697,0 1.312,-0.474 1.484,-1.159 0.373,-1.491 0.963,-2.986 1.753,-4.444 0.956,-1.764 2.177,-3.438 3.629,-4.972 C 96.255,8.708 96.378,8.081 96.162,7.53 95.947,6.978 95.433,6.6 94.842,6.559 94.842,6.559 0.036,0 0,0" /></g><g
             transform="translate(497.6319,392.3002)"
             id="g202"><path
               inkscape:connector-curvature="0"
               id="path204"
               style="fill:#000000;fill-opacity:1;fill-rule:nonzero;stroke:none"
               d="m 0,0 c -0.456,0 -0.916,0.216 -1.206,0.568 -0.338,0.407 -0.44,0.959 -0.273,1.46 L 2.13,12.839 c 0.195,0.584 0.721,0.995 1.334,1.041 l 37.585,2.879 c 0.039,0.003 0.079,0.004 0.117,0.004 0.493,0 0.958,-0.238 1.247,-0.643 0.311,-0.437 0.371,-1.006 0.157,-1.497 L 37.808,3.679 C 37.582,3.158 37.086,2.806 36.521,2.762 36.521,2.762 0.038,0 0,0" /></g><g
             transform="translate(347.2386,458.1732)"
             id="g206"><path
               inkscape:connector-curvature="0"
               id="path208"
               style="fill:#000000;fill-opacity:1;fill-rule:nonzero;stroke:none"
               d="m 0,0 c -0.153,0 -0.307,-0.006 -0.462,-0.017 -4.42,-0.325 -9.435,-5.418 -13.761,-13.974 -3.836,-7.587 -6.128,-15.975 -6.128,-19.702 0,-3.558 1.865,-5.858 4.75,-5.858 0.141,0 0.283,0.006 0.426,0.016 2.794,0.206 5.762,2.112 8.584,5.512 -1.989,1.888 -2.997,4.277 -2.997,7.101 0,6.098 5.271,10.997 12.261,11.394 1.317,3.755 2.043,7.232 2.043,9.791 C 4.716,-0.559 1.418,0 0,0 m -82.145,-6.038 c -0.152,0 -0.306,-0.006 -0.46,-0.017 -4.422,-0.325 -9.438,-5.419 -13.763,-13.974 -3.836,-7.587 -6.128,-15.976 -6.128,-19.702 0,-3.558 1.865,-5.858 4.751,-5.858 0.139,0 0.28,0.006 0.423,0.016 2.795,0.205 5.763,2.11 8.586,5.511 -1.989,1.891 -2.998,4.28 -2.998,7.102 0,6.098 5.271,10.997 12.261,11.394 1.318,3.754 2.043,7.231 2.043,9.79 0,5.179 -3.297,5.738 -4.715,5.738 M 135.633,-54.92 c -2.951,-1.435 -5.282,-2.569 -8.313,-4.4 -2.972,-1.914 -4.633,-3.995 -4.633,-5.832 0,-1.859 1.42,-3.157 3.454,-3.157 l 0.124,0.004 c 2.097,0.153 6.417,2.229 11.409,14.382 l -2.041,-0.997 z m -8.391,-26.046 c -7.075,0 -15.402,3.354 -15.588,12.807 0.128,8.544 8.177,15.452 15.666,19.087 2.289,1.165 5.085,2.484 7.789,3.758 3.244,1.529 6.252,2.947 7.878,3.861 l 3.134,7.307 c -0.261,-0.336 -6.339,-8.031 -16.621,-8.787 -0.508,-0.037 -1.016,-0.056 -1.513,-0.056 -3.037,0 -13.023,0.906 -13.969,12.565 -6.832,-6.728 -17.419,-14.927 -29.063,-15.784 -0.673,-0.049 -1.355,-0.074 -2.026,-0.074 -6.427,0 -12.024,2.232 -15.76,6.286 -3.579,3.884 -5.202,9.224 -4.693,15.442 0.564,6.222 2.694,7.642 5.722,7.864 3.626,0.267 11.172,0.822 15.531,12.124 0.526,1.45 0.817,2.603 0.817,4.453 0,2.365 -0.994,2.85 -2.486,2.85 -0.162,0 -0.333,-0.007 -0.513,-0.02 C 77.505,2.42 71.993,-1.098 66.428,-6.936 L 49.137,-46.327 c -0.259,-0.589 -0.821,-0.986 -1.462,-1.033 l -20.201,-1.486 c -0.043,-0.003 -0.086,-0.004 -0.128,-0.004 -0.56,0 -1.089,0.271 -1.415,0.732 -0.352,0.496 -0.418,1.14 -0.174,1.697 l 4.942,11.308 c -5.07,-2.701 -10.329,-4.221 -15.629,-4.518 -5.54,-5.75 -15.213,-12.831 -29.834,-13.906 -1.197,-0.088 -2.378,-0.132 -3.507,-0.132 -14.038,0 -22.9,6.447 -24.952,18.155 -7.107,-6.086 -15.578,-9.692 -23.852,-10.154 -5.54,-5.751 -15.214,-12.833 -29.835,-13.907 -1.197,-0.089 -2.377,-0.133 -3.507,-0.133 -8.011,0 -14.573,2.238 -18.975,6.472 -4.186,4.028 -6.399,9.793 -6.399,16.674 0,17.176 13.483,42.355 43.458,44.559 1.233,0.09 2.447,0.136 3.61,0.136 15.627,0 24.589,-8.234 24.589,-22.589 0,-6.659 -1.838,-13.944 -5.177,-20.513 6.431,2.152 12.336,7.183 17.078,14.55 4.15,15.467 17.374,32.64 42.045,34.454 1.235,0.09 2.449,0.136 3.61,0.136 15.627,0 24.589,-8.233 24.589,-22.588 0,-6.658 -1.838,-13.944 -5.176,-20.515 6.212,2.08 11.954,6.858 16.605,13.819 l 25.959,59.392 c 0.258,0.589 0.821,0.988 1.463,1.035 L 87.067,46.8 c 0.043,0.003 0.086,0.004 0.128,0.004 0.56,0 1.088,-0.27 1.415,-0.731 0.352,-0.496 0.418,-1.139 0.176,-1.696 L 74.465,11.469 c 0.112,0.09 11.221,8.878 23.432,9.776 0.658,0.048 1.307,0.073 1.93,0.073 7.579,0 12.102,-3.611 12.102,-9.658 0,-3.954 -2.235,-10.389 -6.131,-17.655 -4.622,-8.62 -12.75,-14.966 -20.707,-16.164 l -0.006,-0.087 c -0.096,-1.551 -0.39,-6.27 1.943,-8.753 1.004,-1.068 2.322,-1.587 4.03,-1.587 0.439,0 0.906,0.036 1.389,0.108 7.815,1.083 18.652,10.511 26.983,23.461 l 13.193,30.299 c 0.257,0.59 0.821,0.99 1.464,1.037 l 20.206,1.486 c 0.042,0.002 0.085,0.004 0.127,0.004 0.559,0 1.088,-0.271 1.415,-0.731 0.351,-0.495 0.418,-1.138 0.176,-1.695 l -15.068,-34.678 c -4.626,-10.593 -3.469,-12.36 -3.089,-12.94 0.353,-0.54 0.958,-0.803 1.849,-0.803 0.138,0 0.278,0.006 0.421,0.017 4.306,0.317 8.025,4.393 17.303,18.965 l 14.157,32.207 c 0.259,0.588 0.82,0.985 1.461,1.032 l 20.199,1.485 c 0.043,0.003 0.085,0.004 0.127,0.004 0.561,0 1.09,-0.271 1.417,-0.733 0.351,-0.497 0.416,-1.141 0.172,-1.698 l -25.271,-57.63 c 12.257,6.507 20.451,14.813 30.233,30.643 0.318,0.517 0.88,0.823 1.475,0.823 0.094,0 0.19,-0.008 0.285,-0.024 2.263,-0.376 4.762,-1.764 6.217,-3.454 0.494,-0.574 0.559,-1.403 0.159,-2.047 -14.397,-23.197 -28.548,-31.525 -44.228,-39.306 -0.022,-0.047 -2.153,-4.738 -2.849,-6.524 -5.3,-12.195 -13.642,-26.291 -31.481,-27.603 -0.773,-0.056 -1.532,-0.085 -2.258,-0.085" /></g><g
             transform="translate(455.8827,401.9205)"
             id="g210"><path
               inkscape:connector-curvature="0"
               id="path212"
               style="fill:#000000;fill-opacity:1;fill-rule:nonzero;stroke:none"
               d="m 0,0 c -0.288,0.455 -0.788,0.727 -1.32,0.727 -0.034,0 -194.015,-14.782 -249.991,-19.048 -1.127,-0.086 -2.268,-0.173 -3.404,-0.259 -0.395,-0.031 -0.776,-0.06 -1.153,-0.088 -0.343,-0.027 -0.681,-0.052 -1.026,-0.078 -0.049,-0.005 -0.099,-0.007 -0.148,-0.007 -0.302,0 -0.593,0.084 -0.863,0.219 -0.184,0.107 -0.364,0.215 -0.533,0.327 -0.158,0.104 -0.317,0.208 -0.463,0.315 -0.213,0.158 -0.405,0.323 -0.593,0.489 -0.124,0.109 -0.256,0.216 -0.369,0.33 -0.186,0.186 -0.346,0.383 -0.504,0.581 -0.082,0.102 -0.176,0.2 -0.25,0.306 -0.21,0.299 -0.392,0.61 -0.541,0.935 -0.004,0.01 -0.012,0.019 -0.016,0.029 -0.025,0.055 -0.039,0.113 -0.058,0.17 -1.151,2.783 -0.044,6.412 1.19,9.555 l 28.199,64.547 c 3.534,8.172 5.042,13.355 5.042,17.331 0,5.749 -3.236,12.463 -12.354,12.463 -0.456,0 -0.929,-0.018 -1.406,-0.053 -7.55,-0.555 -20.082,-5.667 -29.426,-14.365 -0.703,8.283 -7.251,11.223 -12.644,11.223 -0.453,0 -0.921,-0.018 -1.388,-0.053 -6.162,-0.453 -16.704,-4.203 -24.93,-10.495 l -18.969,8.045 c -0.217,0.091 -0.447,0.137 -0.678,0.137 -0.211,0 -0.423,-0.038 -0.625,-0.116 -6.419,-2.478 -12.842,-4.696 -19.054,-6.841 -26.267,-9.072 -48.952,-16.907 -48.952,-37.243 -0.054,-5.449 1.805,-10.234 5.374,-13.838 4.592,-4.638 11.897,-7.191 20.567,-7.191 0.598,0 1.205,0.012 1.819,0.036 0.93,0.037 1.666,0.802 1.666,1.734 l 0,14.154 c 0,0.942 -0.753,1.713 -1.695,1.735 -2.776,0.063 -7.433,0.876 -7.433,5.595 0,7.498 12.168,11.621 30.587,17.862 2.77,0.938 5.662,1.918 8.648,2.958 l -32.64,-75.015 c -0.242,-0.556 -0.175,-1.2 0.176,-1.695 0.327,-0.461 0.856,-0.732 1.415,-0.732 0.042,0 0.085,0.002 0.128,0.005 l 20.202,1.485 c 0.644,0.047 1.208,0.449 1.464,1.041 l 28.463,65.708 c 6.87,6.657 13.982,11.155 18.119,11.458 0.151,0.012 0.298,0.017 0.441,0.017 1.857,0 2.965,-0.916 2.965,-2.45 0,-2.412 -2.339,-7.818 -6.161,-16.449 l -24.026,-55.213 c -0.243,-0.556 -0.176,-1.2 0.175,-1.696 0.327,-0.46 0.856,-0.731 1.415,-0.731 0.043,0 0.085,0.002 0.128,0.005 l 20.202,1.485 c 0.643,0.047 1.207,0.448 1.464,1.04 l 28.055,64.701 c 6.317,6.899 14.223,12.15 18.8,12.486 0.132,0.01 0.263,0.015 0.39,0.015 1.803,0 2.879,-0.919 2.879,-2.459 0,-2.411 -2.338,-7.816 -6.157,-16.443 l -22.859,-52.312 c -2.233,-5.544 -4.103,-13.615 -0.332,-20.575 1.586,-2.927 4.028,-5.404 7.29,-7.426 l 0,0.014 c 0.4,-0.248 0.784,-0.469 1.166,-0.685 0.108,-0.06 0.211,-0.122 0.321,-0.182 1.144,-0.619 2.421,-0.946 3.717,-0.946 0.196,0 0.393,0.008 0.591,0.023 l 0.977,0.074 8.698,0.661 0.003,0.007 c 38.912,2.963 255.941,19.502 255.941,19.502 0.8,0.061 1.423,0.718 1.443,1.519 0.083,3.467 1.05,6.839 2.875,10.026 C 0.321,-1.108 0.308,-0.489 0,0" /></g><g
             id="g216"
             clip-path="url(#clipPath218)"><g
               id="g222"
               transform="translate(417.7314,600.8836)"><path
                 d="m 0,0 c -0.002,0.005 -0.002,0.009 -0.003,0.014 -2.306,7.585 -6.793,14.503 -12.299,20.158 -5.131,5.27 -11.53,9.873 -18.746,11.708 -1.767,0.449 -3.585,0.718 -5.41,0.737 -1.521,30.655 -26.474,50.47 -26.474,50.47 2.329,-3.009 2.983,-6.504 2.52,-9.976 -8.446,11.825 -17.278,16.579 -17.278,16.579 0.543,-1.795 0.901,-3.638 1.115,-5.481 -43.892,20.648 -20.457,38.007 -20.457,38.007 -18.721,-5.098 -36.999,-12.612 -53.076,-23.582 -7.609,-5.192 -14.702,-11.183 -20.869,-18.038 -6.552,-7.281 -11.731,-15.501 -16.012,-24.293 -4.427,-9.091 -8.253,-18.512 -11.387,-28.126 -8.945,1.409 -17.571,-4.107 -23.7,-10.077 -6.871,-6.693 -12.272,-15.602 -14.333,-25.017 -2.054,-9.385 2.383,-18.969 7.622,-26.526 5.518,-7.961 12.527,-14.945 20.251,-20.763 0.361,-0.273 5.274,-3.791 6.445,-4.633 0.289,-0.644 0.591,-1.282 0.923,-1.907 0.447,3.595 1.875,6.931 3.127,10.289 0.106,-17.787 3.698,-33.422 13.928,-48.174 -0.514,3.543 -1.438,10.135 0.755,15.983 5.642,-14.509 15.41,-29.385 27.66,-34.195 -1.864,2.332 -3.212,5.072 -4.144,7.902 9.944,-5.949 18.604,-14.282 23.901,-24.666 1.524,3.262 2.545,9.784 2.076,16.299 10.086,-20.717 37.986,-28.918 37.986,-28.918 -3.787,21.458 22.089,31.241 22.089,31.241 1.211,-6.731 -3.55,-12.307 -3.55,-12.307 52.826,30.541 41.326,81.53 41.326,81.53 0,0 3.34,-5.272 4.043,-10.653 0.234,0.501 0.453,1.006 0.664,1.514 0.692,0.428 2.1,1.407 4.979,3.664 C -10.165,-37.719 4.733,-15.598 0,0"
                 style="fill:#000000;fill-opacity:1;fill-rule:nonzero;stroke:none"
                 id="path224"
                 inkscape:connector-curvature="0" /></g><g
               id="g226"
               transform="translate(348.9053,584.5904)"><path
                 d="m 0,0 c 0,0 1.459,8.366 3.858,20.36 2.399,11.993 3.255,23.13 0.095,30.656 0,0 -6.489,16.85 -31.589,14.935 -20.884,-1.593 -24.043,-15.902 -24.043,-15.902 0,0 -5.292,13.665 -26.177,12.072 -25.1,-1.914 -28.958,-19.553 -28.958,-19.553 -2.237,-8.844 -0.352,-25.806 10.784,-36.086 11.137,-10.281 15.128,-13.794 15.128,-13.794 -1.743,-2.871 -3.371,-5.855 -4.854,-8.869 -3.61,-7.336 -5.698,-15.429 -6.08,-23.596 l -0.025,-0.643 -0.01,-0.468 c 0.016,-1.276 1.223,-2.255 2.161,-2.943 1.188,-0.871 2.531,-1.521 3.878,-2.106 2.968,-1.29 6.111,-2.153 9.271,-2.828 2.3,-0.49 4.625,-0.859 6.962,-1.118 l 40.552,3.085 c 7.079,0.539 15.02,1.434 20.736,3.107 5.715,1.673 9.216,3.263 10.19,13.893 1.576,-15.714 -4.683,-18.624 -13.815,-21.299 -8.297,-2.431 -19.883,-3.178 -30.161,-3.959 l -24.177,-1.84 c -0.44,-0.033 -0.845,-0.226 -1.138,-0.528 -0.096,-0.1 -0.181,-0.212 -0.25,-0.335 -0.278,-0.492 -0.27,-1.083 0.02,-1.564 l 1.087,-1.804 -10e-4,0 1.619,-2.686 10e-4,0 c 5.615,-9.333 21.008,-19.525 33.506,-19.652 0.03,0 0.056,-0.003 0.086,-0.004 3.552,0.145 7.119,0.816 9.997,1.497 0.351,0.085 0.701,0.173 1.051,0.259 C 13.534,-73.163 23.599,-22.427 0,0"
                 style="fill:#ffffff;fill-opacity:1;fill-rule:nonzero;stroke:none"
                 id="path228"
                 inkscape:connector-curvature="0" /></g><g
               id="g230"
               transform="translate(220.934,582.8271)"><path
                 d="m 0,0 c -2.397,-4.717 -4.687,-9.395 -6.21,-14.486 -1.175,-3.93 -1.921,-8.019 -1.977,-12.126 -1.416,1.156 -2.963,2.435 -4.358,3.626 -46.86,39.477 7.165,54.925 7.165,54.925 l 0.87,-2.37 C -2.804,24.774 -1.25,19.914 -0.154,14.94 0.878,10.255 2.291,4.509 0,0"
                 style="fill:#ffffff;fill-opacity:1;fill-rule:nonzero;stroke:none"
                 id="path232"
                 inkscape:connector-curvature="0" /></g><g
               id="g234"
               transform="translate(392.9268,563.3698)"><path
                 d="m 0,0 c -1.185,-1.14 -2.409,-2.208 -3.525,-3.136 0.098,4.127 -0.413,8.281 -1.49,12.323 -0.613,2.305 -1.4,4.553 -3.056,6.327 -1.459,1.564 -3.247,2.741 -4.894,4.09 -1.531,1.254 -3.173,2.844 -3.525,4.882 -0.19,1.105 -0.012,2.241 0.105,3.344 0.147,1.382 0.313,2.763 0.5,4.141 1.001,7.376 2.794,14.498 5.022,21.591 0.043,-0.09 0.541,1.804 0.598,2.015 C -8.286,55.173 45.219,43.751 0,0"
                 style="fill:#ffffff;fill-opacity:1;fill-rule:nonzero;stroke:none"
                 id="path236"
                 inkscape:connector-curvature="0" /></g><g
               id="g238"
               transform="translate(204.3173,586.1785)"><path
                 d="m 0,0 c 1.061,-9.634 2.938,-14.942 5.094,-17.891 1.383,6.162 4.149,11.871 8.237,16.457 l -0.124,0.142 0.455,1.794 c 0.821,3.234 0.333,7.17 -0.315,11.101 C -16.975,10.921 -0.984,-21.616 -3.501,-11.054 -6.044,-0.386 0,0 0,0"
                 style="fill:#000000;fill-opacity:1;fill-rule:nonzero;stroke:none"
                 id="path240"
                 inkscape:connector-curvature="0" /></g><g
               id="g242"
               transform="translate(389.9591,577.4251)"><path
                 d="m 0,0 c 0.726,-1.816 1.307,-3.69 1.771,-5.597 2.366,2.808 4.236,8.343 4.508,19.608 0,0 6.055,0.132 4.432,-10.715 C 9.112,-7.401 24.556,26.596 -5.172,24.68 -5.51,20.399 -6.76,16.25 -8.835,12.638 -4.992,9.307 -1.912,4.922 0,0"
                 style="fill:#000000;fill-opacity:1;fill-rule:nonzero;stroke:none"
                 id="path244"
                 inkscape:connector-curvature="0" /></g><g
               id="g246"
               transform="translate(283.7827,576.119)"><path
                 d="m 0,0 c -0.084,-0.006 -0.168,-0.01 -0.252,-0.011 l -38.903,-0.687 c -3.321,-0.058 -6.329,1.996 -7.485,5.109 l -9.35,25.241 c -0.725,1.955 -0.632,4.16 0.253,6.049 l 5.666,12.072 c 1.197,2.552 3.687,4.27 6.499,4.484 l 113.923,8.666 c 2.814,0.213 5.534,-1.109 7.104,-3.449 L 84.88,46.401 c 1.161,-1.735 1.587,-3.901 1.168,-5.942 L 80.623,14.095 C 79.952,10.841 77.29,8.355 73.999,7.91 L 35.437,2.704 C 35.351,2.692 35.263,2.682 35.176,2.676 30.711,2.339 26.524,4.872 24.752,8.98 c -4.918,11.402 -7.93,18.412 -8.711,20.273 -0.089,0.211 -0.172,0.399 -0.25,0.566 -0.068,0.146 -0.22,0.235 -0.381,0.223 C 15.249,30.03 15.113,29.919 15.067,29.764 15.016,29.587 14.962,29.388 14.906,29.166 14.407,27.175 12.541,19.99 9.361,7.81 8.23,3.478 4.472,0.34 0.011,0.001 L 0,0 Z"
                 style="fill:#ffffff;fill-opacity:1;fill-rule:nonzero;stroke:none"
                 id="path248"
                 inkscape:connector-curvature="0" /></g><g
               id="g250"
               transform="translate(312.669,588.976)"><path
                 d="m 0,0 c -3.4,0.366 -6.38,-1.417 -6.656,-3.982 -0.275,-2.565 2.958,-7.407 5.655,-5.307 5.976,4.651 9.666,-0.649 9.943,1.916 C 9.217,-4.808 3.4,-0.366 0,0"
                 style="fill:#000000;fill-opacity:1;fill-rule:nonzero;stroke:none"
                 id="path252"
                 inkscape:connector-curvature="0" /></g><g
               id="g254"
               transform="translate(287.2083,588.2925)"><path
                 d="m 0,0 c -3.375,-0.547 -8.948,-5.294 -8.533,-7.842 0.412,-2.547 3.813,2.945 10.03,-1.38 2.807,-1.951 5.775,3.056 5.362,5.603 C 6.446,-1.072 3.376,0.549 0,0"
                 style="fill:#000000;fill-opacity:1;fill-rule:nonzero;stroke:none"
                 id="path256"
                 inkscape:connector-curvature="0" /></g><g
               id="g258"
               transform="translate(364.2252,619.899)"><path
                 d="m 0,0 -7.287,10.869 c -0.682,1.016 -1.858,1.588 -3.079,1.495 l -112.653,-8.57 c -1.221,-0.093 -2.297,-0.835 -2.817,-1.944 l -5.559,-11.845 c -0.387,-0.824 -0.427,-1.769 -0.111,-2.623 l 9.211,-24.865 c 0.502,-1.355 1.807,-2.244 3.251,-2.216 l 26.367,0.517 c 0.065,0.001 0.128,0.004 0.192,0.009 1.387,0.105 2.579,1.05 2.989,2.393 1.39,4.547 6.767,18.602 20.591,21.893 l -0.185,2.423 c -0.143,1.881 1.279,3.537 3.161,3.68 l 1.055,0.081 c 1.881,0.143 3.537,-1.279 3.68,-3.161 l 0.184,-2.41 c 14.184,-1.119 21.657,-14.206 23.726,-18.488 0.61,-1.262 1.928,-2.014 3.314,-1.909 0.062,0.005 0.123,0.011 0.185,0.02 l 26.062,3.421 c 1.435,0.188 2.593,1.265 2.885,2.682 L 0.506,-2.576 C 0.689,-1.684 0.507,-0.756 0,0"
                 style="fill:#000000;fill-opacity:1;fill-rule:nonzero;stroke:none"
                 id="path260"
                 inkscape:connector-curvature="0" /></g></g><g
             id="g264"><g
               id="g270"><g
                 id="g272"><path
                   d="m 322.016,622.716 -6.281,-13.42 c 4.408,-2.309 7.956,-5.473 10.709,-8.637 l 0,0 10.869,23.221 -15.297,-1.164 z"
                   style="fill:url(#linearGradient274);stroke:none"
                   id="path286"
                   inkscape:connector-curvature="0" /></g></g></g><g
             id="g290"><g
               id="g296"><g
                 id="g298"><path
                   d="m 243.901,616.774 -3.981,-8.482 6.497,-17.537 12.721,27.178 -15.237,-1.159 z"
                   style="fill:url(#linearGradient300);stroke:none"
                   id="path312"
                   inkscape:connector-curvature="0" /></g></g></g><g
             transform="translate(155.4117,494.7452)"
             id="g326"><path
               inkscape:connector-curvature="0"
               id="path328"
               style="fill:#000000;fill-opacity:1;fill-rule:nonzero;stroke:none"
               d="M 0,0 C 5.691,0.418 9.981,5.389 9.563,11.081 L 8.128,30.59 C 7.71,36.281 2.739,40.572 -2.952,40.154 L -4.085,40.07 c -5.692,-0.418 -9.982,-5.39 -9.563,-11.081 L -12.214,9.48 c 0.419,-5.692 5.389,-9.982 11.081,-9.563 L 0,0 Z" /></g><g
             transform="translate(138.943,495.1891)"
             id="g330"><path
               inkscape:connector-curvature="0"
               id="path332"
               style="fill:#000000;fill-opacity:1;fill-rule:nonzero;stroke:none"
               d="m 0,0 c 5.691,0.418 9.981,5.389 9.563,11.081 l -0.827,11.28 c -0.418,5.691 -5.389,9.982 -11.08,9.564 l -1.134,-0.084 c -5.691,-0.418 -9.981,-5.39 -9.562,-11.081 l 0.826,-11.281 c 0.419,-5.691 5.389,-9.981 11.081,-9.562 L 0,0 Z" /></g><g
             transform="translate(188.0441,497.9717)"
             id="g334"><path
               inkscape:connector-curvature="0"
               id="path336"
               style="fill:#000000;fill-opacity:1;fill-rule:nonzero;stroke:none"
               d="M 0,0 C 5.691,0.418 9.981,5.389 9.563,11.081 L 8.068,31.413 c -0.419,5.691 -5.389,9.982 -11.081,9.563 l -1.133,-0.083 c -5.691,-0.418 -9.981,-5.39 -9.563,-11.081 l 1.495,-20.333 c 0.419,-5.691 5.389,-9.981 11.081,-9.562 L 0,0 Z" /></g><g
             transform="translate(171.8793,494.3012)"
             id="g338"><path
               inkscape:connector-curvature="0"
               id="path340"
               style="fill:#000000;fill-opacity:1;fill-rule:nonzero;stroke:none"
               d="M 0,0 C 5.691,0.418 9.981,5.389 9.563,11.081 L 7.703,36.35 C 7.285,42.041 2.314,46.332 -3.378,45.914 L -4.511,45.83 c -5.691,-0.418 -9.981,-5.39 -9.563,-11.081 l 1.86,-25.269 c 0.419,-5.692 5.389,-9.982 11.081,-9.563 L 0,0 Z" /></g><g
             transform="translate(148.6302,504.6241)"
             id="g342"><path
               inkscape:connector-curvature="0"
               id="path344"
               style="fill:#ffffff;fill-opacity:1;fill-rule:nonzero;stroke:none"
               d="m 0,0 c 0.198,-2.689 2.559,-4.728 5.249,-4.53 l 1.133,0.083 c 2.69,0.198 4.728,2.56 4.53,5.249 L 9.478,20.311 c -0.198,2.69 -2.56,4.728 -5.249,4.53 L 3.096,24.758 C 0.406,24.56 -1.632,22.199 -1.434,19.509 L 0,0 Z" /></g><g
             transform="translate(132.1614,505.068)"
             id="g346"><path
               inkscape:connector-curvature="0"
               id="path348"
               style="fill:#ffffff;fill-opacity:1;fill-rule:nonzero;stroke:none"
               d="m 0,0 c 0.198,-2.689 2.559,-4.728 5.249,-4.53 l 1.133,0.083 c 2.69,0.198 4.728,2.56 4.53,5.249 l -0.826,11.281 c -0.198,2.689 -2.56,4.727 -5.249,4.53 L 3.703,16.529 C 1.014,16.332 -1.024,13.97 -0.827,11.28 L 0,0 Z" /></g><g
             transform="translate(181.2626,507.8506)"
             id="g350"><path
               inkscape:connector-curvature="0"
               id="path352"
               style="fill:#ffffff;fill-opacity:1;fill-rule:nonzero;stroke:none"
               d="m 0,0 c 0.198,-2.689 2.559,-4.728 5.249,-4.53 l 1.133,0.083 c 2.69,0.198 4.728,2.56 4.53,5.249 L 9.417,21.134 c -0.198,2.69 -2.559,4.728 -5.249,4.53 L 3.035,25.581 c -2.69,-0.198 -4.728,-2.56 -4.53,-5.249 L 0,0 Z" /></g><g
             transform="translate(165.0977,504.1801)"
             id="g354"><path
               inkscape:connector-curvature="0"
               id="path356"
               style="fill:#ffffff;fill-opacity:1;fill-rule:nonzero;stroke:none"
               d="m 0,0 c 0.198,-2.689 2.559,-4.728 5.249,-4.53 l 1.133,0.083 c 2.69,0.198 4.728,2.56 4.53,5.249 l -1.86,25.27 c -0.197,2.689 -2.559,4.727 -5.249,4.53 L 2.67,30.518 C -0.019,30.32 -2.058,27.959 -1.86,25.269 L 0,0 Z" /></g><g
             transform="translate(456.209,517.8929)"
             id="g358"><path
               inkscape:connector-curvature="0"
               id="path360"
               style="fill:#000000;fill-opacity:1;fill-rule:nonzero;stroke:none"
               d="m 0,0 c -5.689,-0.452 -10.685,3.809 -11.136,9.498 l -1.549,19.5 c -0.452,5.689 3.809,10.686 9.498,11.137 l 1.132,0.09 C 3.634,40.677 8.63,36.416 9.082,30.727 L 10.63,11.226 C 11.082,5.537 6.822,0.542 1.133,0.09 L 0,0 Z" /></g><g
             transform="translate(472.4187,520.8355)"
             id="g362"><path
               inkscape:connector-curvature="0"
               id="path364"
               style="fill:#000000;fill-opacity:1;fill-rule:nonzero;stroke:none"
               d="m 0,0 c -5.689,-0.452 -10.685,3.809 -11.136,9.498 l -0.898,11.275 c -0.452,5.689 3.808,10.685 9.497,11.137 L -1.404,32 C 4.285,32.452 9.281,28.19 9.732,22.501 L 10.63,11.226 C 11.082,5.537 6.822,0.542 1.133,0.09 L 0,0 Z" /></g><g
             transform="translate(423.4655,516.1204)"
             id="g366"><path
               inkscape:connector-curvature="0"
               id="path368"
               style="fill:#000000;fill-opacity:1;fill-rule:nonzero;stroke:none"
               d="m 0,0 c -5.689,-0.452 -10.685,3.809 -11.136,9.498 l -1.614,20.323 c -0.452,5.689 3.809,10.685 9.498,11.137 l 1.132,0.09 C 3.569,41.5 8.565,37.238 9.017,31.549 L 10.63,11.226 C 11.082,5.537 6.822,0.542 1.133,0.09 L 0,0 Z" /></g><g
             transform="translate(440.0004,514.9503)"
             id="g370"><path
               inkscape:connector-curvature="0"
               id="path372"
               style="fill:#000000;fill-opacity:1;fill-rule:nonzero;stroke:none"
               d="m 0,0 c -5.689,-0.452 -10.685,3.809 -11.136,9.498 l -2.004,25.258 c -0.452,5.689 3.809,10.686 9.497,11.137 l 1.133,0.09 C 3.179,46.435 8.175,42.174 8.627,36.485 L 10.63,11.226 C 11.082,5.537 6.822,0.542 1.133,0.09 L 0,0 Z" /></g><g
             transform="translate(461.4097,528.688)"
             id="g374"><path
               inkscape:connector-curvature="0"
               id="path376"
               style="fill:#ffffff;fill-opacity:1;fill-rule:nonzero;stroke:none"
               d="m 0,0 c 0.213,-2.688 -1.811,-5.062 -4.499,-5.275 l -1.133,-0.09 c -2.688,-0.214 -5.062,1.811 -5.275,4.499 l -1.549,19.5 c -0.213,2.688 1.811,5.062 4.499,5.276 L -6.824,24 c 2.688,0.213 5.062,-1.811 5.275,-4.5 L 0,0 Z" /></g><g
             transform="translate(477.6195,531.6306)"
             id="g378"><path
               inkscape:connector-curvature="0"
               id="path380"
               style="fill:#ffffff;fill-opacity:1;fill-rule:nonzero;stroke:none"
               d="m 0,0 c 0.213,-2.688 -1.811,-5.062 -4.499,-5.275 l -1.133,-0.09 c -2.688,-0.214 -5.062,1.811 -5.275,4.499 l -0.898,11.275 c -0.214,2.688 1.811,5.062 4.499,5.275 l 1.133,0.09 c 2.688,0.214 5.061,-1.811 5.275,-4.499 L 0,0 Z" /></g><g
             transform="translate(428.6661,526.9155)"
             id="g382"><path
               inkscape:connector-curvature="0"
               id="path384"
               style="fill:#ffffff;fill-opacity:1;fill-rule:nonzero;stroke:none"
               d="m 0,0 c 0.213,-2.688 -1.811,-5.062 -4.499,-5.275 l -1.133,-0.09 c -2.688,-0.214 -5.062,1.811 -5.275,4.499 l -1.614,20.323 c -0.213,2.688 1.811,5.062 4.499,5.275 l 1.133,0.09 c 2.688,0.214 5.062,-1.811 5.275,-4.499 L 0,0 Z" /></g><g
             transform="translate(445.2011,525.7454)"
             id="g386"><path
               inkscape:connector-curvature="0"
               id="path388"
               style="fill:#ffffff;fill-opacity:1;fill-rule:nonzero;stroke:none"
               d="m 0,0 c 0.213,-2.688 -1.811,-5.062 -4.499,-5.275 l -1.133,-0.09 c -2.688,-0.214 -5.062,1.811 -5.275,4.499 l -2.004,25.258 c -0.214,2.688 1.811,5.062 4.499,5.275 l 1.133,0.09 c 2.688,0.214 5.062,-1.81 5.275,-4.499 L 0,0 Z" /></g></g></g></g></g></svg>