<?xml version="1.0" encoding="UTF-8" standalone="no"?>
<!-- Created with Inkscape (http://www.inkscape.org/) -->

<svg
   xmlns:dc="http://purl.org/dc/elements/1.1/"
   xmlns:cc="http://creativecommons.org/ns#"
   xmlns:rdf="http://www.w3.org/1999/02/22-rdf-syntax-ns#"
   xmlns:svg="http://www.w3.org/2000/svg"
   xmlns="http://www.w3.org/2000/svg"
   xmlns:sodipodi="http://sodipodi.sourceforge.net/DTD/sodipodi-0.dtd"
   xmlns:inkscape="http://www.inkscape.org/namespaces/inkscape"
   id="svg2"
   version="1.1"
   inkscape:version="0.91 r13725"
   width="3000"
   height="3000"
   viewBox="0 0 3000 3000"
   sodipodi:docname="CUSTOM_RECENT_LOCATION.W+RO.v1.svg"
   inkscape:export-filename="D:\ASUS WEBSTORAGE\R+D\CABS\DEV TEAM\WIREFRAME + PROTOTYPE\CUSTOM ICONS\FINAL CUSTOM LOGOS.v5\FINAL CUSTOM LOGOS.v5.PNG\CUSTOM_WORK.W+RO.v1.png"
   inkscape:export-xdpi="1.5"
   inkscape:export-ydpi="1.5">
  <metadata
     id="metadata8">
    <rdf:RDF>
      <cc:Work
         rdf:about="">
        <dc:format>image/svg+xml</dc:format>
        <dc:type
           rdf:resource="http://purl.org/dc/dcmitype/StillImage" />
        <dc:title></dc:title>
      </cc:Work>
    </rdf:RDF>
  </metadata>
  <defs
     id="defs6">
    <pattern
       y="0"
       x="0"
       height="6"
       width="6"
       patternUnits="userSpaceOnUse"
       id="EMFhbasepattern" />
  </defs>
  <sodipodi:namedview
     pagecolor="#ffffff"
     bordercolor="#666666"
     borderopacity="1"
     objecttolerance="10"
     gridtolerance="10"
     guidetolerance="10"
     inkscape:pageopacity="0"
     inkscape:pageshadow="2"
     inkscape:window-width="1920"
     inkscape:window-height="1017"
     id="namedview4"
     showgrid="true"
     fit-margin-top="0"
     fit-margin-left="0"
     fit-margin-right="0"
     fit-margin-bottom="0"
     inkscape:zoom="0.098890192"
     inkscape:cx="1006.5474"
     inkscape:cy="1558.1025"
     inkscape:window-x="-8"
     inkscape:window-y="-8"
     inkscape:window-maximized="1"
     inkscape:current-layer="svg2"
     showguides="true"
     inkscape:guide-bbox="true"
     inkscape:object-nodes="true">
    <inkscape:grid
       type="xygrid"
       id="grid4160"
       originx="140.73122"
       originy="-100.99352" />
    <sodipodi:guide
       position="1500.7313,1499.0064"
       orientation="1,0"
       id="guide4170" />
  </sodipodi:namedview>
  <g
     id="info"
     transform="matrix(73.499988,0,0,73.499988,-2248.2686,-1374.5063)" />
  <circle
     r="1435.8459"
     cy="-1500"
     cx="-1500"
     id="path4163"
     style="fill:#ffffff;fill-opacity:1;stroke:#e8390e;stroke-width:128.30799866;stroke-linecap:round;stroke-linejoin:round;stroke-miterlimit:4;stroke-dasharray:none;stroke-opacity:1"
     transform="scale(-1,-1)"
     inkscape:export-filename="D:\ASUS WEBSTORAGE\R+D\CABS\DEV TEAM\WIREFRAME + PROTOTYPE\CUSTOM ICONS\FINAL CUSTOM LOGOS.v5\FINAL CUSTOM LOGOS.v5.PNG\CUSTOM TERMS ICON.W+RO.v1.png"
     inkscape:export-xdpi="1.5"
     inkscape:export-ydpi="1.5" />
  <path
     inkscape:connector-curvature="0"
     d="m 1500,618 c -365.2583,0 -661.5,296.2417 -661.5,661.5 0,424.9035 476.3902,955.0957 551.25,1036.1295 30.9802,33.6263 56.889,66.3705 110.25,66.3705 53.361,0 79.2698,-32.7442 110.25,-66.3705 C 1685.1098,2234.5957 2161.5,1704.4035 2161.5,1279.5 2161.5,914.2417 1865.2583,618 1500,618 Z m 0,1102.5 c -243.5422,0 -441,-197.4578 -441,-441 0,-243.5422 197.4578,-441 441,-441 243.5422,0 441,197.4578 441,441 0,243.5422 -197.4578,441 -441,441 z m 0,-661.5 c -121.716,0 -220.5,98.784 -220.5,220.5 0,121.716 98.784,220.5 220.5,220.5 121.716,0 220.5,-98.784 220.5,-220.5 0,-121.716 -98.784,-220.5 -220.5,-220.5 z"
     id="path3"
     style="fill:#e8390e;fill-opacity:1" />
</svg>
