<?xml version="1.0" encoding="UTF-8" standalone="no"?>
<!-- Created with Inkscape (http://www.inkscape.org/) -->

<svg
   xmlns:dc="http://purl.org/dc/elements/1.1/"
   xmlns:cc="http://creativecommons.org/ns#"
   xmlns:rdf="http://www.w3.org/1999/02/22-rdf-syntax-ns#"
   xmlns:svg="http://www.w3.org/2000/svg"
   xmlns="http://www.w3.org/2000/svg"
   xmlns:sodipodi="http://sodipodi.sourceforge.net/DTD/sodipodi-0.dtd"
   xmlns:inkscape="http://www.inkscape.org/namespaces/inkscape"
   id="svg2"
   version="1.1"
   inkscape:version="0.91 r13725"
   width="3000"
   height="3000"
   viewBox="0 0 3000 3000"
   sodipodi:docname="CUSTOM WALKING ICON.RO.v3.svg"
   inkscape:export-filename="D:\ASUS WEBSTORAGE\R+D\CABS\DEV TEAM\WIREFRAME + PROTOTYPE\CUSTOM ICONS\CUSTOM FERRY ICON.v1.png"
   inkscape:export-xdpi="1.5"
   inkscape:export-ydpi="1.5">
  <metadata
     id="metadata8">
    <rdf:RDF>
      <cc:Work
         rdf:about="">
        <dc:format>image/svg+xml</dc:format>
        <dc:type
           rdf:resource="http://purl.org/dc/dcmitype/StillImage" />
        <dc:title></dc:title>
      </cc:Work>
    </rdf:RDF>
  </metadata>
  <defs
     id="defs6">
    <pattern
       y="0"
       x="0"
       height="6"
       width="6"
       patternUnits="userSpaceOnUse"
       id="EMFhbasepattern" />
  </defs>
  <sodipodi:namedview
     pagecolor="#ffffff"
     bordercolor="#666666"
     borderopacity="1"
     objecttolerance="10"
     gridtolerance="10"
     guidetolerance="10"
     inkscape:pageopacity="0"
     inkscape:pageshadow="2"
     inkscape:window-width="1920"
     inkscape:window-height="1017"
     id="namedview4"
     showgrid="false"
     fit-margin-top="0"
     fit-margin-left="0"
     fit-margin-right="0"
     fit-margin-bottom="0"
     inkscape:zoom="0.19778038"
     inkscape:cx="-206.37901"
     inkscape:cy="1606.6106"
     inkscape:window-x="-8"
     inkscape:window-y="-8"
     inkscape:window-maximized="1"
     inkscape:current-layer="svg2" />
  <g
     id="g4685"
     style="fill:#000000;fill-opacity:1;stroke:#000000;stroke-opacity:1"
     transform="matrix(16.862316,0,0,16.862316,-2139.477,631.50291)" />
  <g
     id="g4145">
    <circle
       style="fill:#ffffff;fill-opacity:1;stroke:#e8390e;stroke-width:128.3081665;stroke-linecap:round;stroke-linejoin:round;stroke-miterlimit:4;stroke-dasharray:none;stroke-opacity:1"
       id="path4163"
       cx="1500"
       cy="1500"
       r="1435.8459" />
    <g
       style="fill:#e8390e;fill-opacity:1;stroke:#e8390e;stroke-opacity:1"
       transform="translate(2101.4254,-0.15247047)"
       id="g4837">
      <circle
         r="86.606285"
         cy="851.71313"
         cx="-360.40115"
         id="path4777"
         style="fill:#e8390e;fill-opacity:1;stroke:#e8390e;stroke-width:171.29022217;stroke-linecap:round;stroke-linejoin:round;stroke-miterlimit:4;stroke-dasharray:none;stroke-opacity:1" />
      <path
         sodipodi:nodetypes="sscccccsccccccsccssccccccccccccccscs"
         inkscape:connector-curvature="0"
         id="path4773"
         d="m -430.47942,2305.2599 c -47.90272,0 -86.86074,-38.958 -86.86074,-86.8296 l 0,-289.6917 -147.5106,-218.7882 -72.96056,200.4 c -2.24397,6.1709 -4.92428,12.1549 -8.07209,17.9207 l -175.56036,322.5411 c -15.20921,27.9251 -44.47446,45.316 -76.29537,45.316 -14.43006,0 -28.76656,-3.6465 -41.48246,-10.6278 -42.0123,-22.8761 -57.6267,-75.7032 -34.7506,-117.7467 l 177.18105,-325.4707 131.11707,-361.7485 73.58389,-271.2101 -132.55072,38.771 0,112.3861 c 0,48.3079 -58.70135,85.0243 -105.79378,85.0243 l -0.40521,-0.096 c -39.17613,-8.3835 -67.4914,-43.2587 -67.4914,-84.9282 l 0,-168.9531 c 0,-44.2251 29.73275,-83.4325 72.30607,-95.338 l 330.76906,-94.7148 c 73.67738,-20.72561 154.27372,9.3188 196.78463,72.1191 l 185.22209,253.7257 57.31501,39.4879 c 19.07381,13.1834 31.8831,32.974 36.09058,55.7878 4.20749,22.7827 -0.74868,45.9081 -13.9313,64.982 -16.17535,23.4995 -42.91612,37.5555 -71.49572,37.5555 l 0,0 c -17.64017,0 -34.68831,-5.3294 -49.27422,-15.3962 l -76.10823,-73.2099 -98.92227,-130.1821 -122.48393,260.3642 187.99572,278.7835 c 13.33927,19.6972 20.35163,42.698 20.35163,66.5714 l 0,306.3658 c 0.0337,47.8716 -38.89563,86.8296 -86.76724,86.8296 z"
         style="fill:#e8390e;fill-opacity:1;stroke:#e8390e;stroke-width:31.16640472;stroke-opacity:1" />
      <path
         sodipodi:nodetypes="ccsssssccccccccccccccssccsccccccccccc"
         inkscape:connector-curvature="0"
         id="path4691"
         d="m -673.20335,1641.8206 187.02961,277.381 0,299.1975 c 0,30.699 24.96429,55.6633 55.6321,55.6633 l 0.0674,0 c 30.66783,0 55.63215,-24.9643 55.63215,-55.6633 l 0,-306.3657 c 0,-17.5779 -5.20489,-34.5947 -14.9911,-49.1183 l -197.93786,-293.494 151.90508,-322.884 128.46792,169.3894 72.55534,69.7816 c 7.35534,4.8308 18.29477,8.2591 29.57701,8.2591 l 0,0 c 18.32579,0 35.46735,-9.0071 45.84577,-24.0605 8.446,-12.2795 11.62505,-27.0524 8.94478,-41.6694 -2.71146,-14.6171 -10.93942,-27.3018 -23.12548,-35.7168 l -63.24195,-44.6614 -187.12314,-256.3125 c -35.49847,-52.4843 -102.25692,-76.9499 -162.81324,-60.0889 l -330.76906,94.7147 c -29.26526,8.1968 -49.64809,35.0311 -49.64809,65.356 l 0,168.9531 c 0,30.6989 22.628,59.1676 55.6632,55.6632 l 0,0.187 c 27.48877,-7.8228 55.69437,-31.6339 55.69437,-55.8502 l 0,-135.7609 40.57529,-11.8643 167.80329,-49.066 -88.57491,326.1564 -132.45724,365.1457 -178.11609,327.6212 c -14.6793,26.9278 -4.6749,60.8057 22.2529,75.5162 26.33562,14.3366 61.39782,3.74 75.5162,-22.284 l 175.56037,-322.5411 c 2.39981,-4.3945 4.48797,-8.9448 6.17095,-13.6509 z"
         style="fill:#e8390e;fill-opacity:1;stroke:#e8390e;stroke-width:31.16640472;stroke-opacity:1" />
    </g>
  </g>
</svg>
