<?xml version="1.0" encoding="UTF-8" standalone="no"?>
<!-- Created with Inkscape (http://www.inkscape.org/) -->

<svg
   xmlns:dc="http://purl.org/dc/elements/1.1/"
   xmlns:cc="http://creativecommons.org/ns#"
   xmlns:rdf="http://www.w3.org/1999/02/22-rdf-syntax-ns#"
   xmlns:svg="http://www.w3.org/2000/svg"
   xmlns="http://www.w3.org/2000/svg"
   xmlns:sodipodi="http://sodipodi.sourceforge.net/DTD/sodipodi-0.dtd"
   xmlns:inkscape="http://www.inkscape.org/namespaces/inkscape"
   id="svg2"
   version="1.1"
   inkscape:version="0.91 r13725"
   width="3000"
   height="3000"
   viewBox="0 0 3000 3000"
   sodipodi:docname="CUSTOM SORT LIST FORMAT.PRICE.RO.v11.svg"
   inkscape:export-filename="D:\ASUS WEBSTORAGE\R+D\CABS\DEV TEAM\WIREFRAME + PROTOTYPE\CUSTOM ICONS\CUSTOM SORT LIST FORMAT.v9.png"
   inkscape:export-xdpi="1.5"
   inkscape:export-ydpi="1.5">
  <metadata
     id="metadata8">
    <rdf:RDF>
      <cc:Work
         rdf:about="">
        <dc:format>image/svg+xml</dc:format>
        <dc:type
           rdf:resource="http://purl.org/dc/dcmitype/StillImage" />
        <dc:title></dc:title>
      </cc:Work>
    </rdf:RDF>
  </metadata>
  <defs
     id="defs6" />
  <sodipodi:namedview
     pagecolor="#ffffff"
     bordercolor="#666666"
     borderopacity="1"
     objecttolerance="10"
     gridtolerance="10"
     guidetolerance="10"
     inkscape:pageopacity="0"
     inkscape:pageshadow="2"
     inkscape:window-width="1920"
     inkscape:window-height="1017"
     id="namedview4"
     showgrid="false"
     fit-margin-top="0"
     fit-margin-left="0"
     fit-margin-right="0"
     fit-margin-bottom="0"
     inkscape:zoom="0.14133333"
     inkscape:cx="1500"
     inkscape:cy="1500"
     inkscape:window-x="-8"
     inkscape:window-y="-8"
     inkscape:window-maximized="1"
     inkscape:current-layer="svg2" />
  <g
     id="g4149">
    <circle
       style="fill:#ffffff;fill-opacity:1;stroke:#e8390e;stroke-width:128.3081665;stroke-linecap:round;stroke-linejoin:round;stroke-miterlimit:4;stroke-dasharray:none;stroke-opacity:1"
       id="path4163"
       cx="1500"
       cy="1500"
       r="1435.8459" />
    <g
       style="fill:#e8390e;fill-opacity:1;stroke:#e8390e;stroke-opacity:1"
       id="g8257"
       transform="matrix(3.6867241,0,0,9.7760605,304.39993,786.34762)">
      <path
         style="fill:#e8390e;fill-opacity:1;stroke:#e8390e;stroke-opacity:1"
         inkscape:connector-curvature="0"
         d="m 71.5,62.571 73,0 c 1.412,0 2.635,-0.516 3.666,-1.548 1.031,-1.032 1.549,-2.254 1.549,-3.666 0,-1.412 -0.518,-2.634 -1.549,-3.667 l -36.5,-36.5 c -1.031,-1.031 -2.253,-1.548 -3.666,-1.548 -1.413,0 -2.635,0.517 -3.667,1.548 l -36.5,36.5 c -1.032,1.032 -1.548,2.255 -1.548,3.667 0,1.412 0.516,2.634 1.548,3.666 1.033,1.032 2.255,1.548 3.667,1.548 z"
         id="path8117" />
      <path
         style="fill:#e8390e;fill-opacity:1;stroke:#e8390e;stroke-opacity:1"
         inkscape:connector-curvature="0"
         d="m 144.5,83.43 -73,0 c -1.413,0 -2.635,0.516 -3.667,1.547 -1.032,1.032 -1.548,2.254 -1.548,3.666 0,1.412 0.516,2.635 1.548,3.666 l 36.5,36.5 c 1.033,1.032 2.255,1.549 3.667,1.549 1.412,0 2.635,-0.517 3.666,-1.549 l 36.5,-36.5 c 1.031,-1.031 1.549,-2.254 1.549,-3.666 0,-1.412 -0.518,-2.634 -1.549,-3.666 -1.031,-1.032 -2.254,-1.547 -3.666,-1.547 z"
         id="path8119" />
    </g>
    <path
       style="fill:#e8390e;fill-opacity:1;stroke:none;stroke-opacity:1"
       id="path3267"
       d="m 1617.9779,618.00002 0,190.40576 c -77.0471,0 -423.653,98.15413 -423.653,412.85092 0,279.9552 250.1186,356.1673 423.4699,381.178 l 0.1828,316.3665 c -126.5756,-36.1303 -149.5781,-133.5199 -167.154,-214.0235 l -277.9195,0 c 17.201,314.8493 293.7334,461.2815 445.0738,483.5209 l 0,193.7014 264.1882,0 0,-190.7722 c 209.1242,-11.1196 456.791,-191.7049 456.791,-439.2147 0,-283.4762 -246.7,-363.9418 -456.791,-385.5718 l 0,-290.0028 c 82.6654,5.8587 147.172,87.8795 154.1554,171.3652 l 275.1733,0 c 0,-281.21465 -255.8529,-429.14532 -432.075,-439.39792 l 0,-190.40577 -261.4419,0 z m 1.4646,461.18478 0,240.3874 c -186.2344,-2.9294 -189.8551,-207.0342 0,-240.3874 z m 265.836,568.4711 c 230.4613,5.8587 255.9845,235.8352 -0.3662,272.6098 l 0.3662,-272.6098 z"
       inkscape:connector-curvature="0" />
  </g>
</svg>
