<?xml version="1.0" encoding="UTF-8" standalone="no"?>
<!-- Created with Inkscape (http://www.inkscape.org/) -->

<svg
   xmlns:dc="http://purl.org/dc/elements/1.1/"
   xmlns:cc="http://creativecommons.org/ns#"
   xmlns:rdf="http://www.w3.org/1999/02/22-rdf-syntax-ns#"
   xmlns:svg="http://www.w3.org/2000/svg"
   xmlns="http://www.w3.org/2000/svg"
   xmlns:sodipodi="http://sodipodi.sourceforge.net/DTD/sodipodi-0.dtd"
   xmlns:inkscape="http://www.inkscape.org/namespaces/inkscape"
   id="svg2"
   version="1.1"
   inkscape:version="0.91 r13725"
   width="3000"
   height="3000"
   viewBox="0 0 3000 3000"
   sodipodi:docname="CUSTOM CONTACT US ICON.W+RO.v1.svg"
   inkscape:export-filename="D:\ASUS WEBSTORAGE\R+D\CABS\DEV TEAM\WIREFRAME + PROTOTYPE\CUSTOM ICONS\FINAL CUSTOM LOGOS.v5\FINAL CUSTOM LOGOS.v5.PNG\CUSTOM TOGGLE RIGHT ICON.W+RO.v4.png"
   inkscape:export-xdpi="1.5"
   inkscape:export-ydpi="1.5">
  <metadata
     id="metadata8">
    <rdf:RDF>
      <cc:Work
         rdf:about="">
        <dc:format>image/svg+xml</dc:format>
        <dc:type
           rdf:resource="http://purl.org/dc/dcmitype/StillImage" />
        <dc:title></dc:title>
      </cc:Work>
    </rdf:RDF>
  </metadata>
  <defs
     id="defs6">
    <pattern
       y="0"
       x="0"
       height="6"
       width="6"
       patternUnits="userSpaceOnUse"
       id="EMFhbasepattern" />
  </defs>
  <sodipodi:namedview
     pagecolor="#ffffff"
     bordercolor="#666666"
     borderopacity="1"
     objecttolerance="10"
     gridtolerance="10"
     guidetolerance="10"
     inkscape:pageopacity="0"
     inkscape:pageshadow="2"
     inkscape:window-width="1920"
     inkscape:window-height="1017"
     id="namedview4"
     showgrid="true"
     fit-margin-top="0"
     fit-margin-left="0"
     fit-margin-right="0"
     fit-margin-bottom="0"
     inkscape:zoom="0.13985185"
     inkscape:cx="-517.38918"
     inkscape:cy="1676.5746"
     inkscape:window-x="-8"
     inkscape:window-y="-8"
     inkscape:window-maximized="1"
     inkscape:current-layer="svg2"
     showguides="true"
     inkscape:guide-bbox="true"
     inkscape:object-nodes="true">
    <inkscape:grid
       type="xygrid"
       id="grid4160"
       originx="140.73122"
       originy="-100.99352" />
    <sodipodi:guide
       position="1500.7313,1499.0064"
       orientation="1,0"
       id="guide4170" />
  </sodipodi:namedview>
  <g
     id="g4190">
    <circle
       inkscape:export-ydpi="1.5"
       inkscape:export-xdpi="1.5"
       inkscape:export-filename="D:\ASUS WEBSTORAGE\R+D\CABS\DEV TEAM\WIREFRAME + PROTOTYPE\CUSTOM ICONS\FINAL CUSTOM LOGOS.v5\FINAL CUSTOM LOGOS.v5.PNG\CUSTOM TERMS ICON.W+RO.v1.png"
       transform="scale(-1,-1)"
       style="fill:#ffffff;fill-opacity:1;stroke:#e8390e;stroke-width:128.30799866;stroke-linecap:round;stroke-linejoin:round;stroke-miterlimit:4;stroke-dasharray:none;stroke-opacity:1"
       id="path4163"
       cx="-1500"
       cy="-1500"
       r="1435.8459" />
    <g
       transform="matrix(29.108911,0,0,29.747049,-362.9703,-402.32378)"
       id="icon"
       style="fill:#e8390e;fill-opacity:1;stroke:none;stroke-opacity:1">
      <path
         id="_x40_"
         d="m 64.3,93.6 c -17.4,0 -30.6,-12.2 -30.6,-29.4 0,-17.3 13.4,-29.9 30.9,-29.9 16.3,0 29.7,11.2 29.7,27.1 0,7.8 -3.2,17.6 -14,17.6 -4.1,0 -7.2,-1.5 -8.7,-4.4 -2.2,2.7 -5.5,4.2 -9.8,4.2 -8,0 -14.3,-5.7 -14.3,-14.8 0,-9.3 6.4,-14.9 14.3,-14.9 3.6,0 6.6,1.2 8.8,3.3 l 0,-2.7 8,0 0,20 c 0,2.2 1.7,3.3 3.6,3.3 4,0 5.8,-6.1 5.8,-11.5 0,-13 -10.5,-21.6 -23.5,-21.6 -14,0 -24.6,10.2 -24.6,24 0,13.8 10.6,23.6 24.2,23.6 6.1,0 12,-1.9 17.3,-6 l 3.2,5.1 c -5.2,4.5 -12.5,7 -20.3,7 m 6.3,-29.5 c 0,-4.5 -3.3,-7.3 -6.9,-7.3 -3.5,0 -6.8,2.7 -6.8,7.3 0,4.6 3.3,7.3 6.8,7.3 3.6,0.1 6.9,-2.8 6.9,-7.3 z"
         inkscape:connector-curvature="0"
         style="fill:#e8390e;fill-opacity:1;stroke:none;stroke-opacity:1" />
    </g>
  </g>
</svg>
