<?xml version="1.0" encoding="UTF-8" standalone="no"?>
<!-- Created with Inkscape (http://www.inkscape.org/) -->

<svg
   xmlns:dc="http://purl.org/dc/elements/1.1/"
   xmlns:cc="http://creativecommons.org/ns#"
   xmlns:rdf="http://www.w3.org/1999/02/22-rdf-syntax-ns#"
   xmlns:svg="http://www.w3.org/2000/svg"
   xmlns="http://www.w3.org/2000/svg"
   xmlns:sodipodi="http://sodipodi.sourceforge.net/DTD/sodipodi-0.dtd"
   xmlns:inkscape="http://www.inkscape.org/namespaces/inkscape"
   id="svg2"
   version="1.1"
   inkscape:version="0.91 r13725"
   width="3000"
   height="3000"
   viewBox="0 0 3000 3000"
   sodipodi:docname="CUSTOM APP SETTINGS ICON.W+RO.v1.svg"
   inkscape:export-filename="D:\ASUS WEBSTORAGE\R+D\CABS\DEV TEAM\WIREFRAME + PROTOTYPE\CUSTOM ICONS\FINAL CUSTOM LOGOS.v5\FINAL CUSTOM LOGOS.v5.PNG\CUSTOM TOGGLE RIGHT ICON.W+RO.v4.png"
   inkscape:export-xdpi="1.5"
   inkscape:export-ydpi="1.5">
  <metadata
     id="metadata8">
    <rdf:RDF>
      <cc:Work
         rdf:about="">
        <dc:format>image/svg+xml</dc:format>
        <dc:type
           rdf:resource="http://purl.org/dc/dcmitype/StillImage" />
        <dc:title></dc:title>
      </cc:Work>
    </rdf:RDF>
  </metadata>
  <defs
     id="defs6">
    <pattern
       y="0"
       x="0"
       height="6"
       width="6"
       patternUnits="userSpaceOnUse"
       id="EMFhbasepattern" />
  </defs>
  <sodipodi:namedview
     pagecolor="#ffffff"
     bordercolor="#666666"
     borderopacity="1"
     objecttolerance="10"
     gridtolerance="10"
     guidetolerance="10"
     inkscape:pageopacity="0"
     inkscape:pageshadow="2"
     inkscape:window-width="1920"
     inkscape:window-height="1017"
     id="namedview4"
     showgrid="true"
     fit-margin-top="0"
     fit-margin-left="0"
     fit-margin-right="0"
     fit-margin-bottom="0"
     inkscape:zoom="0.19778038"
     inkscape:cx="1500"
     inkscape:cy="1676.5746"
     inkscape:window-x="-8"
     inkscape:window-y="-8"
     inkscape:window-maximized="1"
     inkscape:current-layer="svg2"
     showguides="true"
     inkscape:guide-bbox="true"
     inkscape:object-nodes="true">
    <inkscape:grid
       type="xygrid"
       id="grid4160"
       originx="140.73122"
       originy="-100.99352" />
    <sodipodi:guide
       position="1500.7313,1499.0064"
       orientation="1,0"
       id="guide4170" />
  </sodipodi:namedview>
  <g
     id="g4164">
    <circle
       transform="scale(-1,-1)"
       style="fill:#ffffff;fill-opacity:1;stroke:#e8390e;stroke-width:128.30799866;stroke-linecap:round;stroke-linejoin:round;stroke-miterlimit:4;stroke-dasharray:none;stroke-opacity:1"
       id="path4163"
       cx="-1500"
       cy="-1500"
       r="1435.8459" />
    <g
       transform="matrix(88.643226,0,0,88.643226,607.96305,617.9999)"
       style="fill:#e8390e;fill-opacity:1;fill-rule:evenodd;stroke:none;stroke-width:1"
       id="Page-1">
      <g
         style="fill:#e8390e;fill-opacity:1"
         id="Core"
         transform="translate(-464,-380)">
        <g
           style="fill:#e8390e;fill-opacity:1"
           id="settings"
           transform="translate(464,380)">
          <path
             style="fill:#e8390e;fill-opacity:1"
             inkscape:connector-curvature="0"
             d="m 17.4,11 c 0,-0.3 0.1,-0.6 0.1,-1 0,-0.4 0,-0.7 -0.1,-1 l 2.1,-1.7 c 0.2,-0.2 0.2,-0.4 0.1,-0.6 l -2,-3.5 C 17.5,3.1 17.3,3 17,3.1 l -2.5,1 C 14,3.7 13.4,3.4 12.8,3.1 L 12.4,0.5 C 12.5,0.2 12.2,0 12,0 L 8,0 C 7.8,0 7.5,0.2 7.5,0.4 L 7.1,3.1 C 6.5,3.3 6,3.7 5.4,4.1 L 3,3.1 C 2.7,3 2.5,3.1 2.3,3.3 l -2,3.5 c -0.1,0.1 0,0.4 0.2,0.6 L 2.6,9 c 0,0.3 -0.1,0.6 -0.1,1 0,0.4 0,0.7 0.1,1 l -2.1,1.7 c -0.2,0.2 -0.2,0.4 -0.1,0.6 l 2,3.5 C 2.5,16.9 2.7,17 3,16.9 l 2.5,-1 c 0.5,0.4 1.1,0.7 1.7,1 l 0.4,2.6 c 0,0.2 0.2,0.4 0.5,0.4 l 4,0 c 0.2,0 0.5,-0.2 0.5,-0.4 L 13,16.9 c 0.6,-0.3 1.2,-0.6 1.7,-1 l 2.5,1 c 0.2,0.1 0.5,0 0.6,-0.2 l 2,-3.5 c 0.1,-0.2 0.1,-0.5 -0.1,-0.6 l -2.3,-1.6 0,0 z M 10,13.5 C 8.1,13.5 6.5,11.9 6.5,10 6.5,8.1 8.1,6.5 10,6.5 c 1.9,0 3.5,1.6 3.5,3.5 0,1.9 -1.6,3.5 -3.5,3.5 l 0,0 z"
             id="Shape" />
        </g>
      </g>
    </g>
  </g>
</svg>
