<?xml version="1.0" encoding="UTF-8" standalone="no"?>
<!-- Created with Inkscape (http://www.inkscape.org/) -->

<svg
   xmlns:dc="http://purl.org/dc/elements/1.1/"
   xmlns:cc="http://creativecommons.org/ns#"
   xmlns:rdf="http://www.w3.org/1999/02/22-rdf-syntax-ns#"
   xmlns:svg="http://www.w3.org/2000/svg"
   xmlns="http://www.w3.org/2000/svg"
   xmlns:sodipodi="http://sodipodi.sourceforge.net/DTD/sodipodi-0.dtd"
   xmlns:inkscape="http://www.inkscape.org/namespaces/inkscape"
   id="svg2"
   version="1.1"
   inkscape:version="0.91 r13725"
   width="3000"
   height="3000"
   viewBox="0 0 3000 3000"
   sodipodi:docname="CUSTOM FULL MAP ICON.RO.v4.svg"
   inkscape:export-filename="D:\ASUS WEBSTORAGE\R+D\CABS\DEV TEAM\WIREFRAME + PROTOTYPE\CUSTOM ICONS\CUSTOM VIEW ICON.v2.png"
   inkscape:export-xdpi="1.5"
   inkscape:export-ydpi="1.5">
  <metadata
     id="metadata8">
    <rdf:RDF>
      <cc:Work
         rdf:about="">
        <dc:format>image/svg+xml</dc:format>
        <dc:type
           rdf:resource="http://purl.org/dc/dcmitype/StillImage" />
        <dc:title></dc:title>
      </cc:Work>
    </rdf:RDF>
  </metadata>
  <defs
     id="defs6">
    <pattern
       y="0"
       x="0"
       height="6"
       width="6"
       patternUnits="userSpaceOnUse"
       id="EMFhbasepattern" />
  </defs>
  <sodipodi:namedview
     pagecolor="#ffffff"
     bordercolor="#666666"
     borderopacity="1"
     objecttolerance="10"
     gridtolerance="10"
     guidetolerance="10"
     inkscape:pageopacity="0"
     inkscape:pageshadow="2"
     inkscape:window-width="1920"
     inkscape:window-height="1017"
     id="namedview4"
     showgrid="false"
     fit-margin-top="0"
     fit-margin-left="0"
     fit-margin-right="0"
     fit-margin-bottom="0"
     inkscape:zoom="0.19778038"
     inkscape:cx="802.31558"
     inkscape:cy="1856.0036"
     inkscape:window-x="-8"
     inkscape:window-y="-8"
     inkscape:window-maximized="1"
     inkscape:current-layer="svg2" />
  <g
     id="g4138">
    <circle
       style="fill:#ffffff;fill-opacity:1;stroke:#e8390e;stroke-width:128.3081665;stroke-linecap:round;stroke-linejoin:round;stroke-miterlimit:4;stroke-dasharray:none;stroke-opacity:1"
       id="path4163"
       cx="1500"
       cy="1500"
       r="1435.8459" />
    <path
       inkscape:connector-curvature="0"
       d="m 1499.9999,619.2631 c -486.4151,0 -880.73672,394.3216 -880.73672,880.737 0,486.4151 394.32162,880.7368 880.73672,880.7368 486.4152,0 880.7369,-394.3217 880.7369,-880.7368 0,-486.4154 -394.3217,-880.737 -880.7369,-880.737 z m 27.5737,1601.9025 c -10.0493,9.0106 -20.4826,10.9074 -27.4833,10.9074 -7.0685,0 -17.6148,-1.9195 -27.8222,-11.0884 -123.9581,-111.5147 -215.1934,-254.0811 -267.1119,-411.9139 193.4686,-49.434 396.693,-50.1115 590.4551,-2.0549 -51.8279,158.7358 -143.4472,302.1379 -268.0377,414.1498 z M 1171.9594,1677.728 c -10.5915,-58.1285 -16.3502,-117.5444 -16.3502,-177.7279 0,-60.1838 5.7587,-119.5997 16.3276,-177.7283 109.0081,27.7997 220.7712,41.7558 332.5798,41.7558 108.85,0 217.6774,-13.256 323.953,-39.6105 10.3204,57.4512 15.9436,116.1445 15.9436,175.583 0,59.4384 -5.6232,118.1315 -15.9436,175.5826 -215.4418,-53.4312 -441.3846,-52.7538 -656.5102,2.1453 z m 300.4893,-898.89358 c 10.0268,-9.01037 20.4826,-10.90752 27.461,-10.90752 7.0683,0 17.6146,1.9421 27.8222,11.08841 124.5,111.98895 216.0289,255.32339 267.8343,413.96869 -193.7621,48.034 -396.9867,47.3791 -590.4549,-2.0548 51.9408,-157.9003 143.2663,-300.55722 267.3374,-412.09478 z m 486.3925,505.99488 c 74.2303,-26.6707 146.5411,-60.1386 216.0967,-100.2912 45.0079,95.8648 70.3009,202.75 70.3009,315.462 0,112.7117 -25.293,219.5969 -70.2783,315.4616 -69.5556,-40.1752 -141.8664,-73.6204 -216.0967,-100.2908 13.6401,-70.143 21.0474,-142.1151 21.0474,-215.1708 -0.022,-73.0561 -7.4073,-145.0055 -21.07,-215.1708 z m 147.6025,-217.1807 c -58.49,33.7389 -119.1253,62.3065 -181.3189,85.4087 -43.2916,-133.3976 -111.4245,-256.83642 -200.2208,-363.56354 155.3484,49.2986 288.6784,148.27996 381.5397,278.15484 z M 1275.1183,789.51636 c -88.0961,105.89161 -155.7999,228.24624 -199.1142,360.44704 -61.6969,-23.4185 -121.85763,-52.0536 -179.82832,-85.9735 C 988.90155,935.92179 1121.2153,838.34069 1275.1183,789.51636 Z M 826.86858,1180.4504 c 69.1265,40.4916 141.0082,74.3433 214.83212,101.4204 -14.0241,71.0912 -21.5894,144.0569 -21.5894,218.1293 0,74.0721 7.5428,147.0377 21.5894,218.129 -73.82392,27.0997 -145.70562,60.9288 -214.83212,101.4204 -46.1821,-96.9039 -72.1074,-205.2345 -72.1074,-319.5494 0,-114.3152 25.9253,-222.6458 72.1074,-319.5497 z m 69.3072,755.537 c 57.948,-33.8973 118.10912,-62.5551 179.82832,-85.9736 43.3143,132.2009 111.0181,254.5782 199.1142,360.4698 -153.903,-48.8244 -286.21676,-146.4054 -378.94253,-274.4962 z m 828.72822,274.4962 c 88.7963,-106.7498 156.9066,-230.1658 200.1982,-363.5636 62.1936,23.1025 122.8289,51.6924 181.3189,85.4087 -92.8387,129.8749 -226.1687,228.8562 -381.5171,278.1549 z"
       style="fill:#e8390e;fill-opacity:1;stroke:#e8390e;stroke-width:1.21200001;stroke-miterlimit:4;stroke-dasharray:none;stroke-opacity:1"
       id="path4191" />
  </g>
</svg>
