<?xml version="1.0" encoding="UTF-8" standalone="no"?>
<!-- Created with Inkscape (http://www.inkscape.org/) -->

<svg
   xmlns:dc="http://purl.org/dc/elements/1.1/"
   xmlns:cc="http://creativecommons.org/ns#"
   xmlns:rdf="http://www.w3.org/1999/02/22-rdf-syntax-ns#"
   xmlns:svg="http://www.w3.org/2000/svg"
   xmlns="http://www.w3.org/2000/svg"
   xmlns:sodipodi="http://sodipodi.sourceforge.net/DTD/sodipodi-0.dtd"
   xmlns:inkscape="http://www.inkscape.org/namespaces/inkscape"
   id="svg2"
   version="1.1"
   inkscape:version="0.91 r13725"
   width="3000"
   height="3000"
   viewBox="0 0 3000 3000"
   sodipodi:docname="CUSTOM FILTER ICON.RO.v4.svg"
   inkscape:export-filename="D:\ASUS WEBSTORAGE\R+D\CABS\DEV TEAM\WIREFRAME + PROTOTYPE\CUSTOM ICONS\CUSTOM FULL MAP ICON.v2.png"
   inkscape:export-xdpi="1.5"
   inkscape:export-ydpi="1.5">
  <metadata
     id="metadata8">
    <rdf:RDF>
      <cc:Work
         rdf:about="">
        <dc:format>image/svg+xml</dc:format>
        <dc:type
           rdf:resource="http://purl.org/dc/dcmitype/StillImage" />
        <dc:title></dc:title>
      </cc:Work>
    </rdf:RDF>
  </metadata>
  <defs
     id="defs6">
    <pattern
       y="0"
       x="0"
       height="6"
       width="6"
       patternUnits="userSpaceOnUse"
       id="EMFhbasepattern" />
  </defs>
  <sodipodi:namedview
     pagecolor="#ffffff"
     bordercolor="#666666"
     borderopacity="1"
     objecttolerance="10"
     gridtolerance="10"
     guidetolerance="10"
     inkscape:pageopacity="0"
     inkscape:pageshadow="2"
     inkscape:window-width="1920"
     inkscape:window-height="1017"
     id="namedview4"
     showgrid="false"
     fit-margin-top="0"
     fit-margin-left="0"
     fit-margin-right="0"
     fit-margin-bottom="0"
     inkscape:zoom="0.13985185"
     inkscape:cx="1483.208"
     inkscape:cy="1653.7591"
     inkscape:window-x="-8"
     inkscape:window-y="-8"
     inkscape:window-maximized="1"
     inkscape:current-layer="svg2" />
  <g
     id="g4138">
    <circle
       style="fill:#ffffff;fill-opacity:1;stroke:#e8390e;stroke-width:128.3081665;stroke-linecap:round;stroke-linejoin:round;stroke-miterlimit:4;stroke-dasharray:none;stroke-opacity:1"
       id="path4163"
       cx="1500"
       cy="1500"
       r="1435.8459" />
    <path
       inkscape:connector-curvature="0"
       id="path4147"
       d="m 1402.3023,2377.5361 c -27.0751,-4.4478 -61.5971,-37.8339 -69.8514,-67.5527 -2.1947,-7.902 -3.4317,-105.6649 -3.4436,-272.1681 l -0.017,-259.8368 -269.4256,-269.9925 C 822.4192,1270.3427 789.17192,1235.784 782.07416,1219.5504 c -7.78833,-17.8133 -8.09895,-21.6595 -9.08983,-112.5485 -0.96633,-88.6356 -0.61874,-95.1932 5.9802,-112.83045 9.77551,-26.12725 29.31542,-47.06167 56.34975,-60.37098 l 22.38745,-11.02161 635.53067,-0.89066 c 628.2219,-0.88055 635.7867,-0.81325 657.7803,5.84775 40.1393,12.15652 69.3309,46.79167 76.457,90.71455 4.2554,26.228 4.5035,130.1207 0.3868,162.0652 -1.8052,14.009 -7.1826,31.7086 -13.7534,45.2702 -9.9093,20.4518 -32.4945,44.0169 -276.9308,288.9465 l -266.1416,266.6787 0,260.0382 c 0,288.7542 0.8277,277.4867 -22.3548,304.5694 -6.562,7.666 -19.6839,18.0277 -29.1599,23.026 l -17.229,9.0877 -95.5704,0.4285 c -52.5638,0.2356 -99.5499,-0.2259 -104.4138,-1.0243 z"
       style="fill:#e8390e;fill-opacity:1;stroke:#e8390e;stroke-opacity:1" />
  </g>
</svg>
