<?xml version="1.0" encoding="UTF-8" standalone="no"?>
<!-- Created with Inkscape (http://www.inkscape.org/) -->

<svg
   xmlns:dc="http://purl.org/dc/elements/1.1/"
   xmlns:cc="http://creativecommons.org/ns#"
   xmlns:rdf="http://www.w3.org/1999/02/22-rdf-syntax-ns#"
   xmlns:svg="http://www.w3.org/2000/svg"
   xmlns="http://www.w3.org/2000/svg"
   xmlns:sodipodi="http://sodipodi.sourceforge.net/DTD/sodipodi-0.dtd"
   xmlns:inkscape="http://www.inkscape.org/namespaces/inkscape"
   id="svg2"
   version="1.1"
   inkscape:version="0.91 r13725"
   width="3000"
   height="3000"
   viewBox="0 0 3000 3000"
   sodipodi:docname="CUSTOM WAIT ICON.W+RO.v1.svg"
   inkscape:export-filename="D:\ASUS WEBSTORAGE\R+D\CABS\DEV TEAM\WIREFRAME + PROTOTYPE\CUSTOM ICONS\FINAL CUSTOM LOGOS.v5\FINAL CUSTOM LOGOS.v5.PNG\CUSTOM TOGGLE RIGHT ICON.W+RO.v4.png"
   inkscape:export-xdpi="1.5"
   inkscape:export-ydpi="1.5">
  <metadata
     id="metadata8">
    <rdf:RDF>
      <cc:Work
         rdf:about="">
        <dc:format>image/svg+xml</dc:format>
        <dc:type
           rdf:resource="http://purl.org/dc/dcmitype/StillImage" />
        <dc:title></dc:title>
      </cc:Work>
    </rdf:RDF>
  </metadata>
  <defs
     id="defs6">
    <pattern
       y="0"
       x="0"
       height="6"
       width="6"
       patternUnits="userSpaceOnUse"
       id="EMFhbasepattern" />
  </defs>
  <sodipodi:namedview
     pagecolor="#ffffff"
     bordercolor="#666666"
     borderopacity="1"
     objecttolerance="10"
     gridtolerance="10"
     guidetolerance="10"
     inkscape:pageopacity="0"
     inkscape:pageshadow="2"
     inkscape:window-width="1920"
     inkscape:window-height="1017"
     id="namedview4"
     showgrid="true"
     fit-margin-top="0"
     fit-margin-left="0"
     fit-margin-right="0"
     fit-margin-bottom="0"
     inkscape:zoom="0.19778038"
     inkscape:cx="554.41331"
     inkscape:cy="1575.4523"
     inkscape:window-x="-8"
     inkscape:window-y="-8"
     inkscape:window-maximized="1"
     inkscape:current-layer="svg2"
     showguides="true"
     inkscape:guide-bbox="true"
     inkscape:object-nodes="true">
    <inkscape:grid
       type="xygrid"
       id="grid4160"
       originx="140.73122"
       originy="-100.99352" />
    <sodipodi:guide
       position="1500.7313,1499.0064"
       orientation="1,0"
       id="guide4170" />
  </sodipodi:namedview>
  <g
     id="g4164">
    <circle
       transform="scale(-1,-1)"
       style="fill:#ffffff;fill-opacity:1;stroke:#e8390e;stroke-width:128.30799866;stroke-linecap:round;stroke-linejoin:round;stroke-miterlimit:4;stroke-dasharray:none;stroke-opacity:1"
       id="path4163"
       cx="-1500"
       cy="-1500"
       r="1435.8459" />
    <g
       style="fill:#e8390e;fill-opacity:1;stroke:#e8390e;stroke-opacity:1"
       transform="translate(141.2645,159.58341)"
       id="g4160">
      <path
         inkscape:connector-curvature="0"
         d="m 1616.7398,459.83968 -516.0086,0 c -9.9811,0 -18.626,9.67172 -25.9137,29.01535 -7.2882,19.34362 -10.9493,42.2486 -10.9493,68.7149 0,26.46622 3.6611,49.37107 10.9493,68.73347 l 258.0044,684.149 c 7.2878,19.3248 15.9256,29.0163 25.9136,29.0163 9.9879,0 18.6257,-9.6915 25.9207,-29.0163 l 258.0044,-684.149 c 7.2939,-19.34362 10.9422,-42.26725 10.9422,-68.73347 0,-26.4663 -3.6483,-49.37128 -10.9422,-68.7149 -7.302,-19.34363 -15.9398,-29.01535 -25.9208,-29.01535 z"
         id="path8117-4"
         style="fill:#e8390e;fill-opacity:1;stroke:#e8390e;stroke-width:1.91731679;stroke-opacity:1" />
      <path
         inkscape:connector-curvature="0"
         d="m 1100.7312,2220.9935 516.0086,0 c 9.9881,0 18.626,-9.671 25.9208,-28.9962 7.2939,-19.3435 10.9422,-42.2486 10.9422,-68.715 0,-26.4659 -3.6483,-49.3897 -10.9422,-68.7145 l -258.0044,-684.1487 c -7.302,-19.3437 -15.9398,-29.0346 -25.9207,-29.0346 -9.9809,0 -18.6258,9.6909 -25.9136,29.0346 l -258.0044,684.1487 c -7.2882,19.3248 -10.9493,42.2486 -10.9493,68.7145 0,26.4664 3.6611,49.3715 10.9493,68.715 7.2877,19.3438 15.9326,28.9962 25.9137,28.9962 z"
         id="path8119-1"
         style="fill:#e8390e;fill-opacity:1;stroke:#e8390e;stroke-width:1.91731679;stroke-opacity:1" />
    </g>
  </g>
</svg>
