<?xml version="1.0" encoding="UTF-8" standalone="no"?>
<!-- Created with Inkscape (http://www.inkscape.org/) -->

<svg
   xmlns:dc="http://purl.org/dc/elements/1.1/"
   xmlns:cc="http://creativecommons.org/ns#"
   xmlns:rdf="http://www.w3.org/1999/02/22-rdf-syntax-ns#"
   xmlns:svg="http://www.w3.org/2000/svg"
   xmlns="http://www.w3.org/2000/svg"
   xmlns:sodipodi="http://sodipodi.sourceforge.net/DTD/sodipodi-0.dtd"
   xmlns:inkscape="http://www.inkscape.org/namespaces/inkscape"
   id="svg2"
   version="1.1"
   inkscape:version="0.91 r13725"
   width="3000"
   height="3000"
   viewBox="0 0 3000 3000"
   sodipodi:docname="CUSTOM LIST FORMAT.PRIOR.RO.v9.svg"
   inkscape:export-filename="D:\ASUS WEBSTORAGE\R+D\CABS\DEV TEAM\WIREFRAME + PROTOTYPE\CUSTOM ICONS\CUSTOM SORT LIST FORMAT.v8.png"
   inkscape:export-xdpi="1.2830818"
   inkscape:export-ydpi="1.2830818">
  <metadata
     id="metadata8">
    <rdf:RDF>
      <cc:Work
         rdf:about="">
        <dc:format>image/svg+xml</dc:format>
        <dc:type
           rdf:resource="http://purl.org/dc/dcmitype/StillImage" />
        <dc:title></dc:title>
      </cc:Work>
    </rdf:RDF>
  </metadata>
  <defs
     id="defs6">
    <pattern
       y="0"
       x="0"
       height="6"
       width="6"
       patternUnits="userSpaceOnUse"
       id="EMFhbasepattern" />
  </defs>
  <sodipodi:namedview
     pagecolor="#ffffff"
     bordercolor="#666666"
     borderopacity="1"
     objecttolerance="10"
     gridtolerance="10"
     guidetolerance="10"
     inkscape:pageopacity="0"
     inkscape:pageshadow="2"
     inkscape:window-width="1920"
     inkscape:window-height="1017"
     id="namedview4"
     showgrid="false"
     fit-margin-top="0"
     fit-margin-left="0"
     fit-margin-right="0"
     fit-margin-bottom="0"
     inkscape:zoom="0.13985185"
     inkscape:cx="-571.871"
     inkscape:cy="1451.5145"
     inkscape:window-x="-8"
     inkscape:window-y="-8"
     inkscape:window-maximized="1"
     inkscape:current-layer="svg2" />
  <g
     id="g4154">
    <circle
       style="fill:#ffffff;fill-opacity:1;stroke:#e8390e;stroke-width:128.3081665;stroke-linecap:round;stroke-linejoin:round;stroke-miterlimit:4;stroke-dasharray:none;stroke-opacity:1"
       id="path4163"
       cx="1500"
       cy="1500"
       r="1435.8459" />
    <g
       style="fill:#e8390e;fill-opacity:1;stroke:#e8390e;stroke-opacity:1"
       transform="matrix(0.77767913,0,0,0.85538781,197.30362,69.417554)"
       id="g4180">
      <path
         inkscape:connector-curvature="0"
         id="path4149"
         d="m 1630.3888,2124.6873 0,-83.25 944.6276,0 335.4554,0 0,83.25 0,83.25 -335.4554,0 -944.6276,0 z"
         style="fill:#e8390e;fill-opacity:1;stroke:#e8390e;stroke-opacity:1" />
      <path
         inkscape:connector-curvature="0"
         id="path4145"
         d="m 1630.3888,1681.4373 0,-81 944.6276,0 335.4554,0 0,81 0,81 -335.4554,0 -944.6276,0 z"
         style="fill:#e8390e;fill-opacity:1;stroke:#e8390e;stroke-opacity:1" />
      <path
         inkscape:connector-curvature="0"
         id="path4138"
         d="m 1630.3888,1220.1873 0,-83.25 944.6276,0 335.4554,0 0,83.25 0,83.25 -335.4554,0 -944.6276,0 z"
         style="fill:#e8390e;fill-opacity:1;stroke:#e8390e;stroke-opacity:1" />
    </g>
    <g
       style="fill:#e8390e;fill-opacity:1;stroke:#e8390e;stroke-opacity:1"
       transform="matrix(0.85538781,0,0,0.85538781,140.43799,64.535084)"
       id="g4171">
      <circle
         r="60.778603"
         cy="1222.4415"
         cx="1192.8535"
         id="path4148"
         style="fill:#e8390e;fill-opacity:1;stroke:#e8390e;stroke-width:175;stroke-linecap:round;stroke-linejoin:round;stroke-miterlimit:4;stroke-dasharray:none;stroke-opacity:1" />
      <circle
         r="60.778603"
         cy="1684.1453"
         cx="1192.8535"
         id="path4148-4"
         style="fill:#e8390e;fill-opacity:1;stroke:#e8390e;stroke-width:175;stroke-linecap:round;stroke-linejoin:round;stroke-miterlimit:4;stroke-dasharray:none;stroke-opacity:1" />
      <circle
         r="60.778603"
         cy="2133.8489"
         cx="1192.8535"
         id="path4148-4-5"
         style="fill:#e8390e;fill-opacity:1;stroke:#e8390e;stroke-width:175;stroke-linecap:round;stroke-linejoin:round;stroke-miterlimit:4;stroke-dasharray:none;stroke-opacity:1" />
    </g>
    <path
       style="fill:#e8390e;fill-opacity:1;fill-rule:nonzero;stroke:#e8390e;stroke-opacity:1"
       d="m 495.7274,2061.2569 0,-1134.26323 204.44767,0 c 35.96048,0 63.4359,3.59867 82.42626,10.79613 26.66639,9.29638 48.95651,27.13973 66.93675,53.45536 17.98024,25.79054 32.39137,62.15214 43.23337,109.08554 11.11139,46.9319 16.63342,98.5135 16.63342,154.7434 0,96.4142 -14.61315,178.2091 -43.97416,245.235 -29.36096,66.5751 -82.29066,99.8631 -158.99287,99.8631 l -138.99205,0 0,461.0847 -71.71839,0 z m 71.71839,-594.9857 140.13685,0 c 46.33111,0 79.19386,-18.0686 98.72206,-54.1305 19.46177,-36.1362 29.15897,-86.9679 29.15897,-152.4184 0,-47.4581 -5.79141,-87.9434 -17.37416,-121.5316 -11.31341,-34.0365 -26.32973,-56.4537 -45.05072,-67.2498 -12.1215,-6.7475 -34.41162,-10.1214 -66.93768,-10.1214 l -138.65532,0 0,405.4517 z"
       id="path4162"
       inkscape:connector-curvature="0" />
  </g>
</svg>
