<?xml version="1.0" encoding="UTF-8" standalone="no"?>
<!-- Created with Inkscape (http://www.inkscape.org/) -->

<svg
   xmlns:dc="http://purl.org/dc/elements/1.1/"
   xmlns:cc="http://creativecommons.org/ns#"
   xmlns:rdf="http://www.w3.org/1999/02/22-rdf-syntax-ns#"
   xmlns:svg="http://www.w3.org/2000/svg"
   xmlns="http://www.w3.org/2000/svg"
   xmlns:sodipodi="http://sodipodi.sourceforge.net/DTD/sodipodi-0.dtd"
   xmlns:inkscape="http://www.inkscape.org/namespaces/inkscape"
   id="svg2"
   version="1.1"
   inkscape:version="0.91 r13725"
   width="3000"
   height="3000"
   viewBox="0 0 3000 3000"
   sodipodi:docname="CUSTOM VIEW ICON.RO.v4.svg"
   inkscape:export-filename="D:\ASUS WEBSTORAGE\R+D\CABS\DEV TEAM\WIREFRAME + PROTOTYPE\CUSTOM ICONS\CUSTOM EXPLORER FORMAT ICON.v3.png"
   inkscape:export-xdpi="1.5"
   inkscape:export-ydpi="1.5">
  <metadata
     id="metadata8">
    <rdf:RDF>
      <cc:Work
         rdf:about="">
        <dc:format>image/svg+xml</dc:format>
        <dc:type
           rdf:resource="http://purl.org/dc/dcmitype/StillImage" />
        <dc:title></dc:title>
      </cc:Work>
    </rdf:RDF>
  </metadata>
  <defs
     id="defs6">
    <pattern
       y="0"
       x="0"
       height="6"
       width="6"
       patternUnits="userSpaceOnUse"
       id="EMFhbasepattern" />
  </defs>
  <sodipodi:namedview
     pagecolor="#ffffff"
     bordercolor="#666666"
     borderopacity="1"
     objecttolerance="10"
     gridtolerance="10"
     guidetolerance="10"
     inkscape:pageopacity="0"
     inkscape:pageshadow="2"
     inkscape:window-width="1920"
     inkscape:window-height="1017"
     id="namedview4"
     showgrid="false"
     fit-margin-top="0"
     fit-margin-left="0"
     fit-margin-right="0"
     fit-margin-bottom="0"
     inkscape:zoom="0.19778038"
     inkscape:cx="802.31558"
     inkscape:cy="1653.7591"
     inkscape:window-x="-8"
     inkscape:window-y="-8"
     inkscape:window-maximized="1"
     inkscape:current-layer="svg2"
     showguides="false" />
  <g
     id="g4140">
    <circle
       style="fill:#ffffff;fill-opacity:1;stroke:#e8390e;stroke-width:128.3081665;stroke-linecap:round;stroke-linejoin:round;stroke-miterlimit:4;stroke-dasharray:none;stroke-opacity:1"
       id="path4163"
       cx="1500"
       cy="1500"
       r="1435.8459" />
    <path
       sodipodi:nodetypes="csscssssssssssccsssscssssssscssss"
       inkscape:connector-curvature="0"
       id="path4148"
       d="M 1393.3548,2071.696 C 1155.0675,2049.4093 936.80088,1962.8009 742.73998,1813.5318 660.77949,1750.4888 542.27368,1622.1769 482.1112,1531.3365 l -19.71551,-29.7688 13.38111,-21.5415 c 22.88894,-36.8477 80.0961,-109.9863 119.99582,-153.413 195.12984,-212.3791 443.23278,-343.54728 733.95738,-388.03218 50.6028,-7.7429 78.9599,-14.1635 174.9307,-14.1635 96.4814,0 119.0026,6.3926 169.8746,14.2541 275.8975,42.6364 508.169,159.68998 698.7427,352.13288 54.4773,55.0117 96.8989,105.2008 135.2336,159.9955 36.6647,52.4076 35.7866,47.0973 13.3829,80.9268 -57.7026,87.1308 -171.6143,211.5079 -252.1596,275.3262 -193.0936,152.9936 -418.3699,242.5259 -667.034,265.1016 -52.369,4.7545 -156.037,4.5274 -209.3461,-0.459 z m 272.9708,-153.2837 c 57.7854,-9.3361 157.4399,-35.0346 207.5612,-53.525 53.5062,-19.7392 154.4559,-69.2029 200.8689,-98.4225 91.1438,-57.3802 204.7872,-157.6119 266.6024,-235.1392 l 23.7444,-29.7797 -16.3193,-21.5306 c -20.8309,-27.483 -72.6028,-83.0659 -112.0072,-120.2523 -116.4779,-109.9212 -275.8074,-200.4003 -433.3849,-246.1079 -99.34,-28.8149 -187.626,-40.7599 -301.2585,-40.7599 -113.6324,0 -201.9184,11.945 -301.2584,40.7599 -157.0961,45.568 -312.16454,133.3921 -432.44668,244.9192 -37.53475,34.8026 -90.75936,91.9716 -112.78031,121.1382 l -16.48443,21.8334 23.74438,29.7797 c 13.05942,16.3788 48.83269,54.7249 79.49618,85.2135 170.08425,169.1141 383.49896,273.6256 624.27006,305.7119 60.1919,8.0214 240.5445,5.711 299.6522,-3.8387 z"
       style="fill:#e8390e;fill-opacity:1;stroke:#e8390e;stroke-opacity:1" />
    <ellipse
       ry="243.51234"
       rx="257.71722"
       cy="1500"
       cx="1500"
       id="path4154"
       style="fill:#e8390e;fill-opacity:1;stroke:#e8390e;stroke-width:148.9934845;stroke-linecap:round;stroke-linejoin:round;stroke-miterlimit:4;stroke-dasharray:none;stroke-opacity:1" />
  </g>
</svg>
