<?xml version="1.0" encoding="UTF-8" standalone="no"?>
<!-- Created with Inkscape (http://www.inkscape.org/) -->

<svg
   xmlns:dc="http://purl.org/dc/elements/1.1/"
   xmlns:cc="http://creativecommons.org/ns#"
   xmlns:rdf="http://www.w3.org/1999/02/22-rdf-syntax-ns#"
   xmlns:svg="http://www.w3.org/2000/svg"
   xmlns="http://www.w3.org/2000/svg"
   xmlns:sodipodi="http://sodipodi.sourceforge.net/DTD/sodipodi-0.dtd"
   xmlns:inkscape="http://www.inkscape.org/namespaces/inkscape"
   id="svg2"
   version="1.1"
   inkscape:version="0.91 r13725"
   width="3000"
   height="3000"
   viewBox="0 0 3000 3000"
   sodipodi:docname="CUSTOM RATE US ICON.W+RO.v1.svg"
   inkscape:export-filename="D:\ASUS WEBSTORAGE\R+D\CABS\DEV TEAM\WIREFRAME + PROTOTYPE\CUSTOM ICONS\FINAL CUSTOM LOGOS.v5\FINAL CUSTOM LOGOS.v5.PNG\CUSTOM TOGGLE RIGHT ICON.W+RO.v4.png"
   inkscape:export-xdpi="1.5"
   inkscape:export-ydpi="1.5">
  <metadata
     id="metadata8">
    <rdf:RDF>
      <cc:Work
         rdf:about="">
        <dc:format>image/svg+xml</dc:format>
        <dc:type
           rdf:resource="http://purl.org/dc/dcmitype/StillImage" />
        <dc:title></dc:title>
      </cc:Work>
    </rdf:RDF>
  </metadata>
  <defs
     id="defs6">
    <pattern
       y="0"
       x="0"
       height="6"
       width="6"
       patternUnits="userSpaceOnUse"
       id="EMFhbasepattern" />
  </defs>
  <sodipodi:namedview
     pagecolor="#ffffff"
     bordercolor="#666666"
     borderopacity="1"
     objecttolerance="10"
     gridtolerance="10"
     guidetolerance="10"
     inkscape:pageopacity="0"
     inkscape:pageshadow="2"
     inkscape:window-width="1920"
     inkscape:window-height="1017"
     id="namedview4"
     showgrid="true"
     fit-margin-top="0"
     fit-margin-left="0"
     fit-margin-right="0"
     fit-margin-bottom="0"
     inkscape:zoom="0.19778038"
     inkscape:cx="491.30541"
     inkscape:cy="1676.5746"
     inkscape:window-x="-8"
     inkscape:window-y="-8"
     inkscape:window-maximized="1"
     inkscape:current-layer="svg2"
     showguides="true"
     inkscape:guide-bbox="true"
     inkscape:object-nodes="true">
    <inkscape:grid
       type="xygrid"
       id="grid4160"
       originx="140.73122"
       originy="-100.99352" />
    <sodipodi:guide
       position="1500.7313,1499.0064"
       orientation="1,0"
       id="guide4170" />
  </sodipodi:namedview>
  <g
     id="g4166">
    <circle
       transform="scale(-1,-1)"
       style="fill:#ffffff;fill-opacity:1;stroke:#e8390e;stroke-width:128.30799866;stroke-linecap:round;stroke-linejoin:round;stroke-miterlimit:4;stroke-dasharray:none;stroke-opacity:1"
       id="path4163"
       cx="-1500"
       cy="-1500"
       r="1435.8459" />
    <g
       transform="matrix(80.1818,0,0,80.1818,618.0002,698.182)"
       style="fill:#e8390e;fill-rule:evenodd;stroke:none;stroke-width:1;fill-opacity:1"
       id="Page-1-8">
      <g
         style="fill:#e8390e;fill-opacity:1"
         id="Core-7"
         transform="translate(-295,-464)">
        <g
           style="fill:#e8390e;fill-opacity:1"
           id="thumb-up"
           transform="translate(295,464)">
          <path
             style="fill:#e8390e;fill-opacity:1"
             inkscape:connector-curvature="0"
             d="M 0,20 4,20 4,8 0,8 0,20 0,20 Z M 22,9 C 22,7.9 21.1,7 20,7 l -6.3,0 1,-4.6 0,-0.3 C 14.7,1.7 14.5,1.3 14.3,1 L 13.2,0 6.6,6.6 C 6.2,6.9 6,7.4 6,8 l 0,10 c 0,1.1 0.9,2 2,2 l 9,0 c 0.8,0 1.5,-0.5 1.8,-1.2 l 3,-7.1 c 0.1,-0.2 0.1,-0.5 0.1,-0.7 l 0,-2 0.1,0 c 0,0.1 0,0 0,0 l 0,0 z"
             id="Shape-7" />
        </g>
      </g>
    </g>
  </g>
</svg>
