<?xml version="1.0" encoding="UTF-8" standalone="no"?>
<!-- Created with Inkscape (http://www.inkscape.org/) -->

<svg
   xmlns:dc="http://purl.org/dc/elements/1.1/"
   xmlns:cc="http://creativecommons.org/ns#"
   xmlns:rdf="http://www.w3.org/1999/02/22-rdf-syntax-ns#"
   xmlns:svg="http://www.w3.org/2000/svg"
   xmlns="http://www.w3.org/2000/svg"
   xmlns:sodipodi="http://sodipodi.sourceforge.net/DTD/sodipodi-0.dtd"
   xmlns:inkscape="http://www.inkscape.org/namespaces/inkscape"
   id="svg2"
   version="1.1"
   inkscape:version="0.91 r13725"
   width="3000"
   height="3000"
   viewBox="0 0 3000 3000"
   sodipodi:docname="CUSTOM BICYCLE ICON.RO.v4.svg"
   inkscape:export-filename="D:\ASUS WEBSTORAGE\R+D\CABS\DEV TEAM\WIREFRAME + PROTOTYPE\CUSTOM ICONS\CUSTOM FERRY ICON.v1.png"
   inkscape:export-xdpi="1.5"
   inkscape:export-ydpi="1.5">
  <metadata
     id="metadata8">
    <rdf:RDF>
      <cc:Work
         rdf:about="">
        <dc:format>image/svg+xml</dc:format>
        <dc:type
           rdf:resource="http://purl.org/dc/dcmitype/StillImage" />
        <dc:title></dc:title>
      </cc:Work>
    </rdf:RDF>
  </metadata>
  <defs
     id="defs6">
    <pattern
       y="0"
       x="0"
       height="6"
       width="6"
       patternUnits="userSpaceOnUse"
       id="EMFhbasepattern" />
  </defs>
  <sodipodi:namedview
     pagecolor="#ffffff"
     bordercolor="#666666"
     borderopacity="1"
     objecttolerance="10"
     gridtolerance="10"
     guidetolerance="10"
     inkscape:pageopacity="0"
     inkscape:pageshadow="2"
     inkscape:window-width="1920"
     inkscape:window-height="1017"
     id="namedview4"
     showgrid="false"
     fit-margin-top="0"
     fit-margin-left="0"
     fit-margin-right="0"
     fit-margin-bottom="0"
     inkscape:zoom="0.19778038"
     inkscape:cx="802.31558"
     inkscape:cy="1606.6106"
     inkscape:window-x="-8"
     inkscape:window-y="-8"
     inkscape:window-maximized="1"
     inkscape:current-layer="svg2" />
  <g
     id="g4149">
    <circle
       style="fill:#ffffff;fill-opacity:1;stroke:#e8390e;stroke-width:128.3081665;stroke-linecap:round;stroke-linejoin:round;stroke-miterlimit:4;stroke-dasharray:none;stroke-opacity:1"
       id="path4163"
       cx="1500"
       cy="1500"
       r="1435.8459" />
    <g
       style="fill:#e8390e;fill-opacity:1;stroke:none;stroke-opacity:1"
       transform="matrix(44.393418,0,0,44.393418,57.213905,190.39414)"
       id="g4535">
      <path
         id="path4537"
         d="m 19,33 c 3.308,0 6,2.692 6,6 0,3.308 -2.692,6 -6,6 -3.308,0 -6,-2.692 -6,-6 0,-3.308 2.692,-6 6,-6 m 0,-3 c -4.971,0 -9,4.029 -9,9 0,4.971 4.029,9 9,9 4.971,0 9,-4.029 9,-9 0,-4.971 -4.029,-9 -9,-9 l 0,0 z"
         inkscape:connector-curvature="0"
         style="fill:#e8390e;fill-opacity:1;stroke:none;stroke-opacity:1" />
    </g>
    <g
       style="fill:#e8390e;fill-opacity:1;stroke:none;stroke-opacity:1"
       transform="matrix(44.393418,0,0,44.393418,57.213905,190.39414)"
       id="g4539">
      <path
         id="path4541"
         d="m 46,33 c 3.308,0 6,2.692 6,6 0,3.308 -2.692,6 -6,6 -3.308,0 -6,-2.692 -6,-6 0,-3.308 2.692,-6 6,-6 m 0,-3 c -4.971,0 -9,4.029 -9,9 0,4.971 4.029,9 9,9 4.971,0 9,-4.029 9,-9 0,-4.971 -4.029,-9 -9,-9 l 0,0 z"
         inkscape:connector-curvature="0"
         style="fill:#e8390e;fill-opacity:1;stroke:none;stroke-opacity:1" />
    </g>
    <polyline
       transform="matrix(44.393418,0,0,44.393418,57.213905,190.39414)"
       id="polyline4543"
       stroke-miterlimit="10"
       points="  32.5,40.998 32.5,33.062 23.812,24.688 29,19.5 35.5,25.5 39,25.5 "
       style="fill:none;fill-opacity:1;stroke:#e8380e;stroke-width:3;stroke-linecap:round;stroke-linejoin:round;stroke-miterlimit:10;stroke-opacity:1" />
    <circle
       style="fill:#e8390e;fill-opacity:1;stroke:#e8390e;stroke-width:171.29022217;stroke-linecap:round;stroke-linejoin:round;stroke-miterlimit:4;stroke-dasharray:none;stroke-opacity:1"
       id="path4777-6"
       cx="1588.7869"
       cy="834.09875"
       r="86.606285" />
  </g>
  <g
     id="g4685"
     style="fill:#000000;fill-opacity:1;stroke:#000000;stroke-opacity:1"
     transform="matrix(16.862316,0,0,16.862316,-2139.477,631.50291)" />
</svg>
