<?xml version="1.0" encoding="UTF-8" standalone="no"?>
<!-- Created with Inkscape (http://www.inkscape.org/) -->

<svg
   xmlns:dc="http://purl.org/dc/elements/1.1/"
   xmlns:cc="http://creativecommons.org/ns#"
   xmlns:rdf="http://www.w3.org/1999/02/22-rdf-syntax-ns#"
   xmlns:svg="http://www.w3.org/2000/svg"
   xmlns="http://www.w3.org/2000/svg"
   xmlns:sodipodi="http://sodipodi.sourceforge.net/DTD/sodipodi-0.dtd"
   xmlns:inkscape="http://www.inkscape.org/namespaces/inkscape"
   id="svg2"
   version="1.1"
   inkscape:version="0.91 r13725"
   xml:space="preserve"
   width="3000"
   height="823.96912"
   viewBox="0 0 3000 823.96912"
   sodipodi:docname="MOOKY_LOGO TYPE.B.v1.svg"><metadata
     id="metadata8"><rdf:RDF><cc:Work
         rdf:about=""><dc:format>image/svg+xml</dc:format><dc:type
           rdf:resource="http://purl.org/dc/dcmitype/StillImage" /><dc:title></dc:title></cc:Work></rdf:RDF></metadata><defs
     id="defs6"><clipPath
       clipPathUnits="userSpaceOnUse"
       id="clipPath16"><path
         d="M 0,792 612,792 612,0 0,0 0,792 Z"
         id="path18"
         inkscape:connector-curvature="0" /></clipPath><clipPath
       clipPathUnits="userSpaceOnUse"
       id="clipPath52"><path
         d="M 0,792 612,792 612,0 0,0 0,792 Z"
         id="path54"
         inkscape:connector-curvature="0" /></clipPath></defs><sodipodi:namedview
     pagecolor="#ffffff"
     bordercolor="#666666"
     borderopacity="1"
     objecttolerance="10"
     gridtolerance="10"
     guidetolerance="10"
     inkscape:pageopacity="0"
     inkscape:pageshadow="2"
     inkscape:window-width="1920"
     inkscape:window-height="1017"
     id="namedview4"
     showgrid="false"
     fit-margin-top="0"
     fit-margin-left="0"
     fit-margin-right="0"
     fit-margin-bottom="0"
     inkscape:zoom="0.23838384"
     inkscape:cx="1520.9017"
     inkscape:cy="480.01191"
     inkscape:window-x="-8"
     inkscape:window-y="-8"
     inkscape:window-maximized="1"
     inkscape:current-layer="g10" /><g
     id="g10"
     inkscape:groupmode="layer"
     inkscape:label="MOOKY_LOGO TYPE"
     transform="matrix(1.25,0,0,-1.25,1138.4017,964.80469)"><g
       id="g4749"
       transform="matrix(4.3542399,0,0,4.3542399,-1032.4135,-2064.2817)"><g
         transform="translate(514.8812,526.3618)"
         id="g20"><path
           inkscape:connector-curvature="0"
           id="path22"
           style="fill:#000000;fill-opacity:1;fill-rule:nonzero;stroke:none"
           d="M 0,0 C -0.506,0 -1.016,0.24 -1.338,0.629 -1.712,1.081 -1.826,1.694 -1.641,2.25 l 4.004,11.992 c 0.216,0.647 0.8,1.103 1.48,1.155 l 41.69,3.193 c 0.044,0.003 0.088,0.005 0.13,0.005 0.547,0 1.063,-0.264 1.383,-0.714 0.346,-0.485 0.411,-1.116 0.174,-1.661 L 41.939,4.08 C 41.687,3.503 41.137,3.112 40.51,3.064 40.51,3.064 0.042,0 0,0" /></g><g
         transform="translate(348.0583,599.431)"
         id="g24"><path
           inkscape:connector-curvature="0"
           id="path26"
           style="fill:#000000;fill-opacity:1;fill-rule:nonzero;stroke:none"
           d="m 0,0 c -0.17,0 -0.341,-0.006 -0.513,-0.019 -4.902,-0.36 -10.466,-6.01 -15.263,-15.5 -4.256,-8.416 -6.798,-17.721 -6.798,-21.854 0,-3.948 2.069,-6.498 5.269,-6.498 0.156,0 0.313,0.006 0.472,0.017 3.1,0.228 6.391,2.342 9.522,6.114 -2.206,2.095 -3.324,4.745 -3.324,7.877 0,6.764 5.846,12.198 13.6,12.639 1.461,4.165 2.266,8.022 2.266,10.86 C 5.231,-0.62 1.573,0 0,0 m -91.119,-6.698 c -0.169,0 -0.339,-0.006 -0.51,-0.019 -4.905,-0.36 -10.469,-6.01 -15.267,-15.5 -4.255,-8.416 -6.797,-17.721 -6.797,-21.855 0,-3.946 2.068,-6.497 5.269,-6.497 0.155,0 0.311,0.006 0.47,0.018 3.101,0.227 6.393,2.34 9.524,6.112 -2.206,2.098 -3.325,4.748 -3.325,7.878 0,6.765 5.847,12.198 13.6,12.64 1.462,4.163 2.267,8.02 2.267,10.859 0,5.744 -3.658,6.364 -5.231,6.364 M 150.45,-60.92 c -3.274,-1.592 -5.859,-2.849 -9.221,-4.881 -3.297,-2.123 -5.139,-4.43 -5.139,-6.469 0,-2.061 1.575,-3.501 3.831,-3.502 l 0.137,0.005 c 2.327,0.17 7.119,2.472 12.656,15.953 l -2.264,-1.106 z m -9.307,-28.891 c -7.849,0 -17.086,3.72 -17.292,14.206 0.143,9.477 9.071,17.14 17.378,21.173 2.539,1.292 5.64,2.754 8.64,4.168 3.598,1.696 6.934,3.269 8.739,4.283 l 3.475,8.105 c -0.289,-0.373 -7.031,-8.908 -18.436,-9.747 -0.564,-0.042 -1.127,-0.062 -1.678,-0.062 -3.369,0 -14.446,1.005 -15.495,13.937 -7.578,-7.462 -19.322,-16.557 -32.238,-17.507 -0.747,-0.056 -1.503,-0.083 -2.248,-0.083 -7.129,0 -13.337,2.476 -17.481,6.972 -3.971,4.309 -5.77,10.233 -5.205,17.13 0.624,6.902 2.988,8.477 6.346,8.723 4.022,0.296 12.392,0.912 17.227,13.449 0.584,1.608 0.907,2.887 0.907,4.939 0,2.623 -1.103,3.161 -2.757,3.161 -0.18,0 -0.37,-0.008 -0.57,-0.022 C 85.971,2.685 79.858,-1.218 73.684,-7.694 l -19.18,-43.694 c -0.286,-0.653 -0.909,-1.093 -1.62,-1.146 l -22.409,-1.648 c -0.047,-0.003 -0.095,-0.005 -0.142,-0.005 -0.621,0 -1.207,0.301 -1.57,0.812 -0.389,0.551 -0.462,1.265 -0.193,1.883 l 5.483,12.544 c -5.624,-2.997 -11.458,-4.683 -17.337,-5.012 -6.145,-6.379 -16.874,-14.233 -33.093,-15.425 -1.328,-0.098 -2.637,-0.147 -3.89,-0.147 -15.572,0 -25.402,7.152 -27.678,20.138 -7.884,-6.75 -17.28,-10.751 -26.458,-11.263 -6.145,-6.38 -16.875,-14.235 -33.094,-15.427 -1.328,-0.098 -2.637,-0.146 -3.89,-0.146 -8.886,0 -16.165,2.482 -21.048,7.178 -4.644,4.468 -7.098,10.864 -7.098,18.496 0,19.052 14.956,46.982 48.205,49.426 1.368,0.1 2.715,0.152 4.005,0.152 17.334,0 27.275,-9.134 27.275,-25.058 0,-7.385 -2.039,-15.466 -5.742,-22.753 7.133,2.387 13.684,7.967 18.944,16.14 4.602,17.156 19.271,36.205 46.638,38.217 1.369,0.1 2.716,0.152 4.004,0.152 17.334,0 27.275,-9.133 27.275,-25.056 0,-7.386 -2.039,-15.467 -5.742,-22.757 6.891,2.307 13.26,7.608 18.42,15.33 l 28.795,65.879 c 0.286,0.654 0.911,1.096 1.622,1.149 l 22.413,1.647 c 0.048,0.004 0.095,0.005 0.142,0.005 0.62,0 1.207,-0.3 1.569,-0.811 0.39,-0.55 0.464,-1.263 0.195,-1.881 L 82.6,12.722 c 0.124,0.1 12.446,9.848 25.991,10.844 0.73,0.053 1.451,0.081 2.142,0.081 8.406,0 13.424,-4.005 13.424,-10.713 0,-4.386 -2.479,-11.524 -6.802,-19.584 -5.126,-9.562 -14.142,-16.6 -22.969,-17.93 l -0.006,-0.097 c -0.106,-1.72 -0.433,-6.954 2.155,-9.708 1.114,-1.185 2.576,-1.761 4.471,-1.761 0.487,0 1.005,0.041 1.54,0.12 8.669,1.202 20.69,11.659 29.931,26.024 l 14.635,33.609 c 0.285,0.655 0.91,1.098 1.623,1.151 l 22.413,1.647 c 0.047,0.003 0.094,0.005 0.142,0.005 0.62,0 1.206,-0.3 1.569,-0.811 0.389,-0.549 0.463,-1.263 0.195,-1.88 L 156.34,-14.748 c -5.131,-11.75 -3.847,-13.71 -3.426,-14.353 0.391,-0.599 1.062,-0.89 2.051,-0.89 0.153,0 0.308,0.006 0.467,0.018 4.776,0.351 8.901,4.874 19.193,21.037 l 15.703,35.725 c 0.287,0.653 0.911,1.093 1.622,1.145 l 22.405,1.647 c 0.047,0.003 0.094,0.005 0.141,0.005 0.621,0 1.209,-0.301 1.571,-0.814 0.39,-0.551 0.462,-1.265 0.192,-1.883 l -28.033,-63.926 c 13.596,7.219 22.686,16.432 33.536,33.991 0.354,0.573 0.977,0.913 1.636,0.913 0.105,0 0.211,-0.009 0.316,-0.026 2.511,-0.417 5.283,-1.957 6.897,-3.832 0.548,-0.637 0.619,-1.556 0.177,-2.271 -15.971,-25.73 -31.667,-34.968 -49.061,-43.599 -0.024,-0.053 -2.387,-5.256 -3.16,-7.238 -5.879,-13.527 -15.132,-29.162 -34.92,-30.617 -0.857,-0.063 -1.699,-0.095 -2.504,-0.095" /></g><g
         transform="translate(468.5712,537.033)"
         id="g28"><path
           inkscape:connector-curvature="0"
           id="path30"
           style="fill:#000000;fill-opacity:1;fill-rule:nonzero;stroke:none"
           d="m 0,0 c -0.319,0.505 -0.874,0.807 -1.465,0.807 -0.037,0 -215.21,-16.398 -277.301,-21.13 -1.249,-0.095 -2.515,-0.191 -3.775,-0.287 -0.438,-0.034 -0.861,-0.066 -1.279,-0.098 -0.381,-0.029 -0.756,-0.057 -1.138,-0.086 -0.055,-0.005 -0.11,-0.007 -0.164,-0.007 -0.335,0 -0.659,0.093 -0.958,0.242 -0.203,0.119 -0.403,0.239 -0.591,0.363 -0.175,0.115 -0.351,0.23 -0.513,0.35 -0.237,0.175 -0.45,0.357 -0.659,0.542 -0.137,0.121 -0.283,0.24 -0.408,0.365 -0.207,0.208 -0.385,0.426 -0.559,0.645 -0.091,0.114 -0.196,0.222 -0.278,0.34 -0.233,0.332 -0.434,0.676 -0.6,1.037 -0.005,0.011 -0.013,0.021 -0.018,0.032 -0.027,0.061 -0.043,0.126 -0.064,0.189 -1.277,3.087 -0.049,7.112 1.32,10.598 l 31.28,71.598 c 3.92,9.065 5.592,14.815 5.592,19.225 0,6.377 -3.589,13.824 -13.703,13.824 -0.506,0 -1.03,-0.019 -1.56,-0.058 -8.375,-0.616 -22.276,-6.287 -32.64,-15.935 -0.78,9.189 -8.043,12.449 -14.026,12.449 -0.502,0 -1.021,-0.019 -1.539,-0.058 -6.835,-0.502 -18.529,-4.662 -27.654,-11.642 l -21.041,8.924 c -0.24,0.101 -0.496,0.153 -0.752,0.153 -0.235,0 -0.47,-0.043 -0.693,-0.13 -7.121,-2.748 -14.246,-5.208 -21.137,-7.588 -29.136,-10.063 -54.299,-18.754 -54.299,-41.312 -0.059,-6.044 2.002,-11.351 5.961,-15.349 5.094,-5.144 13.197,-7.977 22.814,-7.977 0.663,0 1.337,0.013 2.017,0.04 1.033,0.041 1.849,0.89 1.849,1.923 l 0,15.701 c 0,1.045 -0.835,1.9 -1.88,1.924 -3.079,0.071 -8.245,0.972 -8.245,6.206 0,8.318 13.497,12.891 33.928,19.814 3.073,1.041 6.281,2.128 9.593,3.281 l -36.205,-83.209 c -0.269,-0.618 -0.195,-1.332 0.195,-1.881 0.362,-0.512 0.949,-0.811 1.569,-0.811 0.047,0 0.094,0.001 0.142,0.005 l 22.409,1.647 c 0.714,0.052 1.34,0.497 1.624,1.154 l 31.573,72.887 c 7.619,7.384 15.508,12.373 20.097,12.71 0.168,0.013 0.331,0.018 0.49,0.018 2.06,0 3.289,-1.016 3.289,-2.718 0,-2.675 -2.595,-8.672 -6.834,-18.246 l -26.651,-61.244 c -0.269,-0.617 -0.195,-1.331 0.195,-1.881 0.362,-0.511 0.949,-0.811 1.569,-0.811 0.047,0 0.094,0.002 0.142,0.005 l 22.408,1.648 c 0.714,0.052 1.34,0.496 1.625,1.153 l 31.119,71.77 c 7.008,7.652 15.778,13.477 20.854,13.85 0.147,0.011 0.292,0.016 0.433,0.016 2,0 3.194,-1.019 3.194,-2.727 0,-2.675 -2.594,-8.671 -6.83,-18.24 l -25.357,-58.026 c -2.477,-6.151 -4.551,-15.103 -0.367,-22.823 1.759,-3.247 4.467,-5.995 8.085,-8.238 l 0,0.016 c 0.444,-0.276 0.871,-0.52 1.295,-0.76 0.119,-0.066 0.234,-0.136 0.355,-0.201 1.269,-0.688 2.686,-1.05 4.123,-1.05 0.218,0 0.436,0.008 0.655,0.025 l 1.084,0.083 9.648,0.732 0.004,0.008 c 43.163,3.287 283.901,21.633 283.901,21.633 0.888,0.068 1.578,0.796 1.6,1.685 0.093,3.845 1.165,7.587 3.189,11.121 C 0.356,-1.229 0.342,-0.542 0,0" /></g></g></g></svg>