<?xml version="1.0" encoding="UTF-8" standalone="no"?>
<!-- Created with Inkscape (http://www.inkscape.org/) -->

<svg
   xmlns:dc="http://purl.org/dc/elements/1.1/"
   xmlns:cc="http://creativecommons.org/ns#"
   xmlns:rdf="http://www.w3.org/1999/02/22-rdf-syntax-ns#"
   xmlns:svg="http://www.w3.org/2000/svg"
   xmlns="http://www.w3.org/2000/svg"
   xmlns:sodipodi="http://sodipodi.sourceforge.net/DTD/sodipodi-0.dtd"
   xmlns:inkscape="http://www.inkscape.org/namespaces/inkscape"
   id="svg2"
   version="1.1"
   inkscape:version="0.91 r13725"
   xml:space="preserve"
   width="3000"
   height="3000"
   viewBox="0 0 3000 3000"
   sodipodi:docname="MOOKY_APP ICON_1.v1.svg"><metadata
     id="metadata8"><rdf:RDF><cc:Work
         rdf:about=""><dc:format>image/svg+xml</dc:format><dc:type
           rdf:resource="http://purl.org/dc/dcmitype/StillImage" /><dc:title></dc:title></cc:Work></rdf:RDF></metadata><defs
     id="defs6"><clipPath
       clipPathUnits="userSpaceOnUse"
       id="clipPath20"><path
         d="M 0,792 612,792 612,0 0,0 0,792 Z"
         id="path22"
         inkscape:connector-curvature="0" /></clipPath><clipPath
       clipPathUnits="userSpaceOnUse"
       id="clipPath54"><path
         d="m 155.848,509.248 c 0,-85.626 69.414,-155.04 155.04,-155.04 l 0,0 c 85.626,0 155.039,69.414 155.039,155.04 l 0,0 c 0,85.626 -69.413,155.039 -155.039,155.039 l 0,0 c -85.626,0 -155.04,-69.413 -155.04,-155.039"
         id="path56"
         inkscape:connector-curvature="0" /></clipPath><linearGradient
       x1="0"
       y1="0"
       x2="1"
       y2="0"
       gradientUnits="userSpaceOnUse"
       gradientTransform="matrix(0,42.242336,42.242336,0,363.73392,524.37671)"
       spreadMethod="pad"
       id="linearGradient94"><stop
         style="stop-opacity:1;stop-color:#ff8806"
         offset="0"
         id="stop96" /><stop
         style="stop-opacity:1;stop-color:#ff8806"
         offset="0.10769"
         id="stop98" /><stop
         style="stop-opacity:1;stop-color:#ff8806"
         offset="0.18911167"
         id="stop100" /><stop
         style="stop-opacity:1;stop-color:#e8390e"
         offset="0.923898"
         id="stop102" /><stop
         style="stop-opacity:1;stop-color:#e8390e"
         offset="1"
         id="stop104" /></linearGradient><linearGradient
       x1="0"
       y1="0"
       x2="1"
       y2="0"
       gradientUnits="userSpaceOnUse"
       gradientTransform="matrix(0,49.44083,49.44083,0,218.04044,517.10016)"
       spreadMethod="pad"
       id="linearGradient120"><stop
         style="stop-opacity:1;stop-color:#ff8806"
         offset="0"
         id="stop122" /><stop
         style="stop-opacity:1;stop-color:#ff8806"
         offset="0.10769"
         id="stop124" /><stop
         style="stop-opacity:1;stop-color:#ff8806"
         offset="0.18911167"
         id="stop126" /><stop
         style="stop-opacity:1;stop-color:#e8390e"
         offset="0.923898"
         id="stop128" /><stop
         style="stop-opacity:1;stop-color:#e8390e"
         offset="1"
         id="stop130" /></linearGradient><clipPath
       clipPathUnits="userSpaceOnUse"
       id="clipPath138"><path
         d="m 155.848,509.248 c 0,-85.626 69.414,-155.04 155.04,-155.04 l 0,0 c 85.626,0 155.039,69.414 155.039,155.04 l 0,0 c 0,85.626 -69.413,155.039 -155.039,155.039 l 0,0 c -85.626,0 -155.04,-69.413 -155.04,-155.039"
         id="path140"
         inkscape:connector-curvature="0" /></clipPath><clipPath
       clipPathUnits="userSpaceOnUse"
       id="clipPath182"><path
         d="M 0,792 612,792 612,0 0,0 0,792 Z"
         id="path184"
         inkscape:connector-curvature="0" /></clipPath></defs><sodipodi:namedview
     pagecolor="#ffffff"
     bordercolor="#666666"
     borderopacity="1"
     objecttolerance="10"
     gridtolerance="10"
     guidetolerance="10"
     inkscape:pageopacity="0"
     inkscape:pageshadow="2"
     inkscape:window-width="1920"
     inkscape:window-height="1017"
     id="namedview4"
     showgrid="false"
     fit-margin-top="0"
     fit-margin-left="0"
     fit-margin-right="0"
     fit-margin-bottom="0"
     inkscape:zoom="0.11919192"
     inkscape:cx="1493.8907"
     inkscape:cy="1358.4406"
     inkscape:window-x="-8"
     inkscape:window-y="-8"
     inkscape:window-maximized="1"
     inkscape:current-layer="g10" /><g
     id="g10"
     inkscape:groupmode="layer"
     inkscape:label="MOOKY_APP ICON_1"
     transform="matrix(1.25,0,0,-1.25,1111.3907,2136.5594)"><g
       id="g4942"
       transform="matrix(7.739963,0,0,7.739963,-2095.3703,-3432.3093)"><g
         id="g50"><g
           clip-path="url(#clipPath54)"
           id="g52"><g
             transform="translate(215.3835,626.2808)"
             id="g58"><path
               inkscape:connector-curvature="0"
               id="path60"
               style="fill:#ffffff;fill-opacity:1;fill-rule:nonzero;stroke:none"
               d="m 0,0 c 0,0 -52.065,-22.26 -45.345,-67.553 6.719,-45.293 6.65,-125.727 16.093,-148.041 9.444,-22.314 65.518,-53.455 86.457,-70.371 20.939,-16.916 46.624,-16.939 73.663,-14.258 0,0 42.592,9.426 57.472,21.579 14.881,12.154 35.855,35.793 37.91,66.884 2.055,31.09 1.414,71.646 1.414,71.646 l 10.863,54.741 c 0,0 5.436,33.115 -5.363,51.374 -10.799,18.26 -72.277,53.461 -72.277,53.461 L 22.315,11.471 0,0 Z" /></g><g
             transform="translate(128.9426,514.4678)"
             id="g62"><path
               inkscape:connector-curvature="0"
               id="path64"
               style="fill:#000000;fill-opacity:1;fill-rule:nonzero;stroke:none"
               d="m 0,0 c 0.628,-18.32 3.412,-28.597 7.058,-34.466 3.486,11.425 9.515,21.798 17.877,29.862 l -0.214,0.287 1.115,3.318 C 27.845,4.982 27.485,12.474 26.822,19.98 -30.456,23.013 -4.935,-40.623 -8.177,-20.348 -11.453,0.134 0,0 0,0" /></g><g
             transform="translate(477.781,471.5138)"
             id="g66"><path
               inkscape:connector-curvature="0"
               id="path68"
               style="fill:#000000;fill-opacity:1;fill-rule:nonzero;stroke:none"
               d="m 0,0 c 1.11,-3.528 1.94,-7.145 2.543,-10.807 4.861,4.959 9.176,15.13 11.294,36.335 0,0 11.437,-0.614 6.832,-20.838 C 16.129,-15.255 50.097,46.657 -6.237,47.279 -7.486,39.254 -10.433,31.608 -14.86,25.092 -8.088,18.262 -2.905,9.555 0,0" /></g><g
             transform="translate(333.6721,504.3073)"
             id="g70"><path
               inkscape:connector-curvature="0"
               id="path72"
               style="fill:#000000;fill-opacity:1;fill-rule:nonzero;stroke:none"
               d="m 0,0 c -6.359,1.175 -12.233,-1.763 -13.118,-6.562 -0.886,-4.797 4.522,-14.388 9.908,-10.812 11.932,7.919 18.135,-2.602 19.022,2.196 C 16.698,-10.38 6.359,-1.174 0,0" /></g><g
             transform="translate(285.5605,506.6455)"
             id="g74"><path
               inkscape:connector-curvature="0"
               id="path76"
               style="fill:#000000;fill-opacity:1;fill-rule:nonzero;stroke:none"
               d="m 0,0 c -6.443,-0.551 -17.628,-8.709 -17.21,-13.573 0.416,-4.861 7.611,5.01 18.719,-4.03 5.015,-4.081 11.327,4.94 10.911,9.8 C 12.003,-2.941 6.444,0.554 0,0" /></g><g
             transform="translate(435.3025,555.2777)"
             id="g78"><path
               inkscape:connector-curvature="0"
               id="path80"
               style="fill:#000000;fill-opacity:1;fill-rule:nonzero;stroke:none"
               d="m 0,0 -12.194,21.534 c -1.141,2.015 -3.277,3.26 -5.592,3.258 L -231.451,24.68 c -2.315,-0.001 -4.45,-1.248 -5.588,-3.264 L -249.211,-0.13 c -0.846,-1.499 -1.056,-3.275 -0.581,-4.93 l 13.828,-48.204 c 0.753,-2.627 3.086,-4.489 5.815,-4.642 l 49.796,-2.782 c 0.122,-0.007 0.243,-0.01 0.364,-0.01 2.631,10e-4 5.012,1.614 5.977,4.088 3.27,8.377 15.406,34.134 41.949,38.367 l -0.003,4.58 c -0.002,3.568 2.916,6.489 6.484,6.491 l 2.001,10e-4 c 3.569,0.002 6.49,-2.916 6.491,-6.484 l 0.003,-4.556 c 26.595,-4.126 38.816,-29.889 42.108,-38.26 0.971,-2.468 3.351,-4.073 5.978,-4.072 0.118,0 0.235,0.003 0.353,0.01 l 49.635,2.738 c 2.733,0.151 5.07,2.017 5.822,4.649 L 0.587,-4.93 C 1.06,-3.274 0.848,-1.498 0,0" /></g></g></g><g
         id="g82"><g
           id="g84"><g
             id="g90"><g
               id="g92"><path
                 inkscape:connector-curvature="0"
                 id="path106"
                 style="fill:url(#linearGradient94);stroke:none"
                 d="m 356.107,566.604 -13.758,-24.413 c 7.984,-4.982 14.224,-11.454 18.965,-17.814 l 0,0 23.805,42.242 -29.012,-0.015 z" /></g></g></g></g><g
         id="g108"><g
           id="g110"><g
             id="g116"><g
               id="g118"><path
                 inkscape:connector-curvature="0"
                 id="path132"
                 style="fill:url(#linearGradient120);stroke:none"
                 d="m 207.949,566.526 -8.715,-15.428 9.752,-33.998 27.862,49.441 -28.899,-0.015 z" /></g></g></g></g><g
         id="g134"><g
           clip-path="url(#clipPath138)"
           id="g136"><path
             inkscape:connector-curvature="0"
             id="path142"
             style="fill:#000000;fill-opacity:1;fill-rule:nonzero;stroke:none"
             d="m 169.126,405.938 -94.794,0 0,195.275 94.794,0 0,-195.275 z" /><path
             inkscape:connector-curvature="0"
             id="path144"
             style="fill:#000000;fill-opacity:1;fill-rule:nonzero;stroke:none"
             d="m 544.509,405.938 -94.794,0 0,195.275 94.794,0 0,-195.275 z" /><g
             transform="translate(445.4001,548.2169)"
             id="g146"><path
               inkscape:connector-curvature="0"
               id="path148"
               style="fill:#000000;fill-opacity:1;fill-rule:nonzero;stroke:none"
               d="m 0,0 -13.987,-48.945 c -1.728,-6.041 -7.102,-10.35 -13.372,-10.721 l -13.997,-0.824 c 37.441,-46.695 10.981,-137.006 -52.577,-148.056 -0.673,-0.113 -1.345,-0.228 -2.02,-0.339 -8.815,-1.394 -20.938,-2.513 -30.664,0.271 2.9,4.182 4.012,9.134 -5.582,10.318 -3.019,0.372 -6.136,1.153 -9.257,2.249 -0.186,0.501 -0.36,1.016 -0.513,1.55 l -3.427,-10e-4 c -12.916,5.624 -25.217,16.223 -30.17,26.067 l 0,0 -4.43,8.787 -0.033,0.065 c -0.24,0.475 -0.342,0.991 -0.31,1.499 0.008,0.128 0.024,0.254 0.049,0.38 0.074,0.376 0.223,0.741 0.446,1.075 0.147,0.221 0.323,0.421 0.52,0.596 0.594,0.529 1.385,0.833 2.221,0.834 l 36.478,0.019 0,0 9.377,0.005 c 19.493,0.01 41.448,-0.232 57.442,3.17 17.602,3.744 29.821,8.34 29.087,38.197 -3.353,-19.908 -10.18,-22.406 -21.197,-24.746 -11.017,-2.341 -26.12,-2.899 -39.546,-2.906 l -76.88,-0.04 c -4.382,0.823 -8.726,1.844 -13.003,3.1 -5.863,1.722 -11.667,3.798 -17.081,6.653 -2.456,1.295 -4.897,2.713 -7.013,4.525 -1.671,1.43 -3.807,3.449 -3.656,5.856 l 0.086,0.881 0.139,1.21 c 1.884,15.347 6.975,30.311 14.826,43.631 2.685,4.553 5.564,9.045 8.582,13.404 l -13.56,0.784 c -0.034,-0.043 -0.068,-0.085 -0.101,-0.128 -0.033,0.046 -0.066,0.093 -0.098,0.139 l -28.752,1.663 c -6.271,0.364 -11.651,4.664 -13.386,10.7 l -14.037,48.932 c -1.088,3.791 -0.6,7.936 1.339,11.372 l 12.404,21.958 c 2.621,4.642 7.562,7.527 12.895,7.529 l 4.383,0.003 c 3.471,7.712 16.96,30.153 56.385,30.182 39.612,0.028 47.645,-26.495 47.645,-26.495 0,0 7.995,26.535 47.607,26.563 39.498,0.029 52.995,-22.474 56.447,-30.141 l 3.605,0.002 c 5.337,0 10.278,-2.88 12.905,-7.516 L -1.357,11.37 C 0.587,7.934 1.08,3.789 0,0 m 88.096,-36.421 c -0.002,0.009 -0.002,0.017 -0.004,0.026 -3.268,14.633 -10.744,28.319 -20.321,39.767 -8.926,10.669 -20.337,20.261 -33.684,24.75 -3.268,1.098 -6.658,1.865 -10.098,2.16 1.499,58.027 -42.735,98.947 -42.735,98.947 3.965,-6.004 4.7,-12.69 3.332,-19.17 -14.243,23.503 -30.222,33.726 -30.222,33.726 0.769,-3.463 1.182,-6.989 1.322,-10.496 -10.052,7.299 -22.313,11.768 -30.708,21.23 -4.237,4.777 -7.275,10.716 -6.731,17.255 0.56,6.726 4.901,12.937 10.262,16.834 -8.509,0.642 -17.06,0.099 -25.468,-1.29 5.896,7.392 11.894,14.811 19.481,20.56 -36.03,-6.946 -71.569,-18.513 -103.449,-36.909 -15.09,-8.707 -29.319,-18.996 -41.925,-31.044 -13.394,-12.797 -24.331,-27.562 -33.657,-43.531 -9.644,-16.513 -18.201,-33.735 -25.481,-51.419 -16.667,3.933 -33.721,-5.241 -46.128,-15.626 -13.911,-11.643 -25.366,-27.674 -30.595,-45.135 -5.21,-17.405 1.792,-36.111 10.595,-51.109 9.272,-15.799 21.494,-29.968 35.231,-42.041 0.705,-0.62 1.415,-1.234 2.13,-1.843 -2.059,8.872 -2.622,17.959 -1.774,26.782 -82.745,81.122 21.336,102.558 21.336,102.558 0,0 0.505,-2.062 1.187,-5.144 0.036,0.184 0.078,0.367 0.116,0.55 2.534,-9.285 4.772,-18.672 6.13,-28.208 1.28,-8.983 3.125,-20.018 -1.837,-28.196 -5.193,-8.553 -10.178,-17.048 -13.774,-26.432 -3.462,-9.034 -5.736,-18.628 -5.742,-28.34 -0.007,-8.613 1.738,-17.213 5.191,-25.109 1.357,6.715 4.525,12.803 7.363,18.956 -2.332,-33.557 3.165,-68.293 20.354,-97.569 -0.465,6.754 0.471,13.454 1.491,20.102 9.353,-22.94 26.808,-42.584 49.224,-53.401 -3.183,4.662 -5.401,9.865 -7.363,15.139 17.904,-12.636 33.048,-29.584 41.559,-49.921 3.059,6.277 5.585,12.899 6.153,19.903 6.311,-12.773 19.204,-22.46 33.266,-24.555 11.547,8.869 24.478,16.695 39.334,18.045 -1.867,-5.181 -4.584,-9.986 -7.528,-14.611 11.494,-0.832 23.291,2.772 32.152,10.187 9.74,8.152 15.225,20.018 17.843,32.241 1.253,-7.414 3.658,-14.617 3.862,-22.214 14.154,4.099 27.103,12.895 34.902,25.549 7.912,11.88 10.345,26.36 10.142,40.388 1.553,-9.808 3.499,-19.785 1.463,-29.698 32.111,29.26 34.002,61.986 30.022,95.053 2.191,-6.389 4.739,-12.729 5.453,-19.53 9.028,16.033 11.419,34.697 8.059,52.661 -0.829,4.434 -1.992,8.786 -4.862,12.367 -2.529,3.158 -5.734,5.632 -8.647,8.411 -2.709,2.582 -5.577,5.815 -5.951,9.709 -0.202,2.111 0.295,4.227 0.673,6.291 0.475,2.585 0.984,5.166 1.533,7.739 2.94,13.766 7.335,26.941 12.547,39.999 0.069,-0.176 0.152,-0.345 0.222,-0.523 0.298,1.25 0.558,2.284 0.749,3.025 0.158,0.418 0.307,0.824 0.444,1.214 3.675,-1.045 102.947,-30.206 11.44,-106.271 -0.274,-8.74 -1.894,-17.449 -4.828,-25.662 32.407,23.189 63.651,62.783 56.949,92.873" /></g></g></g></g></g></svg>