<?xml version="1.0" encoding="UTF-8" standalone="no"?>
<!-- Created with Inkscape (http://www.inkscape.org/) -->

<svg
   xmlns:dc="http://purl.org/dc/elements/1.1/"
   xmlns:cc="http://creativecommons.org/ns#"
   xmlns:rdf="http://www.w3.org/1999/02/22-rdf-syntax-ns#"
   xmlns:svg="http://www.w3.org/2000/svg"
   xmlns="http://www.w3.org/2000/svg"
   xmlns:sodipodi="http://sodipodi.sourceforge.net/DTD/sodipodi-0.dtd"
   xmlns:inkscape="http://www.inkscape.org/namespaces/inkscape"
   width="2822.1396mm"
   height="846.66663mm"
   viewBox="0 0 9999.7072 2999.9998"
   id="svg73240"
   version="1.1"
   inkscape:version="0.91 r13725"
   sodipodi:docname="popup.OK+CANCEL.v1.svg">
  <defs
     id="defs73242" />
  <sodipodi:namedview
     id="base"
     pagecolor="#ffffff"
     bordercolor="#666666"
     borderopacity="1.0"
     inkscape:pageopacity="0.0"
     inkscape:pageshadow="2"
     inkscape:zoom="0.061871843"
     inkscape:cx="4251.8911"
     inkscape:cy="423.761"
     inkscape:document-units="px"
     inkscape:current-layer="layer1"
     showgrid="false"
     fit-margin-top="0"
     fit-margin-left="0"
     fit-margin-right="0"
     fit-margin-bottom="0"
     inkscape:window-width="1920"
     inkscape:window-height="1017"
     inkscape:window-x="-8"
     inkscape:window-y="-8"
     inkscape:window-maximized="1" />
  <metadata
     id="metadata73245">
    <rdf:RDF>
      <cc:Work
         rdf:about="">
        <dc:format>image/svg+xml</dc:format>
        <dc:type
           rdf:resource="http://purl.org/dc/dcmitype/StillImage" />
        <dc:title></dc:title>
      </cc:Work>
    </rdf:RDF>
  </metadata>
  <g
     inkscape:label="Layer 1"
     inkscape:groupmode="layer"
     id="layer1"
     transform="translate(4599.805,953.48588)">
    <g
       id="g4137">
      <path
         inkscape:connector-curvature="0"
         id="rect74428-9"
         d="m 3967.1594,-812.28764 c -2335.3524,0.95077 -4670.72457,-0.37746 -7006.0744,0.70061 -153.2041,6.30825 -306.5657,28.56643 -451.8753,78.76349 -182.8255,62.96576 -353.4183,162.11142 -496.5842,292.36874 -107.847,97.12016 -200.4354,210.98866 -273.9824,336.13493 -72.8566,124.187494 -126.7924,259.27541 -159.5764,399.51007 -31.1648,139.45688 -45.4977,283.55869 -32.812,426.25801 10.1657,151.61183 46.0876,301.33619 104.1299,441.74139 55.3224,134.1985 131.4506,259.6058 224.4634,371.0671 91.877,109.3234 199.7993,204.9711 319.7159,282.6083 120.0832,77.2889 251.4461,136.7781 388.9506,175.5158 148.5683,41.7635 303.5513,57.9839 457.662,53.3744 701.3185,-0.7299 1402.6655,-0.099 2103.99533,-0.2936 1613.88316,-0.1663 3227.78857,0.6595 4841.65767,-0.6238 150.1576,-6.4665 300.3549,-28.5998 442.8617,-77.5034 182.9643,-62.5879 353.753,-161.4584 497.1621,-291.389 108.0222,-96.9263 200.8385,-210.606 274.6303,-335.6092 73.1065,-124.0427 127.2893,-259.0343 160.3536,-399.20258 31.5805,-140.06404 46.204,-284.85506 33.4901,-428.245 -10.1004,-151.85065 -46.057,-301.80946 -104.17,-442.43801 -55.3434,-134.191838 -131.4525,-259.6099 -224.4767,-371.06677 -91.8634,-109.32526 -199.8119,-204.9724 -319.7013,-282.60116 -120.0869,-77.28717 -251.4487,-136.78362 -388.956,-175.51982 -127.0929,-34.75872 -258.9517,-54.29348 -390.8639,-53.5506 z"
         style="opacity:1;fill:#ffffff;fill-opacity:1;stroke:none;stroke-width:20;stroke-linecap:butt;stroke-linejoin:round;stroke-miterlimit:4;stroke-dasharray:none;stroke-opacity:1" />
      <path
         inkscape:connector-curvature="0"
         id="rect74428"
         d="m 3825.7079,-953.46535 c -2335.3523,0.95075 -4670.72461,-0.37748 -7006.0744,0.70061 -153.2041,6.30824 -306.5658,28.56641 -451.8753,78.7635 -182.8255,62.96573 -353.4183,162.11142 -496.5843,292.36871 -107.8469,97.12019 -200.4356,210.98866 -273.9824,336.13492 -72.8565,124.18753 -126.7923,259.275413 -159.576,399.51011 -31.1647,139.45688 -45.4977,283.55866 -32.812,426.25798 10.1653,151.61186 46.0873,301.33618 104.1296,441.74132 55.322,134.1986 131.4505,259.6059 224.4634,371.0672 91.877,109.3234 199.7993,204.9711 319.7158,282.6083 120.0833,77.2889 251.4462,136.7782 388.9506,175.5159 148.5683,41.7636 303.5514,57.9837 457.662,53.3743 701.3186,-0.7298 1402.6656,-0.099 2103.99529,-0.2937 1613.88317,-0.1663 3227.78871,0.6598 4841.65781,-0.6236 150.1576,-6.4667 300.3552,-28.6 442.8617,-77.5036 182.9643,-62.5878 353.7533,-161.4583 497.1621,-291.3889 108.0222,-96.9263 200.8384,-210.606 274.6303,-335.6092 73.1065,-124.0427 127.2893,-259.03432 160.354,-399.20262 31.58,-140.064 46.2036,-284.85502 33.4896,-428.24499 -10.1003,-151.85066 -46.0569,-301.809431 -104.1699,-442.43798 -55.3434,-134.19187 -131.4525,-259.60993 -224.4764,-371.0668 -91.8637,-109.32523 -199.8122,-204.9724 -319.7017,-282.60113 -120.0865,-77.28717 -251.4486,-136.78362 -388.9556,-175.51986 -127.0933,-34.75868 -258.9521,-54.29347 -390.8642,-53.55056 z"
         style="opacity:1;fill:#ff8806;fill-opacity:1;stroke:none;stroke-width:20;stroke-linecap:butt;stroke-linejoin:round;stroke-miterlimit:4;stroke-dasharray:none;stroke-opacity:1" />
    </g>
  </g>
</svg>
